<svg width="351" height="62" viewBox="0 0 351 62" fill="none" xmlns="http://www.w3.org/2000/svg">
    <g clipPath="url(#clip0_4_2327)">
        <g clipPath="url(#clip1_4_2327)">
            <g clipPath="url(#clip2_4_2327)">
                <path
                    d="M45.7368 2.08909L43.1767 1.54606C39.9912 0.654769 36.6745 0.327488 33.3763 0.57902C24.0539 1.67907 22.6048 7.75833 22.6048 7.75833C21.2267 12.8585 26.1279 15.4887 26.1279 15.4887C27.164 15.7717 26.48 15.0766 26.48 15.0766C23.3658 13.1396 24.1229 9.13039 24.1229 9.13039C25.5719 3.67915 34.4803 3.05913 34.4803 3.05913C38.7635 3.05913 45.9508 5.54823 45.9508 5.54823C44.9128 6.37727 42.0096 11.0045 42.0096 11.0045C41.1213 12.7232 39.8274 14.1993 38.2399 15.3052C36.6524 16.411 34.8193 17.1131 32.8992 17.3507L31.5842 17.4277C30.6841 17.7018 31.4482 17.9768 31.4482 17.9768C33.5021 17.9223 35.5419 17.6201 37.5234 17.0767C44.7047 15.8357 49.2619 6.78829 49.2619 6.78829L49.676 6.31127C49.815 5.88925 50.985 5.67924 50.985 5.67924C58.7953 4.99921 60.7924 1.25905 60.7924 1.25905C55.3392 5.06121 45.7368 2.08909 45.7368 2.08909ZM37.6584 12.0435C37.7064 11.4656 37.629 10.8842 37.4316 10.339C37.2342 9.7938 36.9215 9.2976 36.5148 8.88432C36.1081 8.47104 35.6169 8.15042 35.0749 7.94436C34.5329 7.73829 33.9528 7.65164 33.3742 7.69032C33.3742 7.69032 29.2971 7.75733 29.2971 11.7605C29.2971 15.7637 33.3742 15.8347 33.3742 15.8347C33.3742 15.8347 37.6584 15.4887 37.6584 12.0435ZM56.2052 56.1154H45.9658C45.9658 56.1154 43.4817 56.8394 44.4107 57.6705H57.2383C57.2383 57.6705 58.0693 56.6324 56.2052 56.1154ZM22.2718 56.2154H12.6504C12.2494 56.2553 11.8691 56.4121 11.5565 56.6663C11.2439 56.9206 11.013 57.2611 10.8923 57.6455L23.6438 57.6275C23.6438 57.6275 24.5469 56.9424 22.2718 56.2184V56.2154ZM54.8602 9.60741C39.2735 19.8218 34.0303 19.4068 34.0303 19.4068C26.574 20.9309 19.8207 13.8866 19.8207 13.8866L19.0386 14.8536L18.5386 14.5076L10.5723 14.3076V15.2366L18.5856 15.4177L17.9786 16.1637L16.9926 16.0637L11.3033 15.9567L10.8853 16.2747L11.4013 16.6807L12.2283 16.8937L13.9884 18.6528H19.2517C19.3997 18.8178 19.5456 18.9868 19.7017 19.1698H13.4664L11.8293 55.7024H22.5798L21.1047 20.8699C23.2253 23.5407 24.969 26.49 26.287 29.6353C31.5702 42.7188 35.2323 61.0606 35.2323 61.0606C35.2323 61.0606 36.8544 46.883 40.9186 35.3165C42.679 30.6302 44.7981 26.0865 47.2569 21.7259L45.4428 55.6024H56.3032L54.7592 19.3768L48.5929 19.3648C48.6929 19.1878 48.7929 19.0308 48.8929 18.8558H55.0622L55.8852 18.4458L56.6312 17.5007L57.1313 17.2957V16.5737H50.264C50.411 16.3327 50.564 16.0807 50.708 15.8497H57.8553V14.6136H51.493C53.4671 11.5185 54.8602 9.61141 54.8602 9.61141V9.60741Z"
                    fill="black" />
            </g>
        </g>
    </g>
    <g clipPath="url(#clip3_4_2327)">
        <g clipPath="url(#clip4_4_2327)">
            <g clipPath="url(#clip5_4_2327)">
                <path
                    d="M87.8673 41.5626L90.5267 59.4465H85.7748L85.5249 56.2322H83.8612L83.5813 59.4474H78.7734L81.1449 41.5636L87.8673 41.5626ZM85.4029 53.06C85.1669 51.0338 84.9307 48.5303 84.6941 45.5497C84.2208 48.9729 83.9236 51.4763 83.8023 53.06H85.4029Z"
                    fill="black" />
                <path
                    d="M95.8888 42.8334V45.1418H97.0886V47.4613H95.8888V55.3035C95.8344 55.8459 95.8849 56.3938 96.0378 56.9171C96.1378 57.0271 96.552 57.082 97.2805 57.082V59.4465H95.4809C94.7532 59.4658 94.025 59.4234 93.3044 59.3195C92.8736 59.2374 92.4752 59.0342 92.1557 58.7337C91.8421 58.46 91.6251 58.0926 91.5368 57.6859C91.4267 56.7642 91.3859 55.8354 91.4149 54.9076V47.4623H90.4541V45.1428H91.4149V42.8344L95.8888 42.8334Z"
                    fill="black" />
                <path
                    d="M107.871 44.7879L106.596 55.3924C106.396 57.0707 106.228 58.2157 106.09 58.8276C105.981 59.377 105.748 59.8943 105.41 60.3402C105.066 60.7563 104.607 61.0618 104.09 61.2181C103.209 61.444 102.299 61.539 101.391 61.5H98.6853V59.1585C99.1342 59.1826 99.5844 59.147 100.024 59.0526C100.12 59.0206 100.202 58.9566 100.257 58.8713C100.312 58.7859 100.335 58.6844 100.324 58.5837C100.324 58.4657 100.232 57.9534 100.047 57.047L97.6035 44.7869H101.655L103.121 54.6846L103.837 44.7869L107.871 44.7879Z"
                    fill="black" />
                <path
                    d="M112.841 50.4656H108.655V49.4818C108.616 48.5906 108.749 47.7002 109.047 46.8594C109.385 46.1631 109.936 45.5926 110.621 45.2308C111.637 44.7499 112.75 44.5083 113.874 44.5246C114.998 44.5409 116.103 44.8147 117.105 45.3248C117.454 45.5449 117.755 45.8319 117.992 46.1693C118.229 46.5067 118.397 46.8877 118.486 47.2903C118.689 48.8814 118.766 50.4859 118.719 52.0892V59.4455H114.377V58.1398C114.149 58.6306 113.78 59.0422 113.317 59.3222C112.854 59.6022 112.318 59.7377 111.777 59.7114C111.011 59.7163 110.261 59.4871 109.629 59.0546C108.976 58.618 108.65 57.6592 108.651 56.1782V54.9785C108.569 54.1941 108.751 53.4046 109.17 52.736C109.926 52.1041 110.801 51.6308 111.743 51.3444C112.591 51.1021 113.388 50.7093 114.096 50.1846C114.228 49.7941 114.281 49.3811 114.251 48.9699C114.287 48.4637 114.228 47.9552 114.079 47.4703C114.03 47.3615 113.95 47.27 113.849 47.2079C113.747 47.1457 113.629 47.1159 113.51 47.1224C113.21 47.1224 113.021 47.2223 112.947 47.4143C112.845 47.914 112.808 48.4247 112.836 48.9339L112.841 50.4656ZM114.256 52.4761C113.727 52.7902 113.297 53.2455 113.013 53.7908C112.881 54.2874 112.823 54.8009 112.841 55.3145C112.808 55.809 112.859 56.3054 112.991 56.7831C113.043 56.8929 113.128 56.9839 113.234 57.0432C113.339 57.1025 113.461 57.1273 113.582 57.114C113.688 57.1296 113.797 57.1134 113.894 57.0675C113.992 57.0216 114.073 56.9481 114.129 56.8561C114.245 56.4115 114.288 55.9508 114.256 55.4924V52.4761Z"
                    fill="black" />
                <path
                    d="M124.788 41.5626V45.7966C125.126 45.3931 125.546 45.0665 126.02 44.8388C126.482 44.627 126.986 44.5199 127.495 44.5249C128.038 44.5122 128.579 44.6099 129.084 44.8119C129.498 44.975 129.855 45.255 130.112 45.6177C130.329 45.9198 130.474 46.2676 130.537 46.6344C130.6 47.3394 130.624 48.0473 130.609 48.755V55.3614C130.636 56.167 130.563 56.9728 130.394 57.7609C130.226 58.3213 129.869 58.806 129.383 59.1315C128.833 59.5241 128.17 59.7273 127.495 59.7104C126.986 59.7143 126.484 59.5967 126.031 59.3675C125.549 59.1155 125.126 58.765 124.788 58.3387L124.501 59.4455H120.326V41.5626H124.788ZM126.147 48.9519C126.176 48.4525 126.128 47.9516 126.003 47.4672C125.959 47.3561 125.88 47.2622 125.779 47.1995C125.677 47.1367 125.558 47.1086 125.439 47.1193C125.33 47.1053 125.22 47.127 125.124 47.1811C125.029 47.2351 124.953 47.3187 124.909 47.4193C124.798 47.9211 124.757 48.4358 124.787 48.9489V55.2674C124.756 55.7764 124.803 56.2873 124.926 56.7821C124.97 56.8887 125.046 56.9784 125.145 57.0379C125.243 57.0973 125.358 57.1233 125.473 57.112C125.589 57.1246 125.706 57.0978 125.805 57.036C125.904 56.9742 125.98 56.8809 126.02 56.7711C126.135 56.2302 126.177 55.6765 126.147 55.1245V48.9519Z"
                    fill="black" />
                <path
                    d="M144.334 41.5626L146.996 59.4474H142.244L141.994 56.2332H140.327L140.048 59.4474H135.24L137.613 41.5636L144.334 41.5626ZM141.87 53.06C141.634 51.0338 141.397 48.5303 141.161 45.5497C140.687 48.9729 140.39 51.4763 140.269 53.06H141.87Z"
                    fill="black" />
                <path d="M152.306 41.5626V59.4474H147.707V41.5626H152.306Z" fill="black" />
                <path
                    d="M175.158 41.5627V59.4475H171.094L171.088 47.3753L169.47 59.4475H166.586L164.88 47.6502L164.874 59.4475H160.809V41.5627H166.826C167.004 42.6384 167.188 43.9048 167.378 45.3618L168.039 49.9097L169.107 41.5587L175.158 41.5627Z"
                    fill="black" />
                <path
                    d="M180.964 50.4656H176.778V49.4818C176.739 48.5906 176.872 47.7002 177.17 46.8594C177.508 46.163 178.059 45.5925 178.744 45.2308C179.76 44.7499 180.873 44.5083 181.997 44.5246C183.121 44.5409 184.226 44.8147 185.228 45.3248C185.577 45.545 185.878 45.8321 186.115 46.1695C186.352 46.5069 186.519 46.8878 186.608 47.2903C186.81 48.8815 186.888 50.486 186.84 52.0892V59.4455H182.499V58.1398C182.271 58.6305 181.902 59.0421 181.439 59.322C180.976 59.602 180.44 59.7376 179.899 59.7114C179.133 59.7163 178.384 59.4871 177.751 59.0546C177.099 58.618 176.773 57.6592 176.773 56.1782V54.9785C176.691 54.1941 176.874 53.4046 177.292 52.736C178.048 52.104 178.923 51.6307 179.865 51.3444C180.713 51.1022 181.51 50.7093 182.218 50.1846C182.351 49.7942 182.403 49.3811 182.373 48.9699C182.409 48.4637 182.351 47.9552 182.201 47.4703C182.153 47.3615 182.072 47.27 181.971 47.2079C181.869 47.1457 181.751 47.1159 181.632 47.1224C181.332 47.1224 181.142 47.2223 181.069 47.4143C180.967 47.914 180.93 48.4247 180.958 48.9339L180.964 50.4656ZM182.378 52.4761C181.85 52.7904 181.419 53.2457 181.135 53.7908C181.003 54.2875 180.946 54.8009 180.964 55.3145C180.931 55.809 180.982 56.3054 181.114 56.7831C181.166 56.893 181.251 56.9841 181.357 57.0434C181.462 57.1027 181.584 57.1274 181.705 57.114C181.811 57.1294 181.92 57.1132 182.017 57.0673C182.115 57.0215 182.196 56.948 182.252 56.8561C182.368 56.4115 182.411 55.9508 182.379 55.4924L182.378 52.4761Z"
                    fill="black" />
                <path
                    d="M192.898 44.7879L192.723 46.7154C192.934 46.1192 193.312 45.596 193.811 45.2075C194.31 44.8189 194.91 44.5814 195.54 44.5229V49.6807C194.922 49.6406 194.304 49.7543 193.74 50.0117C193.563 50.1054 193.408 50.2364 193.286 50.3957C193.164 50.555 193.078 50.7388 193.033 50.9345C192.914 51.837 192.87 52.7479 192.9 53.6578V59.4455H188.438V44.7879H192.898Z"
                    fill="black" />
                <path
                    d="M205.706 49.4718H201.752V48.677C201.779 48.2447 201.74 47.8107 201.636 47.3902C201.559 47.2083 201.366 47.1193 201.056 47.1193C200.949 47.1121 200.842 47.1309 200.744 47.1741C200.645 47.2172 200.559 47.2835 200.492 47.3673C200.352 47.5896 200.286 47.8509 200.305 48.1131C200.292 48.4451 200.324 48.7773 200.399 49.1009C200.516 49.3809 200.711 49.6209 200.962 49.7917C201.57 50.2138 202.215 50.5799 202.889 50.8854C203.863 51.2832 204.734 51.8944 205.44 52.674C205.892 53.4048 206.104 54.2582 206.049 55.1155C206.099 56.0388 205.94 56.9614 205.584 57.8148C205.245 58.4477 204.697 58.9427 204.032 59.2145C203.202 59.5623 202.308 59.7296 201.409 59.7054C200.413 59.7311 199.422 59.551 198.499 59.1765C197.791 58.9103 197.202 58.401 196.836 57.7398C196.486 56.871 196.331 55.9358 196.383 55.0005V54.2937H200.338V55.2204C200.306 55.7366 200.357 56.2546 200.487 56.7551C200.534 56.8697 200.618 56.966 200.724 57.0297C200.83 57.0934 200.954 57.1212 201.078 57.109C201.199 57.1228 201.322 57.1087 201.437 57.0676C201.552 57.0265 201.657 56.9596 201.742 56.8721C201.9 56.564 201.965 56.2166 201.929 55.8723C201.984 55.4198 201.9 54.9612 201.686 54.5586C200.859 53.9724 199.99 53.4481 199.086 52.99C198.116 52.5566 197.286 51.8623 196.687 50.9844C196.385 50.3139 196.238 49.5841 196.256 48.8489C196.2 47.9604 196.359 47.0715 196.72 46.2575C197.08 45.6588 197.636 45.2036 198.295 44.9698C199.117 44.6544 199.993 44.5013 200.874 44.5189C201.716 44.4982 202.555 44.6233 203.354 44.8888C203.949 45.0808 204.488 45.4167 204.922 45.8666C205.234 46.18 205.462 46.5672 205.585 46.9924C205.677 47.5288 205.715 48.073 205.7 48.617L205.706 49.4718Z"
                    fill="black" />
                <path
                    d="M211.774 41.5626V45.5857C212.135 45.2442 212.557 44.973 213.017 44.7859C213.473 44.6062 213.958 44.5158 214.448 44.5199C215.16 44.5001 215.859 44.7105 216.441 45.1198C216.934 45.4401 217.292 45.9299 217.447 46.4965C217.6 47.4361 217.661 48.3884 217.629 49.3398V59.4474H213.167V49.1289C213.196 48.5771 213.153 48.024 213.039 47.4832C213 47.3666 212.923 47.2669 212.819 47.2006C212.716 47.1344 212.592 47.1057 212.47 47.1193C212.35 47.1116 212.23 47.1441 212.13 47.2118C212.03 47.2795 211.956 47.3785 211.918 47.4932C211.796 47.9804 211.747 48.4833 211.774 48.9849V59.4474H207.312V41.5626H211.774Z"
                    fill="black" />
                <path
                    d="M229.478 49.9357V53.5259C229.505 54.4965 229.438 55.4674 229.278 56.4252C229.137 57.0597 228.845 57.6509 228.427 58.1487C227.987 58.6868 227.409 59.0952 226.754 59.3305C226.001 59.5967 225.206 59.7257 224.407 59.7114C223.56 59.7301 222.714 59.6205 221.9 59.3865C221.285 59.2143 220.731 58.8735 220.3 58.4027C219.909 57.9428 219.632 57.3982 219.488 56.8121C219.297 55.8918 219.216 54.9522 219.245 54.0127V50.2566C219.203 49.1748 219.353 48.094 219.687 47.0643C219.992 46.286 220.553 45.6349 221.278 45.2188C222.175 44.7224 223.191 44.4821 224.216 44.524C225.097 44.5017 225.974 44.6535 226.796 44.9708C227.384 45.1902 227.913 45.5435 228.34 46.0027C228.768 46.4619 229.082 47.0143 229.259 47.6162C229.43 48.3769 229.504 49.1564 229.478 49.9357ZM225.015 48.8359C225.044 48.3593 225.003 47.881 224.893 47.4163C224.849 47.3184 224.775 47.2372 224.682 47.1846C224.588 47.1321 224.48 47.1109 224.374 47.1243C224.266 47.1119 224.157 47.1334 224.062 47.1857C223.968 47.238 223.891 47.3186 223.844 47.4163C223.725 47.8794 223.68 48.3587 223.712 48.8359V55.4524C223.684 55.9078 223.728 56.3648 223.844 56.8061C223.885 56.9072 223.958 56.9924 224.052 57.049C224.145 57.1056 224.254 57.1305 224.363 57.12C224.469 57.133 224.577 57.1123 224.672 57.0608C224.766 57.0093 224.841 56.9297 224.888 56.8331C224.999 56.4308 225.042 56.0128 225.015 55.5964V48.8359Z"
                    fill="black" />
                <path
                    d="M241.166 44.7879V59.4455H236.624L236.701 58.2277C236.423 58.6913 236.029 59.0745 235.558 59.3395C235.077 59.5938 234.538 59.7214 233.994 59.7104C233.418 59.7309 232.845 59.6101 232.327 59.3585C231.914 59.1506 231.573 58.8231 231.349 58.4187C231.142 58.04 231.009 57.6259 230.956 57.198C230.905 56.7747 230.879 55.9336 230.879 54.6746V44.7879H235.341V54.7625C235.31 55.4415 235.345 56.122 235.446 56.7941C235.516 57.009 235.706 57.114 236.015 57.114C236.348 57.114 236.545 57.0037 236.606 56.7831C236.696 56.0764 236.728 55.3635 236.7 54.6516V44.7869L241.166 44.7879Z"
                    fill="black" />
                <path
                    d="M252.92 41.5626V59.4474H248.457V58.3847C248.073 58.7972 247.616 59.136 247.11 59.3845C246.647 59.6032 246.142 59.7162 245.63 59.7154C244.987 59.7306 244.357 59.5397 243.83 59.1705C243.371 58.8703 243.027 58.4245 242.852 57.9048C242.678 57.137 242.606 56.3499 242.637 55.5634V48.7039C242.604 47.8982 242.676 47.0915 242.852 46.3045C243.03 45.7897 243.379 45.3513 243.84 45.0618C244.385 44.6965 245.03 44.5096 245.685 44.5269C246.206 44.5159 246.723 44.6169 247.201 44.823C247.679 45.0291 248.108 45.3356 248.457 45.7217V41.5656L252.92 41.5626ZM248.457 48.478C248.483 48.1119 248.436 47.7443 248.319 47.3963C248.257 47.313 248.176 47.2449 248.084 47.1971C247.991 47.1494 247.889 47.1231 247.785 47.1204C247.681 47.1178 247.578 47.1386 247.483 47.1816C247.388 47.2245 247.304 47.2883 247.238 47.3683C247.116 47.7252 247.07 48.1032 247.1 48.479V55.6583C247.073 56.0553 247.117 56.4539 247.232 56.8351C247.278 56.9284 247.351 57.0053 247.442 57.0555C247.533 57.1058 247.637 57.1269 247.741 57.116C247.857 57.1295 247.975 57.1066 248.077 57.0504C248.18 56.9941 248.263 56.9074 248.314 56.8021C248.444 56.2995 248.493 55.7794 248.458 55.2614L248.457 48.478Z"
                    fill="black" />
                <path
                    d="M84.9995 14.6669C84.1244 14.2172 83.1589 13.9711 82.1752 13.947H79.9297V16.4034C81.1654 16.4034 81.7873 16.6134 81.7873 17.0233V25.2904H78.54V28.2207H86.4962V16.2845C86.4962 15.6893 85.9973 15.1501 84.9995 14.6669ZM129.149 25.2894H127.135V13.947H122.271V25.2894H120.26V13.947H115.55V25.3444H103.483V25.2904H101.473V13.7931H94.5373C93.5395 13.7933 92.5592 14.0549 91.694 14.5519C90.7949 15.0558 90.3456 15.6436 90.3463 16.3155V28.2207H96.7628V28.6206C96.7628 29.4991 95.1139 29.978 91.816 30.0573V32.3038H95.9C97.3345 32.3681 98.7493 31.9507 99.9191 31.118C100.393 30.7976 100.781 30.367 101.052 29.8632C101.322 29.3594 101.466 28.7975 101.472 28.2257H133.857V13.947H129.15L129.149 25.2894ZM96.7628 25.2894H95.0632V17.3972C95.0632 17.2683 95.2152 17.1133 95.5161 16.9333C95.7357 16.7812 95.9909 16.6882 96.2569 16.6634H96.7658L96.7628 25.2894ZM123.362 12.5924C124.361 12.5924 124.937 12.2634 125.091 11.6066C125.273 11.9041 125.527 12.1506 125.83 12.3231C126.133 12.4955 126.474 12.5881 126.823 12.5924C127.262 12.5979 127.693 12.4684 128.057 12.2214C128.215 12.1334 128.348 12.0062 128.444 11.852C128.539 11.6978 128.593 11.5218 128.601 11.3406C128.601 10.6615 127.874 10.2439 126.418 10.0879C126.614 9.88837 126.732 9.62589 126.753 9.3471C126.753 8.61394 126.199 8.24735 125.091 8.24735C123.979 8.24735 123.432 8.63827 123.432 9.42009C123.437 9.54853 123.471 9.67423 123.529 9.78874C123.588 9.90326 123.67 10.0039 123.771 10.0839C122.304 10.1639 121.571 10.5678 121.571 11.2957C121.58 11.4789 121.635 11.6571 121.73 11.8141C121.824 11.9712 121.957 12.1022 122.115 12.1954C122.478 12.4568 122.915 12.5945 123.363 12.5884L123.362 12.5924ZM125.499 10.5478C125.355 10.6818 125.221 10.8266 125.099 10.9807C125.099 10.8808 124.968 10.7308 124.699 10.5478H125.499ZM162.455 25.2894H160.237L159.727 24.7895C159.727 24.7135 159.796 24.1217 159.927 23.0179C160.052 22.045 160.118 21.0655 160.127 20.0846C160.127 15.9962 158.674 13.952 155.767 13.952H148.537V25.2944H145.794V13.7371H141.154V28.2337C141.154 29.2175 140.153 29.684 138.15 29.6334H137.53V31.9858H141.237C141.975 32.0447 142.715 31.9114 143.385 31.5987C144.055 31.2861 144.633 30.8049 145.062 30.2022C145.366 29.5531 145.67 28.8929 145.976 28.2217H167.158V6.36678H162.447L162.455 25.2894ZM155.177 25.2894C153.896 25.2894 153.256 25.0181 153.256 24.4756V16.7774H153.792C154.234 16.7918 154.664 16.9251 155.036 17.1633V24.7085C155.201 24.8712 155.345 25.0527 155.467 25.2494L155.177 25.2894ZM170.989 28.2207H175.698V6.36678H170.989V28.2207ZM196.265 25.2934H193.254V13.947C192.092 13.9497 190.962 14.3316 190.036 15.0348C189.62 15.2664 189.267 15.5952 189.005 15.9932C188.744 16.3912 188.583 16.8465 188.537 17.3203V28.2177H200.978V13.947H196.26L196.265 25.2934ZM195.394 30.1023C194.223 30.1023 193.641 30.4902 193.641 31.271C193.641 32.1298 194.223 32.5597 195.394 32.5597C195.854 32.5627 196.303 32.4268 196.685 32.1698C196.847 32.0874 196.986 31.9653 197.088 31.8148C197.191 31.6642 197.253 31.4903 197.27 31.309C197.256 31.1335 197.198 30.9643 197.1 30.8176C197.003 30.6709 196.87 30.5513 196.714 30.4702C196.322 30.2175 195.864 30.088 195.399 30.0983L195.394 30.1023ZM227.442 29.7883C227.096 29.7429 226.744 29.8075 226.437 29.9729C226.129 30.1383 225.881 30.3962 225.728 30.7102H225.618C225.448 30.4087 225.195 30.1619 224.89 29.9987C224.584 29.8355 224.239 29.7625 223.893 29.7883C223.454 29.7822 223.024 29.9141 222.664 30.1653C222.499 30.2407 222.36 30.3623 222.264 30.5153C222.168 30.6683 222.118 30.8461 222.121 31.0269C222.123 31.2077 222.179 31.3838 222.28 31.5336C222.381 31.6835 222.524 31.8007 222.691 31.8709C223.045 32.1114 223.462 32.2415 223.89 32.2448C224.243 32.2302 224.589 32.1415 224.905 31.9844C225.221 31.8273 225.5 31.6053 225.725 31.333C225.888 31.6381 226.138 31.8878 226.443 32.0502C226.749 32.2126 227.095 32.2803 227.439 32.2448C227.881 32.2516 228.314 32.121 228.678 31.8709C228.838 31.7949 228.974 31.6756 229.07 31.5265C229.166 31.3774 229.219 31.2044 229.222 31.0271C229.225 30.8497 229.178 30.675 229.087 30.5228C228.996 30.3705 228.865 30.2467 228.707 30.1653C228.34 29.9051 227.898 29.7714 227.447 29.7843L227.442 29.7883ZM235.924 14.8378V6.37081H231.215V25.2934H228.222V13.947H223.505V25.2894H221.577V25.3434H211.399V25.2894H209.55V6.26082H204.832V28.2207H242.882V13.947H238.965C237.876 13.8347 236.787 14.153 235.929 14.8338L235.924 14.8378ZM238.165 25.2934H235.924V18.6809C235.949 18.4648 236.026 18.258 236.15 18.0792C236.273 17.9003 236.44 17.755 236.633 17.6562C237.087 17.3404 237.615 17.1469 238.165 17.0943V25.2934ZM251.67 3.52646C251.052 3.31851 250.74 3.13554 250.74 2.98158C250.74 2.619 251.232 2.29441 252.217 2.00781C250.917 1.46293 250.237 1.18799 250.199 1.18799C249.616 1.21919 249.056 1.42352 248.59 1.77486C248.02 2.16277 247.729 2.5287 247.729 2.86262C247.729 3.22753 248.029 3.54646 248.613 3.8194C249.196 4.09233 249.503 4.29226 249.503 4.41923C249.503 4.62718 249.303 4.80317 248.904 4.94414C248.504 5.0851 248.11 5.21208 247.731 5.31505H251.47C251.737 5.26124 251.983 5.13455 252.183 4.94908C252.382 4.76361 252.526 4.52657 252.599 4.26427C252.6 3.98234 252.29 3.73642 251.67 3.52646ZM247.113 28.2207H251.822V6.36678H247.113V28.2207Z"
                    fill="black" />
            </g>
        </g>
    </g>
    <defs>
        <clipPath id="clip0_4_2327">
            <rect width="70.02" height="61" fill="white" transform="translate(0.5 0.5)" />
        </clipPath>
        <clipPath id="clip1_4_2327">
            <rect width="70.02" height="70.13" fill="white" transform="translate(0.5 0.5)" />
        </clipPath>
        <clipPath id="clip2_4_2327">
            <rect width="70.019" height="70.13" fill="white" transform="translate(0.500977 0.5)" />
        </clipPath>
        <clipPath id="clip3_4_2327">
            <rect width="174.42" height="60.31" fill="white" transform="translate(78.5195 1.19)" />
        </clipPath>
        <clipPath id="clip4_4_2327">
            <rect width="174.42" height="60.31" fill="white" transform="translate(78.5195 1.19)" />
        </clipPath>
        <clipPath id="clip5_4_2327">
            <rect width="174.379" height="60.31" fill="white" transform="translate(78.54 1.19)" />
        </clipPath>
    </defs>
</svg>