<svg xmlns="http://www.w3.org/2000/svg" viewBox="0 0 160.84055 109.6917" version="1.1" fill="#339994">
	<path d="m 55.710938,0 c -1.279175,0.01379395 -2.595704,0.26367188 -3.970704,0.82617188 -4.7,2.10000002 -7.699609,6.10000002 -10.599609,10.00000012 -1.8,2.4 -3.599609,4.600781 -5.599609,6.800781 -1.3,1.5 -2.29961,3.09961 -2.59961,5.099609 -0.4,2.7 0.5,4.7 2,6.5 -2.4,1.300001 -4.901562,2.500001 -7.601562,2.5 -2.5,-0.1 -4.69961,-1.3 -7.09961,-1.5 -4,-0.199999 -7.00039,2.600391 -9.40039,5.400391 -3.0999998,3.6 -6.1996096,7.4 -8.5996096,11.5 -1.80000006,3.2 -3.3996094,7.400781 -1.0996094,10.800781 1.1,1.6 2.6996094,2.8 3.5996094,4.5 1.1,2.1 1.4,4.4 2.5,6.5 1.7,3.3 4.9999996,4.899219 8.4999996,5.699219 2.7,0.6 6.19961,1.500781 9.09961,0.800781 -1.6,2.8 -2.299219,6.298829 -2.699219,9.298828 -0.4,3.400001 -0.09922,5.800391 2.800781,7.900391 3.9,2.7 6.498828,5.000781 7.798828,9.800777 0.9,3.1 2.501172,4.89961 5.701172,5.59961 4,0.9 8.298438,1.00039 12.398438,1.40039 3.6,0.4 7.101172,0.39961 10.201172,-1.90039 2.9,-2.2 4.598828,-5.49961 6.298828,-8.599606 0.2,-0.4 0.501172,-0.900781 0.701172,-1.300781 0,2.1 0.299609,4.099217 2.099609,5.199217 3.8,2.3 9.4,7.8e-4 13.5,0.30078 4.9,0.4 9.7,1.70039 14.5,-0.0996 2.699995,-1 4.899605,-2.9 6.099605,-5.499996 2.2,6.999996 12.90118,9.899606 18.70118,12.099606 0.7,0.3 1.39921,-0.49922 1.19921,-1.19922 -0.59999,-2 -1.20039,-4.00039 -1.90039,-5.90039 6.7,0 13.6004,2.30039 18.90039,6.40039 0.5,0.4 1.2004,0.29961 1.4004,-0.40039 1.2,-4.2 1.49921,-8.901168 0.69921,-13.201168 -0.4,-2.1 -1.20039,-4.198438 -2.40039,-5.898438 -1.6,-2.3 -5.99921,-6.201562 -1.19922,-8.101562 0.6,-0.2 0.8004,-0.898438 0.4004,-1.398438 -1.5,-1.7 -3.20118,-3.000781 -5.20118,-3.800781 0.3,-0.1 0.60039,-0.300391 0.90039,-0.400391 2.4,-1.2 5.8,-2.999218 7.5,-5.199218 0.2,-0.3 0.20039,-0.7 0.40039,-1 0.7,-1.5 1.2,-2.1 2.5,-3 1.2,-0.8 2.30079,-1.69961 3.30079,-2.59961 4.8,-4.1 9.39843,-9.700781 11.39843,-15.800781 0,-0.3 -0.39882,-0.800781 -0.79882,-0.800781 -5.1,0.6 -10.20079,0.400781 -15.30079,-0.199219 -3.7,-0.4 -7.4,-0.999219 -11,-0.199219 0.1,-0.7 -0.19882,-1.501562 -0.79882,-2.101562 -2,-1.9 -6.20039,-1.598438 -8.90039,-1.398438 -1.3,-4 -9.80039,0.198438 -12.4004,1.898438 -0.59999,-2.1 -0.49921,-3.698438 0.80079,-5.898438 0.8,-1.3 1.2,-2.601171 1,-4.201172 -0.4,-3.1 -2.60157,-5.998828 -4.60157,-8.298828 -2.6,-3.1 -5.5,-5.901562 -8.5,-8.601562 -2.899993,-2.5 -6.199215,-4.799219 -10.199215,-4.699219 -1.8,0 -3.300781,0.500391 -4.800781,1.400391 -2.6,1.5 -4.69961,2.2 -7.59961,2.5 0.1,-2.3 -0.4,-4.59961 -1.5,-6.59961 -2.5,-4.1999996 -8.30039,-6.2003902 -12.40039,-8.4003902 C 61.158594,1.0835938 58.525122,-0.03034668 55.710938,0 Z m 0.535156,1.7871094 c 1.325,0.021875 2.69375,0.3144531 4.09375,0.9394531 2.1,0.9 4.201172,2.2007813 6.201172,3.3007813 2.3,1.2999999 5.1,2.4003906 7,4.4003902 3.6,3.7 2.699609,9.299219 1.099609,13.699219 -0.9,2.5 -2.000391,4.900391 -2.900391,7.400391 -0.8,2.3 -1.00039,4.6 -1.40039,7 -0.4,3 -2.198438,5.3 -3.398438,8 -0.6,1.5 -1.001172,3.099218 -1.201172,4.699218 -0.1,-0.399999 -0.30039,-0.799609 -0.40039,-1.099609 -0.3,-1 -0.69961,-2.099609 -1.09961,-3.099609 0.2,0.1 0.401172,0.1 0.701172,0 0.3,-0.1 0.5,-0.401172 0.5,-0.701172 0,-0.2 -0.101562,-0.298438 -0.101562,-0.398438 0,-0.4 -0.398438,-0.701171 -0.898438,-0.701172 -0.1,0 -0.101172,-3.9e-4 -0.201172,0.09961 h -0.09961 c -0.2,-0.1 -0.3,0.0016 -0.5,0.101562 0,-0.1 3.91e-4,-0.101171 -0.09961,-0.201172 -0.3,-0.799999 -0.501172,-1.60039 -0.701172,-2.40039 0.3,0.1 0.701562,0.201172 1.101562,0.201172 h 0.09961 0.199218 c 0.5,-0.1 0.700782,-0.79961 0.300782,-1.09961 -0.1,-0.1 -0.300391,-0.200781 -0.400391,-0.300781 -0.4,-0.4 -1.099219,-0.400781 -1.699219,-0.300781 -0.3,-1 -0.501172,-2 -0.701172,-3 0.1,0 0.200782,0.101562 0.300782,0.101562 0.3,0.1 0.598828,-7.81e-4 0.798828,-0.300781 0.2,-0.2 0.201562,-0.60039 0.101562,-0.900391 l -0.300781,-0.298828 c 0,-0.1 3.91e-4,-0.201172 -0.09961,-0.201172 -0.3,-0.2 -0.6,-0.30039 -1,-0.40039 h -0.09961 -0.201172 c -0.1,-0.8 -0.30039,-1.598438 -0.40039,-2.398438 0.3,0 0.601172,-0.301562 0.701172,-0.601562 0,0 0.09961,3.91e-4 0.09961,-0.09961 0.2,-0.1 0.1,-0.399999 0,-0.5 -0.2,-0.2 -0.500781,-0.399609 -0.800781,-0.599609 -0.1,0 -0.198828,-0.09961 -0.298828,-0.09961 l -0.300782,-3.300782 c 0,-0.199999 -0.20039,-0.398828 -0.40039,-0.298828 -1.4,0.4 -1.999219,1.899219 -2.199219,3.699219 -0.1,0.1 -0.1,0.200781 0,0.300781 v 0.898438 c 0,0 3.91e-4,-0.09961 -0.09961,-0.09961 -0.2,-0.2 -0.401172,-0.299218 -0.701172,-0.199218 -0.2,0 -0.4,0.09922 -0.5,0.199218 -0.3,0 -0.598828,0.200001 -0.798828,0.5 -0.1,0.100001 -3.91e-4,0.400391 0.09961,0.400391 0.1,0.1 0.200391,0.200781 0.400391,0.300781 0.2,0.1 0.399609,0.09961 0.599609,0.09961 0.5,0 0.8,-0.29961 1,-0.59961 v 0.298828 c -0.2,0.100001 -0.300391,0.200782 -0.400391,0.300782 -0.1,0.2 0.0012,0.40039 0.201172,0.40039 0.1,0 0.198828,0.09961 0.298828,0.09961 v 0.298828 c -0.2,0.1 -0.4,0.200781 -0.5,0.300781 l -0.09961,0.09961 -0.09961,0.09961 -0.09961,0.101562 c -0.1,0.3 0.09922,0.49961 0.199219,0.59961 0.1,0.2 0.299609,0.30039 0.599609,0.40039 h 0.09961 c 0,0 0.101562,-3.9e-4 0.101562,0.09961 0.2,1.2 0.39961,2.3 0.59961,3 v 0.09961 c -0.2,0 -0.300391,0.09922 -0.400391,0.199219 -0.2,0 -0.399609,0.101172 -0.599609,0.201172 -0.1,0.1 -0.19961,0.30039 -0.09961,0.40039 0.1,0.4 0.598438,0.599219 0.898438,0.699219 0.1,0 0.3,0.09961 0.5,0.09961 h 0.101562 c 0.2,0.700001 0.39961,1.501172 0.59961,2.201172 h -0.09961 c -0.1,0 -0.200781,-3.9e-4 -0.300781,0.09961 -0.3,0.1 -0.299609,0.499609 -0.09961,0.599609 -0.1,0.6 0.40039,0.900391 0.90039,0.900391 0.1,0.5 0.198828,0.90039 0.298828,1.40039 -0.2,-0.2 -0.60039,-0.3 -0.90039,0 0,0 -0.09961,-3.9e-4 -0.09961,0.09961 0.2,0.2 7.82e-4,0.199609 -0.199218,0.09961 l -0.59961,-1.5 c -0.2,-0.4 -0.3,-0.699609 -0.5,-1.099609 l 0.298828,-0.300782 c 0.3,-0.5 -0.298828,-1.199999 -0.798828,-1 -0.5,-1 -1,-1.898828 -1.5,-2.798828 0.4,-0.2 0.79961,-0.50039 1.09961,-0.90039 0.2,-0.3 -0.1,-0.69961 -0.5,-0.59961 -0.4,0.1 -0.801172,0.29961 -1.201172,0.59961 -1.1,-1.6 -2.398438,-3.200391 -3.898438,-4.400391 -0.2,-0.2 -0.50039,7.81e-4 -0.40039,0.300781 1.7,2.8 3.699218,5.5 5.199218,8.5 l -0.298828,0.298828 c -0.3,0.200001 -0.3,0.600782 0,0.800782 0.3,0.2 0.6,0.199218 1,0.199218 0.4,0.8 0.79961,1.69961 1.09961,2.59961 -0.1,0.2 -0.1,0.501172 0,0.701172 0,0.3 0.20039,0.4 0.40039,0.5 0.6,1.7 1.099219,3.499609 1.199219,5.099609 -0.6,-0.7 -1.399219,-1.300391 -2.199219,-1.900391 -2,-1.399999 -4.10039,-2.598828 -5.90039,-4.298828 -1.8,-1.6 -2.99961,-3.70039 -4.09961,-5.90039 -1.8,-3.6 -3.501562,-7.200391 -6.601562,-9.900391 -1.6,-1.4 -3.598438,-2.500781 -4.898438,-4.300781 -2.2,-2.9 -1.601172,-6.399609 0.798828,-9.09961 3.2,-3.699999 5.89961,-7.70039 9.09961,-11.4003901 2.85,-3.225 6.43125,-5.6046875 10.40625,-5.5390625 z m 0.03125,8.0175781 c -0.16875,0.028125 -0.335938,0.1968755 -0.335938,0.4218745 0.1,1.1 0.99961,1.900391 1.59961,2.900391 0.6,1.1 1.098828,2.400391 1.798828,3.400391 0.1,0.1 0.300781,0.10039 0.300781,-0.09961 0.1,-1.3 -0.5,-2.600781 -1,-3.800781 -0.5,-1 -1.099219,-2.400781 -2.199219,-2.8007811 -0.05,-0.025 -0.107812,-0.030859 -0.164062,-0.021484 z m 4.9375,2.4589845 c -0.075,0.0125 -0.124219,0.06406 -0.07422,0.164062 1.4,4.2 2.699219,8.1 3.199219,12.5 0.4,4.2 0.2,8.298438 0.5,12.398438 0,0.2 0.201172,0.1 0.201172,0 0.9,-7.7 0.90039,-18.3 -3.59961,-25 -0.05,-0.05 -0.151562,-0.075 -0.226562,-0.0625 z m -20.773438,2.164062 c 0,0 -0.101562,-3.9e-4 -0.101562,0.09961 0,1.5 1.20039,2.998828 1.90039,4.298828 0.9,1.5 1.800391,3.000391 2.900391,4.40039 0.1,0.2 0.500391,7.82e-4 0.400391,-0.199218 -0.6,-1.7 -1.500391,-3.200781 -2.400391,-4.800782 -0.8,-1.3 -1.399219,-2.998828 -2.699219,-3.798828 z m 49.511719,0.923828 c 4.372266,-0.08887 8.112893,3.4875 11.087895,6.375 3.4,3.300001 7.10039,6.700391 9.40039,10.900391 0.6,1.1 1.19921,2.399609 1.19921,3.599609 0,0.8 -0.2996,1.4 -0.5996,2 -2.6,4.200001 -9.40118,5.500782 -13.201176,8.300782 -0.2,0.2 -0.09883,0.6 0.201172,0.5 3.699994,-1 7.900004,-3.001172 11.000004,-5.201172 0.1,-0.1 0.19882,-0.199219 0.29882,-0.199219 -0.2,0.8 -0.2,1.6 0,2.5 0.3,1.9 1.20157,3.600391 1.60157,5.400391 0.6,2.9 -0.80079,5.5 -3.30079,7 -4.59999,2.8 -10.500386,0.9 -15.400386,0 -8.6,-1.6 -17.498828,0.09883 -25.798828,2.798828 0.2,-0.4 0.298438,-0.898438 0.398438,-1.398438 1.4,-1 2.401172,-2.501171 3.701172,-3.701172 1.6,-1.399999 3.398828,-2.599218 5.298828,-3.699218 3.8,-2.2 7.801172,-4.09961 11.701172,-6.09961 0.3,-0.1 -0.0012,-0.50039 -0.201172,-0.40039 -4.5,1.9 -9.098438,3.60039 -13.398438,5.90039 -2.1,1.1 -5.200781,2.89961 -6.800781,5.09961 3.1,-9.3 9.000781,-16.5 15.800781,-23.5 0.2,-0.2 -0.100781,-0.400781 -0.300781,-0.300782 -6.8,6.6 -13.4,13.200001 -16,22.5 l -0.300781,-1.199218 c 0.5,-2.6 1.401172,-5.001172 2.701172,-7.201172 1.3,-2.3 2.60039,-3.999219 2.90039,-6.699219 0.4,-2.7 0.798828,-5.199219 1.798828,-7.699219 1,-2.6 2.29961,-5.301562 3.09961,-8.101562 0.4,-1.5 0.700781,-2.999609 0.800781,-4.59961 4.2,1.4 6.600391,-1.499609 10.400391,-2.599609 0.65,-0.175 1.2875,-0.262695 1.912109,-0.275391 z m -0.550781,9.052735 c -0.05469,-0.0078 -0.11211,-0.0016 -0.16211,0.02344 -0.5,0.5 -1.099218,0.898828 -1.699218,1.298828 -0.5,0.300001 -1.19961,0.400391 -1.59961,0.900391 -0.1,0 -0.10039,0.300781 0.09961,0.300781 0.7,0.2 1.4,-0.301562 2,-0.601562 0.7,-0.4 1.199609,-0.899609 1.599609,-1.59961 0.075,-0.149999 -0.07422,-0.298828 -0.238281,-0.322265 z m -29.642578,5.619141 c 0.0875,-0.02188 0.18125,-0.02109 0.28125,0.0039 0.1,0 0.09922,0.499219 0.199218,1.199218 -0.4,-0.199999 -0.799609,-0.399999 -1.099609,-0.5 0.15,-0.375 0.356641,-0.637499 0.619141,-0.703124 z m -23.919922,0.0039 c 0.9,1 2.001562,1.898828 3.101562,2.798828 4.7,3.8 6,9.501562 9.5,14.101562 2.6,3.5 8.29961,5.599219 11.09961,9.199219 0,0.2 -0.101172,0.399609 -0.201172,0.599609 -0.07326,0.219795 -0.01107,0.398907 0.115234,0.523438 -7.766231,-7.529698 -19.854225,-11.129466 -30.115234,-8.923828 -0.5,0.1 -0.398438,0.90039 0.101562,0.90039 6.2,0 12.398828,0.800391 18.298828,2.900391 4.7,1.7 8.600782,4.39961 12.300782,7.599609 -3.6,-1.7 -8,-1.5 -11.5,0.5 -1.7,1 -3.101172,2.4 -4.701172,3.5 -2.5,1.700001 -5.299219,1.500782 -8.199219,1.800782 -2.9,0.2 -5.600391,1.20039 -6.900391,3.90039 -1.4,2.9 -2.199218,4.798828 -5.699218,4.798828 -2.1,0.1 -4.4,-0.398828 -6.5,-0.798828 -2.3,-0.5 -4.501172,-1.401562 -6.201172,-3.101562 -1.6999998,-1.8 -2.2996096,-4.3 -3.0996096,-6.5 -1.4,-4.2 -5.7996094,-6.799609 -4.5996094,-11.59961 1.1,-4.7 5.0996099,-8.998828 8.099609,-12.798828 1.4,-1.7 2.700391,-3.6 4.400391,-5 2.7,-2.4 5.199219,-2.500781 8.699219,-1.800781 0.2,0 0.401562,0.09961 0.601562,0.09961 1.2,0.600001 2.299219,1.39961 3.199219,2.09961 0.6,0.5 5.1,4.2 4.5,5 -0.1,0.1 -7.81e-4,0.400781 0.199219,0.300781 1.8,-1 -1.89961,-4.499219 -2.59961,-5.199219 -0.7,-0.6 -1.398828,-1.4 -2.298828,-2 2.9,-0.2 5.598438,-1.40039 8.398438,-2.90039 z m 20.40039,0.40039 c -0.3,0 -0.399218,0.4 -0.199218,0.5 0.2,0.3 0.6,0.59961 1,0.59961 0.2,0.2 0.60039,-0.100391 0.40039,-0.400391 -0.2,-0.5 -0.701172,-0.699219 -1.201172,-0.699219 z m 2.701172,0.898438 c 0.5,0.1 0.899219,0.301562 1.199219,0.601562 v 0.09961 c -0.3,0 -0.500781,-3.91e-4 -0.800781,0.09961 h -0.5 -0.09961 c 0.1,-0.3 0.201172,-0.500781 0.201172,-0.800781 z m -0.201172,1.40039 h 0.201172 0.199219 c 0.2,0.200001 0.499219,0.39961 0.699219,0.59961 0.1,0 0.101172,0.101562 0.201172,0.101562 0.1,0.1 0.09922,0.199219 0.199218,0.199219 v 0.09961 c -0.2,0.100001 -1.399609,0.300782 -1.599609,0.300782 v -0.5 c 0.1,0 0.09961,-0.300782 0.09961,-0.800782 z m 1.701172,1.59961 c 0,0.3 0.09961,0.600391 0.09961,0.90039 -0.3,0 -0.600391,0.200782 -0.900391,0.300782 -0.3,0.1 -0.500781,-0.09961 -0.800781,-0.09961 v -0.40039 c 0.3,-0.2 0.701172,-0.3 1.201172,-0.5 0.1,0 0.30039,-0.101172 0.40039,-0.201172 z m 0.199219,1.5 c 0,0.3 0.09961,0.600781 0.09961,0.800781 -0.2,0.1 -0.199609,0.399609 -0.09961,0.599609 v 0.09961 c -0.1,0 -0.199219,0.101562 -0.199219,0.101562 -0.2,0.1 -0.3,0.09922 -0.5,0.199219 l -0.90039,0.300781 c 0,-0.2 -0.09961,-0.401562 -0.09961,-0.601562 0.4,-0.1 0.699219,-0.398828 0.699219,-0.798828 v -0.300782 c 0.1,0 0.200391,-0.09961 0.400391,-0.09961 0,0 0.299609,-0.200781 0.599609,-0.300781 z m 0.300781,2 c 0.1,0.5 0.198828,0.900781 0.298828,1.300781 -0.4,0 -0.898828,0.200781 -1.298828,0.300781 -0.2,0 -0.401562,0.09961 -0.601562,0.09961 -0.1,-0.3 -0.09922,-0.7 -0.199219,-1 0.5,-0.2 0.900391,-0.4 1.400391,-0.5 0.1,0 0.30039,-0.101172 0.40039,-0.201172 z m 30.898438,0.5 c -1.6,0.2 -3.4,0.501562 -5,1.101562 -0.2,0.1 0.0012,0.5 0.201172,0.5 1.6,-0.1 3.40039,-0.601171 4.90039,-1.201172 0.2,-0.1 0.198438,-0.40039 -0.101562,-0.40039 z m -30.398438,1.300781 0.298828,1.199219 c -0.3,0.2 -0.7,0.4 -1,0.5 v -0.298828 c -0.1,-0.5 -0.398828,-0.700782 -0.798828,-0.800782 0.1,0 0.198828,-0.09961 0.298828,-0.09961 0.4,-0.1 0.901172,-0.2 1.201172,-0.5 z m 0.298828,1.599609 c 0,0.100001 -3.9e-4,0.200782 0.09961,0.300782 0.1,0.4 0.200781,0.699609 0.300781,1.099609 -0.3,0.2 -0.6,0.4 -1,0.5 -0.3,0.1 -0.600781,0.09961 -0.800781,0.09961 -0.1,-0.299999 -0.09922,-0.498828 -0.199219,-0.798828 h 0.09961 c 0.6,-0.2 1.1,-0.701172 1.5,-1.201172 z m 0.5,1.900391 c 0.1,0.4 0.200391,0.799609 0.400391,1.099609 -0.3,0.100001 -0.500781,0.300391 -0.800781,0.400391 0,-0.1 -0.09961,-0.09922 -0.09961,-0.199219 -0.1,-0.1 -0.20039,-0.200781 -0.40039,-0.300781 0,-0.1 -0.09922,-0.09961 -0.199219,-0.09961 -0.2,0 -0.399609,3.9e-4 -0.599609,-0.09961 0.6,0 1.299218,-0.400781 1.699218,-0.800781 z m 58.720706,0.115235 c 0.98203,0.04863 1.71718,0.333984 1.67968,1.083984 0,0.2 0.1004,0.501562 0.4004,0.601562 -1.7,0.7 -3.39961,1.598829 -4.59961,2.298828 -1.9,1.100001 -3.9,2.501172 -5.5,4.201172 0.1,-1.6 -0.4,-3.3 -1,-5 0,-0.1 -0.10157,-0.200781 -0.10157,-0.300781 1.5,-0.9 3.00157,-1.699219 4.60157,-2.199219 0.5625,-0.1875 2.88281,-0.766601 4.51953,-0.685546 z m -58.121096,1.384765 c 0.1,0.4 0.30039,0.799219 0.40039,1.199219 -0.6,0.4 -1.30039,0.801562 -1.90039,0.601562 -0.1,-0.2 -0.09922,-0.501171 -0.199219,-0.701172 0.1,0 0.200781,3.91e-4 0.300781,-0.09961 0.2,0 0.298438,-0.200781 0.398438,-0.300781 0.4,-0.1 0.7,-0.399219 1,-0.699219 z m 63.900386,0.199219 h 0.20118 c 0.5,0 1.09961,0.101562 1.59961,0.101562 1.9,0 2.8996,0.8 3.0996,2.5 -4.79999,1.2 -9.90039,6.399219 -10.90039,10.699219 0,0.1 -3.9e-4,0.200781 0.0996,0.300781 0,0.1 0.10157,0.198829 0.10157,0.298828 h -2.40039 -1.20118 c -0.2,-0.2 -0.49921,-0.199999 -0.69922,0 -0.7,0 -1.3996,0.09961 -2.0996,0.09961 h -0.4004 c -1.79999,0.1 -3.60078,0.301562 -5.30078,0.601562 0.2,-0.6 0.50118,-1.3 0.70118,-2 0.9,-0.7 1.59882,-1.601171 2.29882,-2.701172 l 0.30078,-0.599609 c 1.70001,-1.9 3.29961,-3.699219 5.59961,-5.199219 2.2,-1.4 6,-3.801562 9,-4.101562 z m -63.999996,2 c 0,0.1 0.101172,0.201172 0.201172,0.201172 0.1,0.1 0.3,0.199609 0.5,0.09961 0.1,0 0.09922,3.91e-4 0.199219,-0.09961 0,0 0.09961,-3.91e-4 0.09961,0.09961 l 0.300782,0.900391 c -0.3,0.2 -0.7,0.30039 -1,0.40039 -0.1,0 -0.600391,0.298829 -0.900391,0.298828 -0.1,-0.5 -0.300391,-1.099609 -0.400391,-1.599609 0.2,0 0.6,-0.100781 1,-0.300781 z m 75.099606,1.201172 c 1.4,0 2.70157,0.09922 4.10157,0.199218 -1.1,0.5 -2.10118,2.000782 -2.70118,2.800782 -1.4,1.9 -2.29921,4.10039 -2.69921,6.40039 0,0.1 -4e-4,0.198829 0.0996,0.298828 -1.09999,0.200001 -2.00039,0.400001 -2.90039,0.5 -2.3,0.3 -4.7,0.400001 -7,0.5 1.6,-1.799999 2.89961,-3.998828 4.59961,-5.798828 1.9,-2 3.9,-3.80039 6.5,-4.90039 z m -77.099606,0.09961 c 0.2,0.8 0.4,1.500781 0.5,2.300781 0,0.2 -3.9e-4,0.298438 0.09961,0.398438 0.4,2.2 0.7,4.500781 0.5,6.800781 -0.1,-0.3 -0.198828,-0.500781 -0.298828,-0.800781 0.2,-0.3 0.299609,-0.799219 0.09961,-1.199219 l 0.09961,-0.09961 c 0,-0.1 3.91e-4,-0.201172 -0.09961,-0.201172 -0.1,0 -0.199219,0.0016 -0.199219,0.101562 -0.1,-0.1 -0.20039,-0.101171 -0.40039,-0.201172 0.1,-2 -0.401172,-4.198828 -1.201172,-6.298828 0.2,-0.2 0.500781,-0.401562 0.800781,-0.601562 0.1,-0.1 0.09961,-0.09922 0.09961,-0.199219 z m 75.400386,0.09961 c -1.69999,0.700001 -3.2996,2.000782 -4.5996,3.300782 -2.1,2 -4.50079,4.498828 -5.30079,7.298828 -1.7,-0.1 -3.30039,-0.09961 -4.90039,-0.09961 0.1,0 0.30078,7.82e-4 0.30078,-0.199218 0.1,-0.3 0.20079,-0.600782 0.30079,-0.800782 1.7,-1.899999 3.19921,-3.999218 5.19921,-5.699218 1.5,-1.2 3.30001,-2.1 5,-3 h 0.19922 c 1.3,-0.5 2.50078,-0.700782 3.80078,-0.800782 z m 6.59961,0.09961 c 0.8,0.1 1.69961,0.200781 2.59961,0.300781 -2.4,1.5 -4.69882,5.199219 -4.79882,8.199219 -1,0.3 -2.09961,0.500781 -3.09961,0.800781 0.4,-1.8 0.99843,-3.499609 1.89843,-5.099609 0.7,-1.2 2.00039,-3.601172 3.40039,-4.201172 z m -78.599605,0.300781 c 0.2,0.5 0.300391,0.900391 0.400391,1.400391 -0.6,0.3 -1.401172,0.6 -2.201172,0.5 -0.1,-0.3 -0.09922,-0.7 -0.199219,-1 0.3,-0.1 0.600781,-0.200782 0.800781,-0.300782 z m 81.499995,0.09961 h 0.19922 c 1.2,0.100001 2.40157,0.101172 3.60157,0.201172 -0.8,0.9 -1.40078,1.999219 -1.80079,3.199219 -0.19999,0.7 -0.20039,1.3 -0.40039,2 -0.1,0.2 -0.19921,0.3 -0.19921,0.5 -0.1,0.1 -0.3004,0.09922 -0.4004,0.199219 -1.69999,0.7 -3.3996,1.300781 -5.0996,1.800781 0.5,-1.3 0.80039,-2.7 1.40039,-4 0.7,-1.4 1.79922,-2.500781 2.69921,-3.800781 z m 12.80079,0.09961 h 0.29882 c -2.4,4.1 -4.8,8.00039 -8,11.40039 -2.3,-0.2 -3.49921,-2.10039 -4.69921,-3.90039 4.6,-1.8 9.00039,-4.2 12.40039,-7.5 z m -1.10157,0.101562 c -3,1.8 -5.89961,3.59961 -9.09961,5.09961 0.1,-0.6 0.10118,-1.201172 0.20118,-1.701172 0.4,-1.2 0.99843,-2.299219 1.89843,-3.199219 l 0.10157,-0.09961 c 2.3,0 4.59843,3.9e-4 6.89843,-0.09961 z m -92.499996,1.5 c 0,0.3 0.101562,0.598438 0.101562,0.898438 -0.3,0.5 -0.90039,0.800781 -1.40039,0.800781 -0.3,0 -0.600782,3.91e-4 -0.800782,-0.09961 0,-0.3 -0.09961,-0.500782 -0.09961,-0.800782 0.8,0 1.499219,-0.398828 2.199219,-0.798828 z m -37.396485,0.556641 c -3.692114,-0.06856 -7.164843,1.480078 -10.902343,1.642578 -0.5,0 -0.69961,0.8 -0.09961,1 1.8,0.5 3.498828,-0.199219 5.298828,-0.699219 2.8,-0.8 5.500782,-0.901562 8.300782,-1.101562 0.2,0 0.3,-0.4 0,-0.5 -0.88125,-0.225 -1.74563,-0.325977 -2.597657,-0.341797 z m 37.697266,1.042969 c 0,0.2 0.09961,0.3 0.09961,0.5 0,0.2 -3.9e-4,0.4 0.09961,0.5 -0.4,0.1 -0.799219,0.30039 -1.199219,0.40039 -0.4,0.1 -0.900781,0.398829 -1.300781,0.298828 0,-0.299999 -0.09961,-0.60039 -0.09961,-0.90039 h 0.900391 c 0.7,-0.1 1.1,-0.398828 1.5,-0.798828 z m 0.300781,1.5 c 0,0.5 -3.9e-4,0.90039 0.09961,1.40039 -0.5,0.3 -1.101172,0.599219 -1.701172,0.699219 h -0.798828 v -1.099609 c 0.4,0 0.799218,-0.200391 1.199218,-0.400391 z m -27.84375,1.175781 c -5.181152,0.04761 -9.857422,2.480469 -14.357422,4.824219 -0.3,0.2 -0.09883,0.699609 0.201172,0.599609 5,-2 9.49961,-5.1 15.09961,-5 0.3,-0.1 0.299609,-0.400391 0.09961,-0.400391 -0.35,-0.01875 -0.697559,-0.02661 -1.042969,-0.02344 z m 28.042969,0.824219 v 1.40039 c -0.1,0 -0.200781,-3.9e-4 -0.300781,0.09961 -0.6,0.3 -1.198438,0.5 -1.898438,0.5 h -0.5 c 0,-0.4 0.09961,-0.79961 0.09961,-1.09961 0.3,0 0.7,-0.0016 1,-0.101562 0.6,-0.1 1.199609,-0.398828 1.599609,-0.798828 z m 79.499995,1.099609 c 1,2 2.79961,3.9 5.09961,4 -0.3,0.4 -0.69921,0.800781 -1.19921,1.300781 -1.4,1.3 -3.20079,2.3 -4.80079,3.5 -1.9,-0.4 -5.20039,-1.8 -5.40039,-2 -1.8,-1 -3.19843,-2.401562 -4.39843,-4.101562 0.3,0 0.59843,-0.09961 0.89843,-0.09961 3.2,-0.5 6.50078,-1.399609 9.80078,-2.599609 z m -85.667964,0.638672 c 0.222442,0.201541 0.620254,0.245747 0.867188,0.06055 0.1,0.2 0.30039,0.501172 0.40039,0.701172 -0.1,0 -0.198828,0.09922 -0.298828,0.199218 -0.310564,-0.33073 -0.642377,-0.644009 -0.96875,-0.960937 z m 5.96875,0.460937 c 0,1.100001 -0.701562,1.801172 -2.101562,2.201172 -0.3,-0.1 -0.598438,-0.30039 -0.898438,-0.40039 0.1,-0.4 0.199219,-0.69961 0.199219,-1.09961 0.9,0.1 2.100781,-0.301171 2.800781,-0.701172 z m 22.087891,0.339844 c 2.223437,0.01094 4.485547,0.210157 6.810547,0.660156 2,0.4 4.301565,0.8 6.601566,1 2.3,1.5 4.49882,3.200782 6.29882,5.300782 1.2,1.4 2.40079,2.999218 3.30079,4.699218 0.8,1.5 1.4996,3.200391 0.5996,4.900391 -0.59999,1 -1.6996,1.700391 -2.5996,2.400391 -2.5,1.9 -3.70079,4.00039 -4.30079,6.40039 -0.9,-4.2 -2.89922,-8.901171 -6.699214,-11.201172 -0.3,-0.2 -0.600391,0.2 -0.400391,0.5 2.6,3.3 4.599605,6.300391 5.599605,10.400391 0.3,1.2 0.7004,2.699219 0.90039,4.199219 -0.1,1.4 -0.0992,2.800781 -0.19921,4.300781 -0.5,4.5 -2.60157,8.2 -7.101566,9.499997 -4.2,1.3 -8.499219,0.10078 -12.699219,-0.19922 h -1.400391 c 1.4,-2.099996 1.89961,-5.499996 0.59961,-7.499996 -0.1,-0.2 -0.298828,-0.10039 -0.298828,0.09961 -0.1,1.4 0.20039,2.798828 -0.09961,4.298828 -0.2,1.1 -0.701562,2.101562 -1.101562,3.101558 -0.8,0 -1.7,0.0992 -2.5,0.19922 -1.9,0.2 -4.998438,0.99961 -6.898438,0.0996 -1.9,-1 -1.30039,-2.999216 -1.40039,-4.699216 0.2,-0.8 0.30039,-1.500782 0.40039,-2.300782 0.2,-1.799999 0.298438,-3.598828 -0.101562,-5.298828 0,-0.6 0.101562,-1.3 0.101562,-2 -0.1,-5.1 -0.900781,-10.301562 -2.300781,-15.101562 -0.7,-2.5 -1.4,-5.99961 -3,-8.59961 1,0.4 2.099609,0.700001 3.099609,1 1.9,0.700001 3.801172,1.200391 5.701172,1.900391 5.2,1.9 7.99961,5.800781 11.59961,9.800781 0.1,0.2 0.398828,-0.0012 0.298828,-0.201172 -2.3,-4.2 -5.498828,-8.299218 -9.798828,-10.699218 -2,-1.1 -4.200782,-1.901172 -6.300782,-2.701172 -0.7,-0.3 -1.498828,-0.598438 -2.298828,-0.898438 6.6,-1.725 12.917578,-3.39414 19.587891,-3.361328 z m 21.210933,0.06055 c -0.1,0.5 -0.19921,0.900781 -0.19921,1.300781 0.1,0.1 0.0996,0.09922 0.0996,0.199219 -0.29999,0 -0.60039,0.09961 -0.90039,0.09961 -0.2,-0.5 -0.89961,-0.398828 -1.09961,0.201172 -0.9,0.1 -1.90078,0.3 -2.80078,0.5 -0.1,0 -0.19922,0.09922 -0.19922,0.199219 -0.4,-0.3 -0.90078,-0.60039 -1.30078,-0.900391 2.3,0 4.60039,-0.499609 6.40039,-1.599609 z m -53.798824,1.261719 c 2.325,-0.0375 4.64961,0.587891 6.59961,1.83789 -0.2,0.100001 -0.300391,0.200391 -0.400391,0.400391 -0.2,0.4 0.300781,2.1 0.300781,2 0.1,1.1 -0.0016,2.300391 -0.101562,3.400391 -0.4,5.6 -2.59961,10.799609 -5.59961,15.599609 -0.2,0.3 0.3,0.700391 0.5,0.400391 2.7,-3.2 4.500391,-6.9 5.400391,-11 0.4,-1.9 0.700781,-3.900391 0.800781,-5.900391 0,-1 -0.201562,-2.199219 -0.101562,-3.199219 0.1,-0.5 0,-0.70039 0,-0.90039 l 1.101562,1.099609 h 0.09961 c 3.6,8 5.999218,17.3 5.199218,26 -0.6,4.6 -3.00039,9.000391 -5.40039,12.900387 -2.9,4.6 -6.498828,5.99961 -11.798828,5.59961 -4.3,-0.4 -9.49961,-0.19922 -13.59961,-1.69922 -2.7,-1 -2.901172,-3.30117 -3.701172,-5.70117 -0.3,-0.899998 -0.699218,-1.799607 -1.199218,-2.599607 -0.2,-0.6 -0.300391,-1.20039 -0.400391,-1.900391 -0.7,-3.799999 0.6,-6.299609 2,-9.599609 0.1,-0.3 -0.3,-0.70039 -0.5,-0.400391 -2.4,3 -2.999609,6.29961 -2.599609,9.59961 -0.9,-1.1 -2.001172,-2.098438 -3.201172,-2.898438 -1.6,-1.1 -3.798828,-1.901562 -4.298828,-4.101562 -1.1,-4.5 1.799609,-9.698438 3.099609,-13.898438 0.9,-0.6 1.5,-1.5 2,-2.5 0.5,-1.1 0.799219,-2.50039 1.699219,-3.40039 1.3,-1.4 3.50039,-1.700391 5.40039,-1.900391 2.1,-0.2 4.300782,-0.10039 6.300782,-0.900391 2.3,-0.9 3.898828,-2.799218 5.798828,-4.199218 1.95,-1.4 4.276562,-2.101172 6.601562,-2.138672 z m 78.599614,0.238281 c 1.9,3 6.00039,6.299609 9.90039,6.599609 -0.3,0.200001 -0.7,0.500782 -1,0.800782 -0.5,0.5 -0.60078,0.999219 -0.80079,1.699218 -0.59999,1.8 -2.4996,2.800391 -4.0996,3.900391 -0.68674,0.457823 -1.3983,0.890569 -2.12696,1.296875 -0.001,-0.04849 -0.0257,-0.09766 -0.0742,-0.09766 -4.7,0 -8.5,-1.59961 -12,-4.59961 -3.1,-2.599999 -4.5,-5.599218 -5.5,-9.199218 h 4.10157 c 2.2,0.1 4.39961,0.1 6.59961,0 1.2,4.9 8.39921,9.099609 13.19921,8.099609 0.1,0 0.1,-0.200781 0,-0.300781 -2.3,-0.8 -4.59882,-0.998828 -6.79882,-2.298828 -2.3,-1.3 -4.40078,-3.09961 -5.30079,-5.59961 z m -19.4004,0.300781 c 0.40001,8 8.30079,15.4 16.30079,16 -0.6,0.2 -1.3,0.298438 -2,0.398438 h -0.60157 c 0,0 0.10157,3.9e-4 0.10157,-0.09961 0.4,-0.1 0.19843,-0.599999 -0.10157,-0.5 -9.7,3.200001 -17.99843,-6.598828 -19.89843,-15.298828 2.1,-0.2 4.09921,-0.4 6.19921,-0.5 z m 1.09961,0 h 1.59961 c 0.8,4.4 2.8,7.7 6.5,10.5 3.26105,2.470493 7.59625,4.447058 11.84766,3.625 -0.79163,0.431793 -1.60674,0.827732 -2.44727,1.173828 -4.1,0 -7.99921,-1.199609 -11.19921,-4.099609 -3.6,-3.2 -4.60079,-6.999219 -6.30079,-11.199219 z m -8.40039,0.699219 c 0.2,1.2 0.50039,2.4 0.90039,3.5 -1.1,-1.2 -2.2,-2.199609 -3.5,-3.099609 0.9,-0.2 1.69961,-0.300391 2.59961,-0.400391 z m -14.144528,8.050781 c -0.05254,0.0078 -0.104296,0.02383 -0.154296,0.04883 -0.1,0 -0.19961,0.101172 -0.09961,0.201172 0.1,0.4 0.598438,0.498829 0.898438,0.798828 0.4,0.3 0.701562,0.6 1.101562,1 0.3,0.400001 0.89961,-0.199609 0.59961,-0.599609 -0.5,-0.4 -0.900782,-0.7 -1.300782,-1 -0.2625,-0.175 -0.677148,-0.503906 -1.044922,-0.449219 z m -40.423828,0.800782 c -0.075,0.0047 -0.155468,0.04844 -0.230468,0.148437 -3.7,4.6 -7.701172,9.5 -8.701172,15.5 0,0.3 0.40039,0.39961 0.40039,0.09961 1.7,-5.799999 5.001172,-10.499218 8.701172,-15.199218 0.225,-0.225 0.05508,-0.562891 -0.169922,-0.548828 z m 59.968746,2.248046 c 0.7,0.700001 1.29961,1.400001 2.09961,2 3,2.5 7.10039,4.501172 10.90039,3.701172 -0.1,0.1 -0.0996,0.198829 -0.0996,0.298828 -0.1,0.200001 -3.9e-4,0.39961 0.0996,0.59961 -2.4,1.2 -5.30039,1.301562 -7.90039,0.601562 -2.3,-0.6 -3.79921,-2.301562 -5.69922,-3.601562 0.40001,-0.6 0.59922,-1.198438 0.69922,-1.898438 0.1,-0.6 3.9e-4,-1.201171 -0.0996,-1.701172 z m -1.19921,4.300782 c 2.8,2.2 4.60039,3.899609 8.40039,4.099609 1.6,0.1 4.19961,0.2 5.59961,-1 -0.3,1.4 -1.00039,3 -2.4004,3.5 -1.09999,0.4 -2.50078,0.400391 -3.80078,0.400391 -0.1,-0.1 -0.19843,-0.300782 -0.39843,-0.300782 -3.6,-0.4 -6.60118,-2.70039 -8.20118,-5.90039 0.3,-0.3 0.60079,-0.498828 0.80079,-0.798828 z m 22.5,0.798828 c 1.4,0.8 2.8,1.8 4,3 -3.3,-1.2 -7.40118,-2.3 -10.70118,-0.5 0,-0.2 0.002,-0.499219 0.10157,-0.699219 0.5,-1.4 2.99922,-0.899609 4.19921,-1.099609 0.80001,-0.2 1.6004,-0.401172 2.4004,-0.701172 z m -24.09961,0.701172 c 1.3,2.4 3.29882,4.298828 5.79882,5.298828 -2.7,-0.4 -5.4,-1.198828 -8,-2.298828 l -0.0996,-0.09961 c -0.1,-0.2 -0.29999,-0.300781 -0.5,-0.300781 0.8,-1 1.80079,-1.699609 2.80079,-2.599609 z m 22.09961,1.90039 c 2,0 3.89882,0.499219 5.79882,1.199219 0.3,0.1 0.5,-0.20039 0.5,-0.400391 l 0.20118,0.201172 c -1.1,0.8 -1.89961,1.898828 -2.09961,3.298828 0,0.200001 -0.002,0.39961 -0.10157,0.59961 -2,-1.5 -4.89882,-1.3 -7.29882,-1 -1.9,0.2 -3.79961,0.600781 -5.59961,1.300781 -0.6,0.2 -1.30039,0.500781 -1.90039,0.800781 -0.6,0.3 -1.09961,0.598438 -1.59961,0.898438 -0.5,0.1 -0.70079,0.301562 -0.80079,0.601562 h -0.30078 c 0,0 -0.0996,-3.9e-4 -0.0996,0.09961 -0.1,0.1 -0.19921,0.198828 -0.19921,0.298828 -0.1,-0.1 -0.20079,-0.09922 -0.30079,-0.199219 -2.9,-1.5 -6.30039,-2.80039 -8.90039,-4.900391 2.1,1 4.40079,1.600391 6.80078,1.900391 2.70001,0.4 6.4004,0.600781 8.9004,-0.699219 0.9,-0.5 1.69961,-1.101562 2.0996,-2.101562 0.1,-0.3 0.19922,-0.7 0.19922,-1 1.6,-0.5 3.00118,-0.898438 4.70118,-0.898438 z m -25.5,1.798828 c 1,1.3 2.2996,2.401172 3.5996,3.201172 -1.2,3.3 -0.79921,7.6 -0.19921,11 0.5,2.8 1.5,5.398826 3,7.798826 -0.4,-0.2 -0.80079,-0.39961 -1.30079,-0.59961 -2.09999,-1.2 -3.3996,-2.49961 -4.5996,-4.599606 -0.6,-1 -1,-2 -1.5,-3 0.8,-4.1 -0.6,-8.300391 0.5,-12.400391 0.1,-0.5 0.3,-1.000391 0.5,-1.400391 z m -45.982426,0.476563 c -0.05,0.01094 -0.09219,0.04805 -0.117188,0.123047 -0.5,1.1 -1.10039,2.1 -1.90039,3 -0.7,0.9 -1.7,1.401172 -2.5,2.201172 -0.2,0.2 -0.0012,0.5 0.298828,0.5 2.4,-0.5 4.1,-3.3 4.5,-5.5 0.075,-0.15 -0.13125,-0.357031 -0.28125,-0.324219 z m 71.796876,2.472656 c 1.62891,0.04395 3.11094,0.438672 4.08594,1.451172 0.3,1.1 1.09843,2.200781 1.89843,3.300781 -1.8,-0.6 -4.09882,-0.400781 -5.79882,-0.300781 -2.1,0.2 -4.10118,0.7 -5.70118,2 -0.1,0 -0.0992,-3.9e-4 -0.19922,0.09961 l -0.30078,0.300782 c -0.3,0.3 0.1,0.799609 0.5,0.599609 2.1,-1 4.20157,-1.700781 6.60157,-1.800781 1.7,-0.1 3.8,-0.398438 5.5,0.101562 0.5,0.7 0.89922,1.39961 1.19921,2.09961 -1.3,-0.5 -2.89921,-0.601172 -4.19921,-0.701172 -2.4,-0.3 -5.20118,0.300781 -7.20118,1.800781 l -0.0996,0.09961 c -2.9,-1.799999 -5.90039,-3.499609 -8.90039,-5.099609 0.5,-0.1 1.19961,-0.8 1.59961,-1 1,-0.6 2.20078,-1.1 3.30078,-1.5 1.875,-0.625 5.00001,-1.524414 7.71485,-1.451172 z m -50.607423,0.529297 c -0.220313,-0.02813 -0.483203,0.196875 -0.408203,0.421875 0.2,0.8 0.401562,1.69961 0.601562,2.599609 0.1,0.900001 0.09883,1.79961 0.298828,2.59961 0.1,0.2 0.300391,0.2 0.400391,0 0.6,-1.7 7.81e-4,-3.9 -0.699219,-5.5 -0.05,-0.075 -0.119922,-0.111719 -0.193359,-0.121094 z m 29.193363,0.121094 c 0.8,0.5 1.6,0.90039 2.5,1.40039 0.2,0.1 0.4,0.200782 0.5,0.300782 l -0.10157,0.09961 c -0.7,2.6 0.30039,5.69961 1.40039,8.099609 1.4,3.200001 4.10039,5.301168 5.90039,8.201168 0.3,1.4 0.69961,2.79922 1.09961,4.19922 -2.5,-0.9 -5.1,-1.89961 -7.5,-3.09961 v -0.0996 c -2.3,-2.8 -3.29882,-6.101168 -3.79882,-9.701168 -0.4,-3.2 0.1,-6.30039 0,-9.40039 z m 3.5,2 c 1.3,0.7 2.7,1.3 4,2 -0.8,3.9 0.69921,9.900781 4.19921,12.300778 -0.29999,0 -0.60039,3.9e-4 -0.90039,-0.0996 -0.3,0 -0.4996,0.10039 -0.59961,0.40039 -1.29999,-1.799996 -2.8996,-3.499996 -4.0996,-5.499996 -1.7,-3 -1.79961,-5.901562 -2.59961,-9.101562 z m 4.69921,2.300781 c 1.5,0.8 3.09961,1.6 4.59961,2.5 -0.6,3.3 0.70079,7.8 3.30079,9.999997 -1,-0.2 -1.9004,-0.30039 -2.9004,-0.40039 0,-0.1 -0.0992,-0.19883 -0.19921,-0.29883 -3.9,-1.799996 -4.90079,-7.700777 -4.80079,-11.800777 z m 5.4004,3 c 0.1,0 0.0992,0.09961 0.19921,0.09961 2.3,1.3 4.40039,2.6 6.40039,4 0,0 4e-4,0.09961 -0.0996,0.09961 v 0.101562 0.298828 0.400391 c 0,0.3 -0.0996,0.7 -0.0996,1 0,0.7 0.0988,1.300391 0.29882,1.900387 0.3,1.2 0.90118,2.19961 1.70118,3.09961 -1.5,-0.5 -3,-0.89922 -4.5,-1.19922 0,-0.1 -0.001,-0.20078 -0.20118,-0.30078 -3.5,-2.199997 -2.69921,-6.099997 -3.69921,-9.499997 z m 10.93554,0.03516 c 1.57032,-0.04219 3.68985,0.01484 4.96485,0.464844 0.8,1.6 1.09882,3.099219 1.29882,4.699219 -0.2,-0.1 -0.49882,-0.198828 -0.79882,-0.298828 -1.9,-0.5 -4.30118,-0.8 -6.20118,0 -0.1,0 -0.0992,0.09922 -0.19921,0.199218 -1.7,-1.4 -3.50079,-2.598828 -5.30079,-3.798828 1.7,-0.3 3.20039,-1.001171 4.90039,-1.201172 0.35,-0.025 0.8125,-0.05039 1.33594,-0.06445 z m -65.435544,1.765625 v 0.5 l -0.09961,-0.101562 c 0,-0.1 0.09961,-0.298438 0.09961,-0.398438 z m 61.798824,2.798828 c 3.8,2.700001 7.10157,6.000778 9.60157,10.300778 v 0.0996 c -2.5,-1.5 -5.10078,-2.69922 -7.80079,-3.69922 0.2,-0.2 0.29961,-0.40156 0.0996,-0.60156 -0.9,-0.9 -1.49882,-1.99922 -1.79882,-3.199217 -0.2,-1 -0.002,-1.900391 -0.10157,-2.900391 z m 6.45118,0.732422 c 0.35,0 0.69882,0.01836 1.04882,0.06836 0.6,0.1 1.80039,0.20039 2.40039,0.40039 0.1,0 0.10118,0.09961 0.20118,0.09961 0.1,2.599996 -0.10079,5.200386 -0.30079,7.900386 -1.4,-3.2 -3.8,-5.90078 -6.5,-8.300777 1.05001,0 2.1004,-0.167969 3.1504,-0.167969 z"></path>
</svg>