<svg xmlns="http://www.w3.org/2000/svg" viewBox="0 0 63.099998 70.4" version="1.1" fill="#339994">
	<path d="m 6.5,58.6 c 1,1.1 1.8,1.6 2.3,1.9 0.4,0.2 0.7,0.3 0.7,0.3 0,0 0,0 -0.5,-0.5 C 8.6,59.9 7.9,59.4 7,58.3 6.4,57.6 5.1,55.8 5.1,55.7 5,55.6 5,55.6 5,55.6 c 0,0 0,0.3 0.2,0.7 0.1,0.4 0.4,1.2 1.3,2.3 z M 23.3,23.3 C 22,25.1 22,25.7 22,25.7 v 0 c 0,0 0.6,-0.3 1.8,-2.1 1.4,-1.9 1.4,-2.6 1.4,-2.6 0,0 -0.6,0.4 -1.9,2.3 z m 28.6,38.2 c -0.3,0 -0.7,0 -1.2,0 -2.1,0 -4.1,-0.5 -6,-1.5 C 42.5,58.8 40.9,57.2 39.6,55.1 39.4,54.8 39.3,54.6 39.2,54.4 39.1,54.2 39,54.1 39,54 c -0.1,-0.2 -0.2,-0.3 -0.2,-0.3 0,0 0,0.1 0.1,0.4 0.1,0.3 0.2,0.7 0.5,1.3 0.3,0.6 0.8,1.4 1.5,2.3 0.8,0.9 1.9,1.9 3.5,2.8 1.7,0.9 3.3,1.2 4.5,1.3 0.3,0 0.6,0 0.9,0 0.8,0 1.5,-0.1 2,-0.2 0.7,-0.1 1.2,-0.3 1.4,-0.4 0.3,-0.1 0.4,-0.2 0.4,-0.2 0,0 -0.1,0 -0.4,0.1 -0.1,0.3 -0.6,0.4 -1.3,0.4 z m -8,-9.3 c 0.3,0.5 0.8,1.2 1.5,1.8 0.8,0.7 1.5,1.1 2.1,1.4 0.6,0.3 1.1,0.4 1.5,0.5 0.3,0.1 0.6,0.1 0.7,0.1 0.2,0 0.3,0 0.3,0 0,0 -0.1,0 -0.2,-0.1 C 49.6,55.8 49.4,55.8 49.1,55.6 48.8,55.5 48.3,55.3 47.7,55 47.1,54.7 46.5,54.3 45.7,53.6 45,52.9 44.5,52.3 44.2,51.8 44.1,51.7 44,51.6 44,51.4 43.9,51.3 43.9,51.2 43.8,51.1 43.7,50.9 43.6,50.7 43.5,50.6 43.3,50.3 43.2,50.1 43.2,50 c -0.1,-0.1 -0.1,-0.1 -0.1,-0.1 0,0 0,0.5 0.2,1 0,0.3 0.2,0.7 0.6,1.3 z M 22.7,43.1 c -0.5,2 -0.8,4.1 -0.8,6.7 0,1.5 0.1,2.7 0.3,3.7 0.2,1.1 0.3,1.9 0.5,2.5 0.3,1 0.5,1.6 0.5,1.6 0,0 0,-0.1 0,-0.4 0,-0.3 -0.1,-0.7 -0.2,-1.3 -0.1,-0.6 -0.2,-1.4 -0.3,-2.5 -0.1,-0.9 -0.2,-2.1 -0.2,-3.5 0,-0.2 0,-0.4 0,-0.6 0.1,-4 0.6,-6.5 0.7,-7.5 0,-0.2 0,-0.3 0,-0.3 v 0 c 0,0 -0.3,0.7 -0.5,1.6 z M 10.3,63.5 C 8,62 6.3,60.2 5.1,58.1 3.8,55.9 3.2,53.7 2.9,51.2 2.9,51 2.8,49.6 2.8,49.6 c 0,0 0,0.1 -0.1,0.4 0,0.3 -0.1,0.8 -0.1,1.5 0,0.7 0.1,1.6 0.3,2.8 0.3,1.2 0.7,2.6 1.6,4.2 1,1.7 2.1,2.8 3.1,3.7 1,0.8 1.8,1.3 2.5,1.7 0.6,0.3 1.1,0.5 1.4,0.6 0.3,0.1 0.4,0.1 0.4,0.1 0,0 -0.1,-0.1 -0.4,-0.2 -0.2,-0.3 -0.6,-0.5 -1.2,-0.9 z m 8.3,-35.6 c 0.8,-0.8 2,-2.2 3.8,-4.4 1.9,-2.4 2.9,-4 3.5,-5 0.6,-1 0.7,-1.4 0.7,-1.4 0,0 -0.3,0.3 -1,1.2 -0.7,0.9 -1.9,2.4 -3.8,4.9 -1.9,2.4 -3,3.8 -3.6,4.7 -0.6,0.8 -0.7,1.1 -0.7,1.1 0,0 0.3,-0.3 1.1,-1.1 z m 9.7,1.9 c 0.1,-0.5 0.3,-1.2 0.4,-2.5 0,-0.5 0.1,-0.9 0.1,-1.3 0,-0.5 0,-0.9 -0.1,-1.1 -0.1,-0.4 -0.2,-0.5 -0.2,-0.5 0,0 -0.1,0.2 -0.1,0.6 -0.1,0.4 -0.2,1.2 -0.3,2.3 -0.1,1.1 -0.1,1.8 -0.1,2.3 0,0.6 0.1,0.8 0.1,0.8 0,0 0.1,-0.1 0.2,-0.6 z m 13,19.9 c 0.1,0.6 0.4,1.3 0.7,2.1 0.3,0.7 0.7,1.5 1.4,2.3 0.7,0.8 1.4,1.5 2.1,2 0.7,0.5 1.4,0.9 2,1.2 1.2,0.6 2.3,0.8 3,0.9 0.4,0 0.7,0.1 0.9,0.1 0,0 0,0 0.1,0 0.1,0 0.1,0 0.2,0 0.2,0 0.3,0 0.5,0 0.3,0 0.4,0 0.4,0 0,0 -0.1,0 -0.5,0 -0.2,0 -0.4,0 -0.6,-0.1 -0.3,0 -0.6,-0.1 -0.9,-0.2 -0.7,-0.2 -1.7,-0.5 -2.9,-1.1 -0.6,-0.3 -1.2,-0.7 -1.9,-1.2 -0.7,-0.5 -1.3,-1.1 -1.9,-1.9 -0.6,-0.8 -1,-1.6 -1.3,-2.3 -0.3,-0.7 -0.5,-1.4 -0.7,-2 C 41.6,48.3 41.5,47.3 41.3,46.7 41,45 41,45 41,45 c 0,0 0,0.4 0,0.5 0,0.3 0,0.8 0,1.5 -0.1,0.4 0,1.4 0.3,2.7 z m -11.7,-17 c 0.1,-0.9 0.3,-2.4 0.4,-4.8 0,-0.4 0,-0.8 0,-1.2 0,-1.7 -0.1,-2.7 -0.2,-3.4 -0.1,-0.8 -0.2,-1 -0.2,-1 0,0 0,0.3 -0.1,1.2 0,0.9 -0.1,2.3 -0.1,4.5 -0.1,2.1 -0.1,3.4 -0.1,4.4 0,1.2 0.1,1.6 0.1,1.6 0,0 0.1,-0.4 0.2,-1.3 z m 0.9,29.2 C 30.3,61.6 30,61.3 29.7,60.8 29.4,60.3 29,59.7 28.6,58.9 c -0.9,-2 -1.1,-3.4 -1.3,-3.8 0,-0.1 -0.1,-0.2 -0.1,-0.2 0,0 0,0.3 0,0.6 0,1.3 0.4,2.5 0.9,3.7 0.4,0.8 0.9,1.5 1.3,1.9 0.4,0.5 0.7,0.8 1,1 0.4,0.4 0.8,0.5 0.8,0.5 0,0 0,-0.1 -0.1,-0.2 -0.3,-0.1 -0.4,-0.2 -0.6,-0.5 z m 4.8,4 c -0.1,-0.1 -0.3,-0.2 -0.5,-0.4 -0.2,-0.2 -0.4,-0.4 -0.7,-0.7 -0.5,-0.5 -1.2,-1.3 -2,-2.4 -0.8,-1.1 -1.6,-2.5 -2.3,-4.3 -0.7,-1.9 -1,-3.4 -1.2,-4.7 0,-0.3 -0.1,-0.6 -0.1,-0.9 0,-0.3 0,-0.5 0,-0.8 0,-0.5 0,-0.6 0,-1.7 0,-0.3 0,-0.6 0,-0.9 0,-0.3 0,-0.3 0,-0.3 0,0 0,0.1 -0.1,0.4 -0.1,0.3 -0.2,0.8 -0.2,1.5 0,0.2 0,0.4 0,0.6 0,0.2 0,0.4 0,0.7 0,0.1 0,0.1 0,0.2 0,0.4 0.1,0.9 0.1,1.5 0.1,1.3 0.4,2.8 1.1,4.6 0.2,0.5 0.4,0.9 0.6,1.3 0.2,0.4 0.4,0.8 0.6,1.2 0.2,0.4 0.4,0.7 0.6,1 0.2,0.3 0.4,0.6 0.6,0.9 0.8,1 1.6,1.8 2.1,2.3 0.3,0.2 0.5,0.5 0.7,0.6 0.4,0.2 0.6,0.3 0.7,0.3 0.2,0.2 0.3,0.3 0.3,0.3 0,0 0,-0.1 -0.3,-0.3 z m 1,-1 c -0.1,-0.1 -0.2,-0.2 -0.4,-0.3 -0.7,-0.6 -1.4,-1.5 -2,-2.4 -1.1,-1.6 -2.3,-3.7 -3,-6.6 -0.8,-2.9 -0.9,-5.2 -1,-7.1 -0.1,-1.9 -0.1,-3.3 -0.1,-4.3 0,-1 0,-1.6 0,-2 0,-0.4 0,-0.5 0,-0.5 0,0 0,0.2 -0.1,0.6 0,0.5 -0.1,1.2 -0.2,2.3 0,0.7 -0.1,1.6 -0.1,2.7 0,0.5 0,1 0,1.6 0.1,1.9 0.2,4.2 1,6.9 0.8,2.9 2,5.1 3.2,6.7 1.2,1.6 2.4,2.6 3.3,3.2 0.9,0.6 1.6,1 2,1.1 0.4,0.2 0.6,0.2 0.6,0.2 0,0 -0.2,-0.1 -0.6,-0.3 -0.4,-0.2 -1.1,-0.6 -1.9,-1.3 -0.2,0 -0.5,-0.2 -0.7,-0.5 z m 19,-7.4 c -0.4,0.4 -1.2,0.9 -2.5,1.2 -0.4,0.1 -0.8,0.1 -1.3,0.1 -1.2,0 -2.6,-0.2 -4.2,-0.8 -0.5,-0.2 -1.1,-0.5 -1.7,-0.9 -0.6,-0.4 -1.1,-0.8 -1.6,-1.3 -1.1,-1 -2,-2.4 -2.7,-4 -0.7,-1.7 -1.1,-3.2 -1.4,-4.7 -0.3,-1.4 -0.4,-2.7 -0.5,-3.9 -0.1,-1.5 -0.1,-2.8 -0.1,-3.8 0,-0.5 0,-1 0,-1.4 0.1,-2.4 0.1,-2.7 0.1,-3 0,-0.1 0,-0.2 0,-0.2 0,0 0,0.2 -0.1,0.8 -0.1,0.6 -0.2,1.5 -0.3,2.8 0,0.8 -0.1,1.8 -0.1,2.9 0,0.7 0,1.6 0.1,2.5 0.1,1.1 0.2,2.4 0.5,3.8 0.3,1.4 0.7,2.9 1.4,4.5 0.8,1.7 1.8,3.1 2.9,4.2 0.6,0.5 1.1,1 1.7,1.3 0.6,0.4 1.2,0.6 1.8,0.9 1.5,0.5 2.8,0.7 3.9,0.7 0.7,0 1.2,-0.1 1.8,-0.2 1.2,-0.4 2,-1 2.3,-1.5 0.3,-0.2 0.4,-0.3 0.4,-0.4 0.1,-0.1 0.1,-0.2 0.1,-0.2 0,0 0,0 -0.1,0.1 -0.1,0.1 -0.2,0.3 -0.4,0.5 z M 49.9,32.6 c -2.4,-2.2 -7.5,-8.1 -10.8,-5.5 -2.2,1.7 -2.3,12.1 -2.3,14.7 0,12.1 7.4,18.8 13.5,18.8 6.3,0 8.9,-4.7 8.9,-10.4 0,-9.6 -7.3,-15.7 -9.3,-17.6 z m 0.5,27.1 c -7.5,0 -12.7,-8.9 -12.7,-17.3 0,-3 0.3,-8 1.1,-12.2 0.3,-1.7 0.8,-3.1 2.5,-3.1 2.5,0 17.2,11.2 17.2,23.1 0,5.4 -2.4,9.5 -8.1,9.5 z M 51,29.9 C 47.6,25 42.6,15 38.4,15 c -0.6,0 -1.2,0.2 -1.8,0.5 0.1,-0.1 0.1,-0.2 0.1,-0.3 0.2,-0.5 -0.4,-2.3 -1.4,-2.3 -0.1,0 -1.2,0 -1.2,0 -0.3,-0.5 -0.8,-1 -1.3,-1.4 0.6,-0.8 1.1,-1.7 1.7,-2.6 0.6,-0.8 1.2,-1.6 1.7,-2.4 L 36.3,6.4 C 36.4,6.3 36.6,6 36.6,5.9 v 0 c 0.6,-1.2 1.6,-3.7 1.6,-4.3 0,-1.3 -2.4,-1.7 -2.7,-1.7 -0.9,0 -0.8,0.9 -1,1.4 -0.1,0.2 -0.4,1.2 -0.6,1.4 -2.5,1.8 -7.3,4.3 -8.5,5.2 -1,-0.3 -2,-0.5 -3.1,-0.5 -5.6,0 -12,4.3 -14.2,13.1 -0.4,1.6 -0.6,9 -0.6,9.9 0,0.2 0,0.3 0.1,0.3 0,0 1.4,-1 4.2,-2.1 -1.2,1.8 -2.8,3.5 -3.7,4.6 -4.2,4.6 -8.1,8.4 -8.1,16 0,10.2 6.4,19.5 18.3,19.5 4,0 7.8,-1.7 10.9,-4.5 4.4,4 10.4,6.1 16.3,6.1 10.4,0 17.6,-5.1 17.6,-15.9 0,-9.6 -5,-14.5 -12.1,-24.5 z M 35.8,13.6 c 0.1,0.2 0.2,0.5 0.3,0.7 0.1,0.3 0.1,0.6 0.2,0.9 -0.9,0.7 -2.1,1 -3.3,1.1 -0.4,0 -0.7,0 -0.9,-0.4 C 32,15.8 31.9,15 31.8,15 c 0.4,0.2 0.9,0.1 1.3,0.1 1.1,-0.2 2.1,-0.7 2.7,-1.5 z m -0.3,-0.2 c -2.3,1.6 -2.8,1.3 -3.8,1.2 0,0 0,0 0,-0.1 1.3,-0.8 2.4,-1.1 3.8,-1.1 z M 33.4,4.9 c 0.4,0.3 0.8,0.5 1.3,0.5 0.2,0 0.7,-0.1 0.7,-0.3 0,-0.1 -0.1,-0.2 -0.2,-0.2 -1,0 -1.3,-0.3 -1.6,-0.6 0.8,-1.1 1.1,-2.9 1.1,-3.8 0.1,0 0.2,0 0.3,0 0.1,0 0.2,0 0.4,0 0.5,0 0.8,0.1 2.2,0.9 C 37.1,2.5 36.3,5 36.1,5.8 34.7,7.3 33.2,9.3 32.4,11.3 32.3,11.2 32.1,11.1 32,11 c 0.5,-0.9 0.6,-1.5 0.6,-1.5 0,0 -0.5,0.3 -1.1,1.2 -0.1,0 -0.2,-0.1 -0.3,-0.1 1.8,-2.7 2.7,-4.5 2.7,-4.5 0,0 -1.4,1.5 -3.3,4.2 -0.2,0 -0.3,-0.1 -0.5,-0.1 1.4,-1.7 2.6,-3.2 3.1,-5.2 0.2,0 0.2,0 0.2,-0.1 z m -4,5.3 c -0.3,0 -0.5,0 -0.8,0 -0.8,0 -1.5,0.1 -2.2,0.5 0,-0.2 0,-0.8 -0.1,-0.9 1.3,-2.1 3.9,-2.7 6,-3.9 -0.5,0.9 -0.9,1.7 -2.9,4.3 z M 25.7,8.3 C 26.6,8 32.7,4.2 33,3.9 33,4 32.9,4 32.9,4.1 c 0,0.1 0,0.2 0,0.2 0,0.1 -0.1,0.2 -0.1,0.3 0,0.1 -0.1,0.2 -0.1,0.2 C 28.1,6.9 26.6,8 26.1,9 26,8.6 25.7,8.3 25.4,8.1 c 0.1,0.1 0.3,0.2 0.3,0.2 z M 7.8,30 C 8.6,27.8 7.1,8 22.6,8 c 1.1,0 1.9,0.2 2.3,0.4 l 0.4,0.3 c 0,0 -1,0.5 -2.5,1.6 -2.2,0.2 -4,0.1 -6.1,-0.1 1.8,0.5 3.6,0.7 5.5,0.6 -0.5,0.4 -1.2,1 -2.3,2 -2.7,0.5 -4.6,0.7 -6.8,1 0.2,0 0.4,0 0.6,0 1.3,0 3.4,-0.1 5.5,-0.4 -0.9,0.9 -1.8,1.8 -2.7,2.8 v -0.1 c -3.8,0.6 -5.9,1.2 -5.9,1.2 0,0 2.1,-0.1 5.6,-0.7 -1,1.2 -1.8,2.3 -2.9,3.9 -1.4,0.5 -2.9,0.9 -4.4,1.2 0.1,0 0.3,0 0.4,0 0.9,0 2.2,-0.2 3.5,-0.6 -1.9,3 -3.8,7.4 -3.4,7.4 0,0 1.5,-3.5 3.6,-6.9 -0.1,1.7 0,3.2 0.4,4.8 0,-0.8 -0.1,-1.6 -0.1,-2.3 0,-1.1 0.1,-2.1 0.2,-3.3 1.1,-1.7 2,-2.8 3,-4 0,0.5 0,1 0,1.5 0,1.4 0.1,2.6 0.2,3.5 0.1,1 0.3,1.7 0.3,2.1 0,-0.7 -0.1,-1.3 -0.1,-2.1 0,-0.5 0,-1.1 0,-1.8 0,-1.1 0,-2.3 0.1,-3.7 1,-1.1 2,-2.1 3.1,-3.1 -0.2,1.2 -0.2,2.3 -0.2,3.2 0,0.9 0.1,1.6 0.1,2.3 0.1,0.7 0.2,1.3 0.3,1.6 0.1,0.4 0.1,0.6 0.1,0.6 0,0 0,-0.2 -0.1,-0.6 0,-0.4 -0.1,-0.9 -0.1,-1.6 0,-0.3 0,-0.6 0,-0.9 0,-1.3 0.1,-3 0.5,-5.1 0.8,-0.6 1.6,-1.2 2.4,-1.8 0,0.3 0,0.7 0,1 0,1.7 0.2,3.2 0.6,4.7 0,0 0,-0.1 0,-0.4 -0.1,-1.1 -0.2,-2.1 -0.2,-3.2 0,-0.8 0,-1.6 0.1,-2.5 1.3,-0.9 1.8,-1.4 1.8,-1.4 0,0 0.2,1.3 0.2,1.4 0,0.2 0,0.4 0,0.6 0,2.1 -0.7,4.4 -1.5,6.2 C 20,27.4 11.4,26.9 7.8,30 Z m 11,37.5 C 8.8,67.5 0.7,60 0.7,49.6 0.7,39.6 7.6,36.3 13,28.2 c 0.4,-0.2 0.8,-0.3 1.2,-0.5 -1.1,1.4 -1.8,2.5 -2.4,3.4 -0.6,1 -0.9,1.6 -0.9,1.6 0,0 0.4,-0.5 1.2,-1.4 0.1,-0.1 3.3,-3.9 3.1,-4 0.9,-0.4 1.8,-0.9 2.8,-1.5 -3,3.4 -4.6,5.5 -4.6,5.5 l 6.9,-7.1 c 3.8,-3.1 5.9,-8 6,-13 0.7,-0.2 1.4,-0.3 2,-0.3 1.9,0 3.7,0.8 5.2,2.2 -0.2,-0.2 -1.9,0.7 -2.2,0.9 -0.5,0.4 -0.1,1.2 0.1,1.8 -4.1,1.1 -5,5.9 -5.3,9.6 -1.3,15.6 -2.8,16.9 -2.8,23.6 0,4.4 0.9,8.6 3.2,12.2 -1,0.7 -2,1.2 -2.6,1.5 -0.3,0.2 -0.6,0.3 -0.8,0.4 -0.2,0.1 -0.3,0.1 -0.3,0.1 0,0 0.1,0 0.3,0 0.2,0 0.5,-0.1 0.9,-0.2 0.7,-0.2 1.7,-0.6 2.9,-1.3 0.1,0.1 0.2,0.2 0.2,0.3 -2.1,1.6 -4.2,2.3 -5.6,2.7 -0.7,0.2 -1.3,0.3 -1.7,0.4 -0.4,0.1 -0.6,0.1 -0.6,0.1 0,0 0.2,0 0.6,0 0.4,0 1,0 1.8,-0.1 2.2,-0.3 4.2,-1.2 5.9,-2.5 0.1,0.1 0.2,0.3 0.4,0.4 -2.7,2 -6,3.1 -9.5,3.1 -0.3,0 -0.5,0 -0.8,0 -1.3,-0.1 -2.3,-0.3 -2.9,-0.4 -0.7,-0.2 -1,-0.3 -1,-0.3 0,0 0.3,0.1 1,0.4 0.6,0.2 1.6,0.5 2.9,0.6 0.5,0.1 1,0.1 1.6,0.1 1,0 2,-0.1 3.2,-0.3 1.9,-0.4 4,-1.2 5.9,-2.7 l -0.1,-0.2 c 0.1,0.1 0.2,0.2 0.3,0.3 -2.8,2.4 -5.9,3.9 -9.7,3.9 z m 5.3,-19.7 c 0,-3.5 0.7,-5.8 1.4,-9.2 C 27.7,27.1 25,21.4 30,17.4 c -0.6,0.5 -0.9,1.1 -1.1,1.8 0.2,-0.3 0.4,-0.7 0.8,-1.1 0.6,-0.5 1.3,-0.9 2.1,-1.1 -0.8,0.4 -1.3,1 -1.6,1.6 0.7,-0.7 1.3,-1.1 2.3,-1.3 -3,1.4 -1.9,6.8 -1.9,12.7 0,2.2 -0.3,7.6 -0.3,11.8 0,11.8 2.5,23.8 13.7,27.5 C 31.6,68.2 24.1,61 24.1,47.8 Z M 48.9,69 c -8.2,0 -17.8,-6.3 -17.8,-28.9 0,-5.8 -0.1,-11.6 0.3,-17.4 0.1,-1.4 0,-4.3 1.5,-5.1 0.3,-0.2 0.7,-0.2 1.1,-0.2 0.3,0 0.6,0 0.9,0 1.3,-0.2 2.3,-1.8 3.7,-1.7 1.1,0.1 2.2,1.1 3,1.8 2,1.9 3.5,4.3 4.9,6.6 0,0 0,0.1 0.1,0.1 7.5,12.5 15.7,20.1 15.7,30.6 0,8.5 -5.8,14.2 -13.4,14.2 z"></path>
</svg>