<svg xmlns="http://www.w3.org/2000/svg" viewBox="0 0 161.35178 135.01007" version="1.1" fill="#339994">
	<path d="M 85.164062,0 C 82.517187,0.01250001 80.024609,0.25078125 78.099609,0.55078125 72.499609,1.3507813 66.099219,3.45 62.199219,7.75 c -0.4,0.4 -0.7,0.9003906 -1,1.4003906 C 59.999219,6.1503906 56.7,4.6511719 53.5,4.4511719 48,4.2511719 42.1,9.0500004 38,12.25 c -4.2,3.3 -7.500391,7.100781 -8.900391,12.300781 -0.2,0.8 -0.6,1.89961 -0.5,2.59961 -2,-0.2 -3.601172,-1.100782 -5.701171,-0.800782 -2,0.2 -3.798438,1.001563 -5.398438,2.101563 -3.3,2.2 -5.800391,5.698437 -6.900391,9.398437 C 9.2996097,41.749609 10,45.35 11,49.25 c 0.5,1.9 0.09844,2.000391 -1.6015625,2.900391 -1.3,0.7 -2.4996094,1.5 -3.5996094,2.5 -4.3,3.8 -6.49960935,9.499609 -5.59960935,15.099609 0.7,4.3 2.69960935,8.401172 5.59960935,11.701172 1.4,1.6 2.7000003,2.298828 4.4999999,3.298828 2.3,1.2 4.3,3.1 6.5,4.5 0.895089,0.565319 1.797772,1.113902 2.697266,1.669922 0.0022,0.04361 -0.0066,0.08898 0.0039,0.130859 0.107384,0.0179 0.227201,0.05577 0.339844,0.08008 6.626469,4.087522 13.329214,7.996933 19.660156,12.419921 2.4,1.6 4.799219,3.30039 7.199219,4.90039 -2.1,2.7 -3.7,5.49883 -4,9.29883 -0.2,2.6 0.40039,5.4 0.90039,8 0.3,1.5 0.298829,4.39961 1.298829,5.59961 1,1.1 1.30039,1.2 2.90039,1 3.6,-0.5 7.300391,-0.79844 10.900391,-1.39844 7.1,-1.1 14.300781,-2.70039 21.300781,-4.40039 0.1,0 0.298437,-0.10117 0.398438,-0.20117 0.1,0 0.200781,0.10156 0.300781,0.10156 0.2,0.2 0.3,0.4 0.5,0.5 0.3,0 0.7,-0.002 1,-0.10156 h 0.40039 c 0.4,-0.1 0.798829,-0.0992 1.298829,-0.19922 5.9,2.2 12.20117,3.09961 18.201172,5.09961 4.6,1.6 8.39883,5.79961 12.29883,1.09961 3,-3.7 6.2,-7.19922 5.5,-12.19922 -0.4,-2.8 -2.59961,-5.20078 -5.09961,-6.30078 0.3,-0.2 0.7,-0.3 1,-0.5 9.8,-4.5 20.1,-7.79883 30,-12.29883 6.7,-3.000002 12.9,-8.401171 15,-15.701171 1.8,-5.7 -0.89961,-13.098437 -6.59961,-15.398437 -1.1,-0.5 -2.30039,-0.700391 -3.40039,-0.900391 0.6,-0.5 1.00078,-1.100781 1.30078,-1.800781 7.3,-9.4 4.99961,-23.098828 -2.90039,-31.298828 -3.1,-3.2 -8.70039,-6.4 -13.40039,-5 7.1,-8.4 -7.5,-18.900782 -15,-21.8007814 -4.9,-1.8 -14.2,-4.0007812 -18.5,0.1992188 -0.2,0.1999996 -0.30039,0.2999996 -0.40039,0.4999996 C 102.42344,1.9496097 93.104688,-0.03750002 85.164062,0 Z M 84.992188,2.4726562 C 88.217188,2.4257812 91.5,2.7996094 94.5,3.8496094 c 1.7,0.6 4.2,1.8 5,3.5 1.3,2.8999996 -0.9,7.7999996 -2,10.4999996 -1.9,4.3 -3.000781,8.900391 -4.300781,13.400391 -0.670712,2.202336 -1.303929,4.410541 -1.916016,6.621094 -5.844174,-9.505377 -19.142349,-10.742388 -26.607422,-2.376953 -0.269211,-1.477013 -0.529636,-2.957115 -0.777343,-4.44336 -1,-6.1 -2.59961,-13.3 -1.09961,-19.5 1.6,-6.5999994 13.4,-8.4003904 19,-8.9003904 1.05,-0.1 2.118359,-0.1621094 3.19336,-0.1777344 z m -31.59375,5.3769532 c 3,0.1 5.80039,2.0000004 6.40039,4.9999996 0.3,1.7 -3.91e-4,3.600391 0.09961,5.400391 0.2,2.1 0.500781,4.201172 0.800781,6.201172 0.604187,4.006714 1.316835,7.990194 2.08789,11.96289 -9.912031,-7.189928 -23.728215,-0.432912 -23.78125,12.035157 -5.189548,-7.387514 -9.749545,-15.271008 -7.607421,-24.59961 1.399999,-6 7.501171,-10.9 12.701171,-13.5 2.8,-1.3999992 5.998829,-2.4999996 9.298829,-2.4999996 z m 57.345702,2.3828126 c 5.50703,0.05059 11.20586,2.292969 15.75586,4.917969 3.5,2 6.59922,5.40039 7.69922,9.40039 1.3,4.6 -1.49922,8.698828 -4.69922,11.798828 -0.8,0.8 -1.60039,1.401172 -2.40039,2.201172 -0.6,0.6 -1.09961,1.300391 -1.59961,1.900391 -1.8,2.4 -3.20039,4.899219 -4.90039,7.199219 -0.56046,0.720592 -1.1048,1.448755 -1.63867,2.183593 -0.79601,-1.310999 -0.96043,-2.907046 -1.5625,-4.283203 -0.6,-1.6 -1.5,-3.000781 -2.5,-4.300781 -2.1,-2.6 -4.79844,-4.598828 -7.89844,-5.798828 -3.4,-1.3 -7.400781,-0.900391 -10.800781,0.09961 -0.822687,0.241967 -1.620636,0.603946 -2.396485,1.023438 0.889391,-2.659702 1.819831,-5.303574 2.796875,-7.923828 2.2,-6 4.498831,-17.500782 11.798831,-18.300782 0.775,-0.0875 1.55898,-0.124414 2.3457,-0.117187 z M 24.162109,28.5625 C 24.974609,28.525 25.75,28.7 26.5,29.25 c 1.5,1.1 2.3,3.001172 3,4.701172 0.8,2 1.999219,4 2.699219,6 0.988219,3.014069 2.466614,5.758458 4.166015,8.404297 -3.483667,0.05669 -6.661437,1.908959 -9.066406,4.794922 -3.412685,4.095221 -3.204597,10.084972 -2.080078,15.109375 -5.408588,-5.35429 -10.590183,-12.173796 -11.919922,-19.708985 -0.4,-2.3 -0.399219,-4.60039 -0.199219,-6.90039 0.1,-2.1 0.39961,-4.1 1.09961,-6 1.3,-3.3 4.10039,-5.5 7.40039,-6.5 0.9,-0.3 1.75,-0.550391 2.5625,-0.587891 z m 52.125,3.183594 c 0.336719,-0.0094 0.674219,-0.0086 1.011719,0.0039 5.619969,0.295788 10.652814,3.705669 13.285156,8.689453 -0.374222,1.406268 -0.735857,2.81483 -1.085937,4.224609 -0.50478,-0.03368 -0.903492,-0.152571 -1.099609,-0.414062 -5.597358,-7.589637 -16.136433,-6.709454 -22.15625,-0.623047 -0.426741,-2.150542 -0.848163,-4.305689 -1.25,-6.455078 1.69827,-1.50099 4.234373,-3.372395 4.607421,-3.621094 2.0125,-1.1375 4.330469,-1.739062 6.6875,-1.804687 z m 62.582031,3.001953 c 1.31055,0.0375 2.6543,0.351953 4.0293,1.001953 6.6,3.1 9.80078,10 10.30078,17 0.2,3.5 -0.29922,7.000391 -1.19922,10.400391 -1,3.6 -4.70117,6.099218 -8.20117,7.199218 -3.09492,1.031641 -5.9383,2.509604 -8.7793,4.123047 3.36142,-4.675655 2.94331,-10.684985 -0.0195,-15.623047 -2.7,-4.4 -8.60156,-7.699609 -13.60156,-8.599609 -0.22291,-0.03184 -0.44439,-0.05657 -0.66406,-0.07227 4.27127,-6.779908 10.61231,-15.644935 18.13476,-15.429687 z M 53.910156,35.34375 c 3.3264,0.109296 6.594047,1.44931 9.359375,3.537109 0.34975,1.741479 0.714711,3.479577 1.083985,5.216797 -8.659314,-4.703796 -19.191315,-0.480021 -22.19336,8.789063 -0.880878,-1.22204 -1.756047,-2.456223 -2.640625,-3.701172 1.162792,-5.000026 3.635123,-10.2586 8.279297,-12.535156 1.9875,-0.975 4.060547,-1.374024 6.111328,-1.306641 z m 46.775394,0.925781 c 2.40527,0.06445 4.91406,0.705078 6.91406,1.580078 2.9,1.4 5.20039,3.700391 6.90039,6.400391 1.28053,1.963472 2.9851,4.726908 3.33594,7.173828 -0.5747,0.827875 -1.13927,1.662348 -1.68946,2.507813 -0.25783,-0.01535 -0.51036,-0.01442 -0.74804,0.01953 -1.1,-3.6 -3.89883,-6.4 -7.29883,-8 -3.7,-1.8 -8.500001,-2.101172 -12.500001,-2.201172 -0.727145,0 -2.603896,0.522504 -4.28125,0.78125 0.611279,-2.100519 1.247768,-4.190956 1.923829,-6.267578 1.421942,-0.701748 2.971533,-1.269354 3.357421,-1.414063 1.2375,-0.45 2.642774,-0.61875 4.085941,-0.580078 z m -22.886722,4.431641 c 4.275,0.125 8.5,2.198437 11,6.148437 0.06432,0.06432 0.0941,0.118541 0.128906,0.15625 C 84.892203,63.931358 82.603773,81.116074 82.298828,98.650391 82.198828,102.55039 81.7,106.35 82,110.25 c -0.1,1.1 0.698437,6.59961 -1.101562,7.09961 h -0.199219 c -1.5,-11.3 -4.39961,-22.598438 -6.59961,-33.898438 -2.3,-11.5 -4.500781,-23 -6.800781,-34.5 -0.199639,-0.998196 -0.391125,-1.984935 -0.589844,-2.978516 2.710666,-3.655895 6.921264,-5.393372 11.089844,-5.271484 z m -21.201172,3.238281 c 2.754272,-0.04621 5.623643,0.764634 8.28125,2.564453 1.110747,5.123443 2.266175,10.236253 3.419922,15.345703 2.7,12.3 5.201172,24.7 7.701172,37 1.2,6.000001 2.698828,12.000001 3.298828,18.000001 0.1,0.5 0,1.20039 -0.5,1.40039 -0.9,0.3 -3.099609,-4.29961 -3.599609,-5.09961 -1.7,-2.7 -3.199219,-5.6 -4.699219,-8.5 C 66.4,96.550388 62.498437,88.35 58.398438,80.25 c -3.8,-7.6 -7.99961,-14.999609 -12.59961,-22.099609 -0.678572,-1.058983 -1.408612,-2.121246 -2.158203,-3.1875 1.470453,-6.745371 6.933004,-10.922375 12.957031,-11.023438 z m 39.201172,1.611328 c 2.3,0 4.600392,0.699219 6.900392,0.699219 5.55782,0.833673 9.8258,4.41608 12.41211,9.310547 -0.10305,0.164303 -0.21012,0.325284 -0.3125,0.490234 -3.6,5.6 -6.79922,11.300391 -10.19922,16.900391 -4.700002,7.8 -9.100001,15.799609 -13.000001,24.099609 -1.9,4.199999 -3.80039,8.399219 -5.40039,12.699219 -0.7,2.4 -1.09961,5.80078 -2.59961,7.80078 -0.5,-0.2 -0.601171,-0.59961 -0.701171,-1.09961 -0.900001,-6.5 3.9e-4,-13.60156 0.40039,-20.101561 0.4,-7.1 1.19961,-14.298437 2.09961,-21.398437 1.299999,-9.4 2.800781,-19.100781 5.300781,-28.300781 0.0076,-0.02741 0.01579,-0.05463 0.02344,-0.08203 1.639946,-0.568146 3.207613,-1.095434 5.076172,-1.017578 z M 36,50.150391 c 0.641933,0 1.197365,0.140354 1.744141,0.273437 0.777292,1.126106 1.587289,2.246157 2.40039,3.365234 -6.98991,-0.567081 -11.067038,11.967084 -11.345703,17.261719 -0.01447,0.209879 -0.03568,0.358704 -0.05469,0.529297 C 28.26191,71.137579 27.775675,70.698797 27.298828,70.25 26.984193,69.961155 26.669033,69.645039 26.353516,69.345703 26.04988,67.578566 26.170111,64.85541 26.099609,64.150391 c -0.2,-3.1 0.299219,-6.100391 1.699219,-8.900391 1,-2 2.800391,-3.600391 4.900391,-4.400391 1,-0.4 2.200781,-0.599218 3.300781,-0.699218 z m 84.79883,1.90039 h 2.59961 c 2.8,0 6.5,3.500391 8.5,5.400391 2.8,2.7 4.10078,6.799219 3.80078,10.699219 -0.1,2 -0.8,3.6 -1.5,5.5 -0.34816,1.044477 -0.53791,1.169904 -0.15625,1.384765 -0.41433,0.239202 -0.82791,0.472042 -1.24414,0.714844 -0.58066,0.353104 -1.15509,0.72123 -1.73438,1.078125 -0.37495,-0.01664 -0.63986,0.0396 -0.66601,0.222656 1,-5.1 -0.0996,-10.6 -2.59961,-15 -1.2,-2.1 -3.10039,-4.800781 -5.40039,-5.800781 -1.16482,-0.490451 -2.74259,-1.353011 -4.27344,-1.880859 0.0249,-0.03962 0.0493,-0.07952 0.0742,-0.119141 0.39403,-0.633871 0.86579,-1.401115 1.32422,-2.146484 0.40182,-0.04286 0.81899,-0.05273 1.27539,-0.05273 z m -80.429689,3.648438 c 0.483682,0.04319 0.979237,0.201047 1.480468,0.443359 0.05004,0.0696 0.100416,0.13733 0.150391,0.207031 5.5,7.9 10.199219,16.300782 14.699219,24.800782 4.2,8 8.200781,16.200778 12.300781,24.300779 1.4,2.7 2.798828,5.29844 4.298828,7.89844 0.8,1.3 1.6,2.60039 2.5,3.90039 0.2,0.2 1.6,2.30039 1.5,2.40039 -2.4,-0.9 -4.7,-4.39922 -6.5,-6.19922 -2.6,-2.7 -5.099219,-5.40117 -7.699219,-8.20117 C 58.099609,99.849997 53.2,94.350781 48,89.050781 42.657366,83.543758 36.710126,78.707269 30.984375,73.607422 30.725356,70.398174 31.124251,67.371148 32.099609,64.25 c 1.05,-3.15 4.319727,-8.903516 8.269532,-8.550781 z m -31.1308598,0.02734 c 1.1167968,-0.0029 2.2226568,0.161329 3.1601568,0.423829 2.9,0.7 4.500781,4.20039 6.300781,6.40039 1.810277,2.145514 3.718893,4.238205 5.708984,6.263672 -3.038562,0.650721 -5.706335,2.736839 -6.708984,5.835938 -1.711952,4.775443 -0.334293,9.467704 1.636719,13.861328 C 13.968373,85.294192 8.6249593,81.921153 4.3984375,77.349609 1.0984375,74.049609 0.6,68.550391 1.5,64.150391 c 0.4,-2.2 1.1988281,-4.999219 2.7988281,-6.699219 1.1875,-1.25 3.0781251,-1.719727 4.9394531,-1.72461 z M 117.5,56.050781 c 4,-0.3 8.09844,4.698828 9.89844,7.798828 2.37929,4.092384 3.3035,10.17391 1.14648,14.544922 -5.93572,3.733156 -11.77369,7.675127 -17.3457,11.955078 -6.4,5 -12.400783,10.600001 -17.300782,17.000001 -2.8,3.6 -4.498829,8.70078 -7.798829,11.80078 l -0.201171,0.19922 c -0.1,0.1 -0.298438,0.10156 -0.398438,0.10156 -0.3,-0.1 -0.300781,-0.6 -0.300781,-1 0.5,-2.5 1.299609,-4.2 2.099609,-6.5 1.5,-4.3 3.19961,-8.50156 5.09961,-12.601561 3.799999,-8.3 8.200782,-16.2 12.800782,-24 3.81232,-6.444636 7.7948,-12.803562 11.78711,-19.158203 0.18973,-0.0478 0.46297,-0.115274 0.51367,-0.140625 z M 24.457031,70.140625 c 0.495379,-0.0072 1.016546,0.08494 1.556641,0.271484 0.459948,0.447656 0.915658,0.899048 1.384766,1.337891 0.354104,0.33669 0.722838,0.661904 1.080078,0.996094 -0.3647,0.7847 -1.048907,0.644297 -2.378907,1.904297 -1.3,1.2 -2.4,2.600781 -3,4.300781 -1.455049,4.365148 -0.422709,8.480644 1.128907,12.5 -0.774832,-0.468708 -1.555543,-0.933391 -2.330078,-1.400391 -0.626895,-0.374114 -1.25554,-0.757044 -1.884766,-1.132812 C 19.569938,87.444143 19.173097,84.690926 19.099609,84.25 18.699609,82.15 18.4,79.850391 18.5,77.650391 c 0.24375,-3.16875 2.532153,-7.460254 5.957031,-7.509766 z m 122.892579,0.666016 c 2.1,-0.10625 4.22461,0.24414 6.34961,1.24414 3.9,1.9 5.09961,7.19961 5.09961,11.09961 0,4.1 -2.6,8.00039 -5.5,10.90039 -3.64433,3.644328 -8.32378,5.69429 -13.16016,7.353519 0.22967,-0.33189 0.48417,-0.68915 0.66016,-0.95313 1.1,-1.600001 1.60117,-3.801561 2.20117,-5.601561 0.2,-0.6 0.3,-1.198437 0.5,-1.898437 0.6,-1.8 0.99961,-3.601563 1.09961,-5.601563 0.27807,-5.190733 -3.05612,-11.487494 -8.40234,-12.541015 3.53117,-2.070864 7.2982,-3.806952 11.15234,-4.001953 z M 30.533203,74.642578 C 35.716997,79.376658 41.094287,83.962312 46,88.951172 c 5.3,5.5 10.298828,11.299998 15.298828,16.999998 2.6,2.9 5.100781,5.79961 7.800781,8.59961 0.7,0.8 6.59961,5.9 5.59961,6.5 -0.2,0.1 -0.39961,0.0996 -0.59961,0.0996 -2.4,-0.1 -4.701171,-2.60078 -6.701171,-3.80078 -2.8,-1.7 -5.598829,-3.49922 -8.298829,-5.19922 C 53.499609,108.65039 48.2,105.05078 42.5,102.05078 37.345735,99.326382 32.308254,96.321963 27.291016,93.294922 24.704506,87.44523 21.41998,77.019039 30.298828,74.75 c 0.08404,-0.02101 0.161021,-0.06271 0.234375,-0.107422 z m 104.494137,0.867188 c 2.52596,1.239534 4.29957,1.48867 5.8711,4.140625 1.6,2.5 2.30117,5.800781 2.20117,8.800781 0,1.1 -0.20039,2.199219 -0.40039,3.199219 -0.5,2.1 -1.00039,4.199218 -1.90039,6.199218 -0.62381,1.559527 -1.4947,2.995311 -2.65235,4.216801 -0.87898,0.28415 -1.75446,0.568 -2.63086,0.84375 -0.003,-0.0217 -0.0156,-0.0376 -0.0156,-0.0606 0,-0.2 0.0992,-0.29844 0.19922,-0.39844 2.5,-3.700001 3.19961,-7.300389 3.09961,-11.900389 -0.1,-3.3 -0.59922,-6.800781 -2.19922,-9.800781 -0.5,-0.9 -1.30117,-2.3 -2.20117,-3 -0.18268,-0.137012 -1.02417,-0.433185 -1.88086,-0.65625 0.81853,-0.529237 1.65824,-1.061809 2.50976,-1.583984 z m -2.1289,2.839843 c 1.2,0 2.00156,0.6 2.60156,1.5 1.3,1.7 1.7,4.101172 2,6.201172 0.2,1.8 0.19922,3.7 0.19922,5.5 0,2.6 -0.60039,4.899219 -1.90039,7.199219 -0.82912,1.49242 -2.26307,3.19349 -2.84766,4.98438 -0.72214,0.23503 -1.44571,0.46901 -2.15234,0.71679 -8.5,3 -16.99922,6.09844 -25.19922,9.89844 -4,1.9 -8.000391,3.9 -11.900391,6 -1.4,0.8 -6.900391,3.60117 -5.400391,-0.29883 0.8,-2.2 2.001172,-4.19961 3.201172,-6.09961 1.9,-3.2 4.098437,-6.10039 6.398438,-8.90039 C 102.09844,99.950778 106.99922,95.35 112.19922,91.25 c 5.6,-4.5 11.49961,-8.500391 17.59961,-12.400391 0.0869,-0.05541 0.18018,-0.117806 0.26758,-0.173828 1.19691,-0.171486 2.55423,-0.326172 2.83203,-0.326172 z M 48.099609,109.15039 c 9.1,6 18.800391,11.80078 28.900391,15.80078 -8.2,0.9 -16.401172,2.09922 -24.201172,4.19922 -2.4,0.6 -6.198828,2.19922 -6.798828,-1.30078 -0.4,-2.4 -0.901562,-4.69961 -1.101562,-7.09961 -0.5,-4.4 1.001171,-7.99961 3.201171,-11.59961 z m 64.500001,6.19922 c 5.5,2.3 6.99961,7.10117 3.59961,12.20117 -1.6,2.4 -3.70039,6.89883 -7.40039,4.79883 -1.8,-1 -3.6,-2.09961 -5.5,-3.09961 -3.800003,-1.9 -7.99883,-3.5 -12.29883,-4 7.2,-3.2 14.39961,-6.60039 21.59961,-9.90039 z"></path>
</svg>