<svg width="456" height="359" viewBox="0 0 456 359" fill="none" xmlns="http://www.w3.org/2000/svg">
  <path
    d="M378.107 159.075C420.85 159.075 455.5 124.425 455.5 81.6823C455.5 38.9393 420.85 4.28929 378.107 4.28929C335.364 4.28929 300.714 38.9393 300.714 81.6823C300.714 124.425 335.364 159.075 378.107 159.075Z"
    fill="#EE3732" />
  <path fillRule="evenodd" clipRule="evenodd"
    d="M287.846 81.6823C287.846 68.0686 290.83 55.2008 296.238 43.6385C264.908 16.5043 223.974 0 179.216 0C80.1904 0 0 80.1904 0 179.216C0 278.149 80.1904 358.432 179.216 358.432C278.149 358.432 358.432 278.242 358.432 179.216C358.432 176.046 358.339 172.876 358.153 169.705C317.964 160.567 287.846 124.668 287.846 81.6823Z"
    fill="#EE3732" />
  <path opacity="0.3"
    d="M355.261 212.691L236.841 94.2702L229.474 86.9039L218.565 97.8135L212.224 91.4729L207.935 95.7621L184.717 72.5442L178.563 78.6984L171.756 71.8915L164.11 79.5376L156.464 71.8915L146.766 81.589L141.825 76.647L124.481 93.9905L113.478 82.9876L105.273 91.1932L101.543 87.4634L77.2992 111.707L81.029 115.437L77.0195 119.446L84.852 127.279L77.2992 134.832L85.4115 142.944L76.833 151.522L86.2507 160.94L76.833 170.358L87.9291 181.454L77.3925 191.991L88.3953 202.993L76.9263 214.463L87.7426 225.279L77.3925 235.629L86.4372 244.674L78.8844 252.227L184.904 358.246C269.849 355.635 339.876 293.814 355.261 212.691Z"
    fill="black" />
  <path opacity="0.3"
    d="M455.5 81.6823C455.5 74.1294 454.381 66.9496 452.423 60.0495L426.314 33.941L330.272 129.983L356.194 155.812C363.188 157.863 370.461 158.982 378.107 158.982C420.906 159.075 455.5 124.388 455.5 81.6823Z"
    fill="black" />
  <path
    d="M285.888 279.64C285.888 286.168 278.895 291.203 272.274 291.11C258.94 291.203 245.513 291.203 232.179 291.203C209.241 291.203 186.209 291.203 163.271 291.203C162.805 291.203 162.432 291.203 161.966 291.203C160.287 291.11 159.262 290.177 159.262 288.778C159.262 287.38 160.381 286.447 162.059 286.447C164.297 286.447 234.603 286.447 267.612 286.447C268.731 286.447 269.943 286.354 271.062 286.168C277.589 284.955 281.132 280.48 281.132 273.207C281.226 257.728 281.132 242.249 281.132 226.771C281.132 222.761 281.132 218.752 281.132 214.742C281.132 213.437 281.226 212.131 282.718 211.572C284.116 211.012 284.955 211.852 285.795 212.784C285.888 235.07 285.888 257.355 285.888 279.64Z"
    fill="white" />
  <path
    d="M252.972 187.981C260.805 187.981 267.052 193.855 267.145 201.595C267.332 214.369 267.239 227.237 267.239 240.012C267.239 246.259 267.332 252.506 267.145 258.754C266.866 266.586 260.898 272.367 253.065 272.461C238.985 272.554 224.999 272.461 210.919 272.461C190.871 272.461 170.73 272.461 150.683 272.461C143.037 272.461 137.442 267.985 135.857 260.432C135.764 259.966 135.764 259.406 135.764 258.94C135.764 240.105 135.764 221.176 135.764 202.341C135.764 193.669 142.757 187.981 150.123 187.981C157.49 187.888 251.48 187.981 252.972 187.981ZM218.005 197.585C229.102 205.977 234.323 216.98 234.323 230.407C234.23 243.741 229.102 254.837 218.099 263.229C218.658 263.323 218.938 263.416 219.218 263.416C225.465 263.416 231.712 263.416 237.96 263.323C238.333 263.323 238.985 262.577 239.079 262.204C240.198 252.227 246.632 245.513 256.609 244.208C257.634 244.114 257.914 243.648 257.914 242.716C257.914 234.324 257.914 225.838 257.914 217.446C257.914 216.514 257.541 216.141 256.609 216.048C247.098 215.208 240.291 208.495 239.172 198.984C239.079 197.772 238.612 197.399 237.494 197.399C231.526 197.399 225.651 197.399 219.684 197.399C219.218 197.399 218.751 197.492 218.005 197.585ZM184.904 197.492C183.971 197.399 183.505 197.399 183.039 197.399C177.351 197.399 171.663 197.399 166.068 197.399C164.576 197.399 164.017 197.772 163.83 199.357C162.898 208.402 155.811 215.302 146.673 216.048C145.554 216.141 145.181 216.514 145.181 217.633C145.181 225.932 145.181 234.23 145.181 242.529C145.181 243.741 145.648 244.208 146.86 244.301C150.03 244.581 152.921 245.606 155.532 247.471C160.473 250.921 163.271 255.77 163.924 261.738C164.017 263.136 164.576 263.602 165.882 263.509C166.628 263.416 167.467 263.509 168.306 263.509C173.341 263.509 178.376 263.509 183.412 263.509C183.785 263.509 184.158 263.323 184.531 263.229C184.344 262.95 184.064 262.577 183.785 262.297C182.945 261.551 182.013 260.898 181.174 260.152C173.714 253.159 169.705 244.394 168.959 234.417C167.747 219.964 172.316 207.842 183.878 198.704C184.064 198.331 184.344 198.051 184.904 197.492ZM201.501 258.288C202.34 258.288 203.086 258.288 203.925 258.288C205.511 258.288 206.163 257.635 206.163 256.05C206.163 254.744 206.257 253.532 206.163 252.227C206.07 251.108 206.536 250.641 207.562 250.175C209.334 249.336 211.105 248.497 212.504 247.285C217.446 243.182 218.285 234.51 211.945 230.314C209.707 228.822 207.096 227.797 204.671 226.584C202.713 225.559 200.475 224.719 198.704 223.414C196.373 221.736 196.839 218.752 199.543 217.726C200.848 217.167 202.434 216.98 203.832 217.073C206.63 217.26 208.961 218.752 211.199 220.15C212.597 220.99 213.343 220.71 213.903 219.218C214.369 217.726 214.742 216.234 215.208 214.742C215.674 213.437 215.301 212.504 214.089 212.038C211.945 211.292 209.8 210.453 207.562 209.894C206.536 209.614 206.07 209.148 206.163 208.122C206.257 206.816 206.163 205.604 206.163 204.299C206.163 202.993 205.417 202.247 204.112 202.247C202.34 202.247 200.662 202.247 198.89 202.247C197.398 202.247 196.839 202.9 196.839 204.392C196.839 205.791 196.746 207.096 196.839 208.495C196.932 209.614 196.373 210.173 195.44 210.64C193.389 211.852 191.244 213.064 189.566 214.649C187.141 216.887 186.209 219.964 186.862 223.228C187.514 226.771 190.032 228.915 193.016 230.501C195.44 231.806 198.051 232.645 200.475 233.857C201.967 234.603 203.553 235.443 204.671 236.655C206.816 238.799 205.884 241.97 202.993 242.622C201.315 242.995 199.357 243.089 197.678 242.809C195.627 242.436 193.669 241.503 191.71 240.664C190.125 240.012 189.473 240.198 189.006 241.876C188.54 243.368 188.167 244.86 187.701 246.352C187.235 247.658 187.701 248.59 188.913 249.056C190.964 249.802 193.109 250.548 195.254 250.921C196.466 251.201 196.932 251.574 196.839 252.786C196.746 253.998 196.839 255.21 196.839 256.516C196.932 257.728 197.585 258.474 198.89 258.474C199.823 258.288 200.662 258.288 201.501 258.288Z"
    fill="white" />
  <path
    d="M72.5442 103.781C72.5442 98.373 73.8496 93.3378 77.2997 89.0485C81.4957 83.8268 86.9039 80.9363 93.6175 80.6565C98.6527 80.47 103.781 80.5633 108.816 80.6565C112.546 80.6565 115.25 83.6404 115.53 87.3701C115.996 94.55 112.08 97.0676 106.485 96.6946C103.408 96.5081 100.331 96.6946 97.254 96.6946C92.1256 96.6946 88.6755 100.145 88.6755 105.273C88.6755 122.99 88.6755 140.799 88.6755 158.516C88.6755 183.599 88.6755 208.775 88.6755 233.857C88.6755 238.24 91.0999 241.503 95.0162 242.436C95.9486 242.622 96.9743 242.622 97.9068 242.622C108.257 242.622 118.607 242.622 128.957 242.622C130.169 242.622 130.542 242.902 130.542 244.208C130.449 248.59 130.449 252.973 130.542 257.448C130.542 258.474 130.263 258.754 129.237 258.754C117.954 258.754 106.672 258.754 95.3891 258.754C82.2417 258.754 72.7307 249.243 72.7307 236.095C72.451 213.996 72.5442 125.88 72.5442 103.781Z"
    fill="white" />
  <path
    d="M154.227 67.2293C160.288 67.2293 166.255 67.2293 172.316 67.2293C181.92 67.2293 189.007 74.3159 189.007 83.9201C189.007 88.3026 189.193 92.6851 188.634 96.9743C187.515 104.434 180.895 110.029 173.249 110.122C160.661 110.215 148.072 110.215 135.391 110.122C126.533 110.029 119.913 103.501 119.446 94.2702C119.26 90.2607 119.26 86.158 119.54 82.1484C120.006 73.9429 126.813 67.4158 135.018 67.2293C141.359 67.1361 147.793 67.2293 154.227 67.2293ZM154.133 94.177C159.355 94.177 164.577 94.177 169.705 94.177C171.943 94.177 172.969 93.2445 172.969 91.0067C173.062 89.5148 173.062 88.0229 172.969 86.5309C172.876 84.1998 171.943 83.3606 169.705 83.3606C166.255 83.3606 162.805 83.3606 159.262 83.3606C152.362 83.3606 145.462 83.3606 138.562 83.3606C136.137 83.3606 135.298 84.2931 135.205 86.7174C135.205 88.1161 135.205 89.4215 135.205 90.8202C135.205 93.3378 136.137 94.2702 138.655 94.2702C143.876 94.177 149.005 94.177 154.133 94.177Z"
    fill="white" />
  <path
    d="M235.909 141.172C235.909 154.506 235.909 167.747 235.909 181.081C235.909 182.293 235.536 182.666 234.324 182.666C230.128 182.573 226.025 182.573 221.829 182.666C220.43 182.666 219.964 182.293 219.964 180.894C220.057 155.812 219.964 130.729 219.964 105.646C219.964 101.17 217.539 97.9067 213.53 96.9743C212.784 96.7878 212.038 96.7878 211.385 96.7878C207.749 96.7878 204.206 96.7878 200.569 96.7878C196.093 96.7878 193.296 93.8972 193.296 89.5147C193.296 88.5823 193.296 87.7431 193.389 86.8106C193.669 83.6403 196.28 80.9362 199.45 80.843C205.324 80.7497 211.199 80.47 216.98 81.0294C227.61 82.0551 235.815 91.3796 235.909 102.009C235.909 114.97 235.815 128.025 235.909 141.172Z"
    fill="white" />
  <path
    d="M125.6 194.042C125.507 197.772 123.082 200.196 119.353 200.476C118.42 200.569 117.581 200.569 116.648 200.476C113.012 200.196 110.588 197.679 110.494 194.042C110.028 180.149 109.562 166.162 109.096 152.268C109.002 148.259 108.816 144.249 108.723 140.147C108.723 134.925 112.173 131.475 117.394 131.475C118.886 131.475 120.378 131.568 121.777 131.941C125.134 132.967 127.372 136.137 127.278 139.867C127.092 147.14 126.812 154.413 126.626 161.686C126.626 163.458 125.88 184.997 125.6 194.042Z"
    fill="white" />
  <path
    d="M208.122 281.785C189.939 281.785 171.85 281.785 153.667 281.785C153.108 281.785 152.548 281.785 151.989 281.692C150.683 281.505 149.938 280.76 149.938 279.361C149.938 278.055 150.683 277.309 151.989 277.03C152.548 276.936 153.201 276.936 153.761 276.936C188.168 276.936 222.482 276.936 256.889 276.936C258.754 276.936 260.712 276.843 262.577 276.377C267.799 275.258 271.156 271.435 271.529 265.84C271.808 260.898 271.808 255.863 271.808 250.828C271.808 235.816 271.808 220.896 271.808 205.884C271.808 205.325 271.808 204.765 271.808 204.206C271.901 202.807 272.927 201.875 274.233 201.875C275.445 201.875 276.377 202.807 276.47 204.206C276.47 204.765 276.47 205.231 276.47 205.791C276.47 226.118 276.47 246.445 276.47 266.866C276.47 275.631 270.503 281.599 261.645 281.599C243.835 281.785 226.025 281.785 208.122 281.785Z"
    fill="white" />
  <path
    d="M193.948 167.747C197.025 167.747 198.984 169.146 199.356 172.223C199.636 174.088 199.636 176.139 199.356 178.097C198.89 180.988 196.932 182.386 194.042 182.386C178.19 182.386 162.338 182.386 146.394 182.386C143.689 182.386 141.731 181.081 141.265 178.47C140.892 176.232 140.892 173.901 141.265 171.663C141.731 169.052 143.689 167.84 146.3 167.84C154.319 167.747 186.116 167.747 193.948 167.747Z"
    fill="white" />
  <path
    d="M170.264 146.114C162.432 146.114 154.692 146.114 146.86 146.114C143.41 146.114 141.452 144.622 141.079 141.172C140.892 139.401 140.892 137.443 141.265 135.671C141.825 132.78 143.689 131.475 146.58 131.475C162.338 131.475 178.097 131.475 193.855 131.475C197.025 131.475 198.983 132.967 199.45 136.137C199.729 138.002 199.636 139.96 199.356 141.825C198.89 144.716 196.932 146.114 194.042 146.114C186.116 146.114 178.19 146.114 170.264 146.114Z"
    fill="white" />
  <path
    d="M118.047 222.482C112.825 222.482 110.494 220.151 110.494 214.929C110.494 209.8 112.919 207.376 117.954 207.376C123.175 207.376 125.507 209.707 125.507 214.929C125.6 220.057 123.175 222.482 118.047 222.482Z"
    fill="white" />
  <path
    d="M426.128 106.485L401.325 81.6822L426.035 56.8791C432.469 50.4452 432.469 40.0018 426.035 33.6612C419.601 27.2273 409.251 27.2273 402.817 33.6612L378.107 58.371L353.397 33.568C346.963 27.1341 336.613 27.1341 330.179 33.568C323.746 40.0018 323.746 50.4452 330.179 56.8791L354.982 81.6822L330.086 106.485C323.652 112.919 323.652 123.363 330.086 129.703C336.52 136.137 346.87 136.137 353.304 129.703L378.107 104.9L402.91 129.703C409.344 136.137 419.694 136.137 426.128 129.703C432.562 123.363 432.562 112.919 426.128 106.485Z"
    fill="white" />
</svg>