<svg width="489" height="385" viewBox="0 0 489 385" fill="none" xmlns="http://www.w3.org/2000/svg">
    <path
        d="M405.5 170.6C451.34 170.6 488.5 133.44 488.5 87.6C488.5 41.7604 451.34 4.6 405.5 4.6C359.66 4.6 322.5 41.7604 322.5 87.6C322.5 133.44 359.66 170.6 405.5 170.6Z"
        fill="#179447" />
    <path fillRule="evenodd" clipRule="evenodd"
        d="M308.7 87.6C308.7 73 311.9 59.2 317.7 46.8C284.1 17.7 240.2 0 192.2 0C86 0 0 86 0 192.2C0 298.3 86 384.4 192.2 384.4C298.3 384.4 384.4 298.4 384.4 192.2C384.4 188.8 384.3 185.4 384.1 182C341 172.2 308.7 133.7 308.7 87.6Z"
        fill="#179447" />
    <path opacity="0.3"
        d="M381 228.1L254 101.1L246.1 93.2L234.4 104.9L227.6 98.1L223 102.7L198.1 77.8L191.5 84.4L184.2 77.1L176 85.3L167.8 77.1L157.4 87.5L152.1 82.2L133.5 100.8L121.7 89L112.9 97.8L108.9 93.8L82.9004 119.8L86.9004 123.8L82.6004 128.1L91.0004 136.5L82.9004 144.6L91.6004 153.3L82.4004 162.5L92.5004 172.6L82.4004 182.7L94.3004 194.6L83.0004 205.9L94.8004 217.7L82.5004 230L94.1004 241.6L83.0004 252.7L92.7004 262.4L84.6004 270.5L198.3 384.2C289.4 381.4 364.5 315.1 381 228.1Z"
        fill="black" />
    <path opacity="0.3"
        d="M488.5 87.6C488.5 77.9 486.8 68.6 483.7 59.9L464.6 40.8L370.1 135.3L405.4 170.6H405.5C451.4 170.6 488.5 133.4 488.5 87.6Z"
        fill="black" />
    <path
        d="M464.2 40.3C457.9 34 447.6 34 441.3 40.3L381.1 100.5L354.5 73.9C348.2 67.6 337.9 67.6 331.6 73.9C325.3 80.2 325.3 90.5 331.6 96.8L368.7 134C369 134.3 369.3 134.6 369.6 134.9C375.9 141.2 386.2 141.2 392.5 134.9L464.2 63.2C470.5 56.9 470.5 46.6 464.2 40.3Z"
        fill="white" />
    <path
        d="M306.6 299.9C306.6 306.9 299.1 312.3 292 312.2C277.7 312.3 263.3 312.3 249 312.3C224.4 312.3 199.7 312.3 175.1 312.3C174.6 312.3 174.2 312.3 173.7 312.3C171.9 312.2 170.8 311.2 170.8 309.7C170.8 308.2 172 307.2 173.8 307.2C176.2 307.2 251.6 307.2 287 307.2C288.2 307.2 289.5 307.1 290.7 306.9C297.7 305.6 301.5 300.8 301.5 293C301.6 276.4 301.5 259.8 301.5 243.2C301.5 238.9 301.5 234.6 301.5 230.3C301.5 228.9 301.6 227.5 303.2 226.9C304.7 226.3 305.6 227.2 306.5 228.2C306.6 252.1 306.6 276 306.6 299.9Z"
        fill="white" />
    <path
        d="M271.301 201.6C279.701 201.6 286.401 207.9 286.501 216.2C286.701 229.9 286.601 243.7 286.601 257.4C286.601 264.1 286.701 270.8 286.501 277.5C286.201 285.9 279.801 292.1 271.401 292.2C256.301 292.3 241.301 292.2 226.201 292.2C204.701 292.2 183.101 292.2 161.601 292.2C153.401 292.2 147.401 287.4 145.701 279.3C145.601 278.8 145.601 278.2 145.601 277.7C145.601 257.5 145.601 237.2 145.601 217C145.601 207.7 153.101 201.6 161.001 201.6C168.901 201.5 269.701 201.6 271.301 201.6ZM233.801 211.9C245.701 220.9 251.301 232.7 251.301 247.1C251.201 261.4 245.701 273.3 233.901 282.3C234.501 282.4 234.801 282.5 235.101 282.5C241.801 282.5 248.501 282.5 255.201 282.4C255.601 282.4 256.301 281.6 256.401 281.2C257.601 270.5 264.501 263.3 275.201 261.9C276.301 261.8 276.601 261.3 276.601 260.3C276.601 251.3 276.601 242.2 276.601 233.2C276.601 232.2 276.201 231.8 275.201 231.7C265.001 230.8 257.701 223.6 256.501 213.4C256.401 212.1 255.901 211.7 254.701 211.7C248.301 211.7 242.001 211.7 235.601 211.7C235.101 211.7 234.601 211.8 233.801 211.9ZM198.301 211.8C197.301 211.7 196.801 211.7 196.301 211.7C190.201 211.7 184.101 211.7 178.101 211.7C176.501 211.7 175.901 212.1 175.701 213.8C174.701 223.5 167.101 230.9 157.301 231.7C156.101 231.8 155.701 232.2 155.701 233.4C155.701 242.3 155.701 251.2 155.701 260.1C155.701 261.4 156.201 261.9 157.501 262C160.901 262.3 164.001 263.4 166.801 265.4C172.101 269.1 175.101 274.3 175.801 280.7C175.901 282.2 176.501 282.7 177.901 282.6C178.701 282.5 179.601 282.6 180.501 282.6C185.901 282.6 191.301 282.6 196.701 282.6C197.101 282.6 197.501 282.4 197.901 282.3C197.701 282 197.401 281.6 197.101 281.3C196.201 280.5 195.201 279.8 194.301 279C186.301 271.5 182.001 262.1 181.201 251.4C179.901 235.9 184.801 222.9 197.201 213.1C197.401 212.7 197.701 212.4 198.301 211.8ZM216.101 277C217.001 277 217.801 277 218.701 277C220.401 277 221.101 276.3 221.101 274.6C221.101 273.2 221.201 271.9 221.101 270.5C221.001 269.3 221.501 268.8 222.601 268.3C224.501 267.4 226.401 266.5 227.901 265.2C233.201 260.8 234.101 251.5 227.301 247C224.901 245.4 222.101 244.3 219.501 243C217.401 241.9 215.001 241 213.101 239.6C210.601 237.8 211.101 234.6 214.001 233.5C215.401 232.9 217.101 232.7 218.601 232.8C221.601 233 224.101 234.6 226.501 236.1C228.001 237 228.801 236.7 229.401 235.1C229.901 233.5 230.301 231.9 230.801 230.3C231.301 228.9 230.901 227.9 229.601 227.4C227.301 226.6 225.001 225.7 222.601 225.1C221.501 224.8 221.001 224.3 221.101 223.2C221.201 221.8 221.101 220.5 221.101 219.1C221.101 217.7 220.301 216.9 218.901 216.9C217.001 216.9 215.201 216.9 213.301 216.9C211.701 216.9 211.101 217.6 211.101 219.2C211.101 220.7 211.001 222.1 211.101 223.6C211.201 224.8 210.601 225.4 209.601 225.9C207.401 227.2 205.101 228.5 203.301 230.2C200.701 232.6 199.701 235.9 200.401 239.4C201.101 243.2 203.801 245.5 207.001 247.2C209.601 248.6 212.401 249.5 215.001 250.8C216.601 251.6 218.301 252.5 219.501 253.8C221.801 256.1 220.801 259.5 217.701 260.2C215.901 260.6 213.801 260.7 212.001 260.4C209.801 260 207.701 259 205.601 258.1C203.901 257.4 203.201 257.6 202.701 259.4C202.201 261 201.801 262.6 201.301 264.2C200.801 265.6 201.301 266.6 202.601 267.1C204.801 267.9 207.101 268.7 209.401 269.1C210.701 269.4 211.201 269.8 211.101 271.1C211.001 272.4 211.101 273.7 211.101 275.1C211.201 276.4 211.901 277.2 213.301 277.2C214.301 277 215.201 277 216.101 277Z"
        fill="white" />
    <path
        d="M77.8002 111.3C77.8002 105.5 79.2002 100.1 82.9002 95.5C87.4002 89.9 93.2002 86.8 100.4 86.5C105.8 86.3 111.3 86.4 116.7 86.5C120.7 86.5 123.6 89.7 123.9 93.7C124.4 101.4 120.2 104.1 114.2 103.7C110.9 103.5 107.6 103.7 104.3 103.7C98.8002 103.7 95.1002 107.4 95.1002 112.9C95.1002 131.9 95.1002 151 95.1002 170C95.1002 196.9 95.1002 223.9 95.1002 250.8C95.1002 255.5 97.7002 259 101.9 260C102.9 260.2 104 260.2 105 260.2C116.1 260.2 127.2 260.2 138.3 260.2C139.6 260.2 140 260.5 140 261.9C139.9 266.6 139.9 271.3 140 276.1C140 277.2 139.7 277.5 138.6 277.5C126.5 277.5 114.4 277.5 102.3 277.5C88.2002 277.5 78.0002 267.3 78.0002 253.2C77.7002 229.5 77.8002 135 77.8002 111.3Z"
        fill="white" />
    <path
        d="M165.4 72.1C171.9 72.1 178.3 72.1 184.8 72.1C195.1 72.1 202.7 79.7 202.7 90C202.7 94.7 202.9 99.4 202.3 104C201.1 112 194 118 185.8 118.1C172.3 118.2 158.8 118.2 145.2 118.1C135.7 118 128.6 111 128.1 101.1C127.9 96.8 127.9 92.4 128.2 88.1C128.7 79.3 136 72.3 144.8 72.1C151.6 72 158.5 72.1 165.4 72.1ZM165.3 101C170.9 101 176.5 101 182 101C184.4 101 185.5 100 185.5 97.6C185.6 96 185.6 94.4 185.5 92.8C185.4 90.3 184.4 89.4 182 89.4C178.3 89.4 174.6 89.4 170.8 89.4C163.4 89.4 156 89.4 148.6 89.4C146 89.4 145.1 90.4 145 93C145 94.5 145 95.9 145 97.4C145 100.1 146 101.1 148.7 101.1C154.3 101 159.8 101 165.3 101Z"
        fill="white" />
    <path
        d="M253 151.4C253 165.7 253 179.9 253 194.2C253 195.5 252.6 195.9 251.3 195.9C246.8 195.8 242.4 195.8 237.9 195.9C236.4 195.9 235.9 195.5 235.9 194C236 167.1 235.9 140.2 235.9 113.3C235.9 108.5 233.3 105 229 104C228.2 103.8 227.4 103.8 226.7 103.8C222.8 103.8 219 103.8 215.1 103.8C210.3 103.8 207.3 100.7 207.3 96C207.3 95 207.3 94.1 207.4 93.1C207.7 89.7 210.5 86.8 213.9 86.7C220.2 86.6 226.5 86.3 232.7 86.9C244.1 88 252.9 98 253 109.4C253 123.3 252.9 137.3 253 151.4Z"
        fill="white" />
    <path
        d="M134.701 208.1C134.601 212.1 132.001 214.7 128.001 215C127.001 215.1 126.101 215.1 125.101 215C121.201 214.7 118.601 212 118.501 208.1C118.001 193.2 117.501 178.2 117.001 163.3C116.901 159 116.701 154.7 116.601 150.3C116.601 144.7 120.301 141 125.901 141C127.501 141 129.101 141.1 130.601 141.5C134.201 142.6 136.601 146 136.501 150C136.301 157.8 136.001 165.6 135.801 173.4C135.801 175.3 135.001 198.4 134.701 208.1Z"
        fill="white" />
    <path
        d="M223.2 302.2C203.7 302.2 184.3 302.2 164.8 302.2C164.2 302.2 163.6 302.2 163 302.1C161.6 301.9 160.8 301.1 160.8 299.6C160.8 298.2 161.6 297.4 163 297.1C163.6 297 164.3 297 164.9 297C201.8 297 238.6 297 275.5 297C277.5 297 279.6 296.9 281.6 296.4C287.2 295.2 290.8 291.1 291.2 285.1C291.5 279.8 291.5 274.4 291.5 269C291.5 252.9 291.5 236.9 291.5 220.8C291.5 220.2 291.5 219.6 291.5 219C291.6 217.5 292.7 216.5 294.1 216.5C295.4 216.5 296.4 217.5 296.5 219C296.5 219.6 296.5 220.1 296.5 220.7C296.5 242.5 296.5 264.3 296.5 286.2C296.5 295.6 290.1 302 280.6 302C261.5 302.2 242.4 302.2 223.2 302.2Z"
        fill="white" />
    <path
        d="M208 179.9C211.3 179.9 213.4 181.4 213.8 184.7C214.1 186.7 214.1 188.9 213.8 191C213.3 194.1 211.2 195.6 208.1 195.6C191.1 195.6 174.1 195.6 157 195.6C154.1 195.6 152 194.2 151.5 191.4C151.1 189 151.1 186.5 151.5 184.1C152 181.3 154.1 180 156.9 180C165.5 179.9 199.6 179.9 208 179.9Z"
        fill="white" />
    <path
        d="M182.6 156.7C174.2 156.7 165.9 156.7 157.5 156.7C153.8 156.7 151.7 155.1 151.3 151.4C151.1 149.5 151.1 147.4 151.5 145.5C152.1 142.4 154.1 141 157.2 141C174.1 141 191 141 207.9 141C211.3 141 213.4 142.6 213.9 146C214.2 148 214.1 150.1 213.8 152.1C213.3 155.2 211.2 156.7 208.1 156.7C199.6 156.7 191.1 156.7 182.6 156.7Z"
        fill="white" />
    <path
        d="M126.6 238.6C121 238.6 118.5 236.1 118.5 230.5C118.5 225 121.1 222.4 126.5 222.4C132.1 222.4 134.6 224.9 134.6 230.5C134.7 236 132.1 238.6 126.6 238.6Z"
        fill="white" />
</svg>