
  <svg xmlns="http://www.w3.org/2000/svg" width="328.5" height="33" viewBox="0 0 328.5 33">
  <g id="Component_34_1" data-name="Component 34 – 1" transform="translate(0 0.5)">
    <g id="Group_11386" data-name="Group 11386" transform="translate(-816 -333)">
      <g id="Group_11298" data-name="Group 11298" transform="translate(770 -400)">
        <g id="mastercard-light-large" transform="translate(158 733)">
          <rect id="card_bg" width="48" height="32" rx="4" fill="#0873b9"/>
        </g>
        <g id="knet" transform="translate(160 734)">
          <g id="_0873b9ff" data-name="#0873b9ff">
            <path id="Path_1" data-name="Path 1" d="M0,0H44V7.483q-22-.015-44,0V0M4.862,1.108c-.406.8-.814,1.592-1.181,2.406.466.553.923,1.115,1.384,1.674.4.018.8.016,1.206.015,4.334-.012,8.668.018,13-.015.015-.958.009-1.918,0-2.876a8.705,8.705,0,0,0-1.123.005c-.025.355-.042.708-.07,1.063-.181.01-.364.016-.544.021,0-.371,0-.741-.03-1.111-.415,0-.828,0-1.242,0a8.5,8.5,0,0,0-.019,1.159,7.69,7.69,0,0,1-.847.037c-3.3-.018-6.6.02-9.9-.02.311-.793.721-1.547,1-2.353C5.954,1.1,5.408,1.1,4.862,1.108m29.953-.085c0,.444-.138.953.193,1.324.2.24.349.66.735.6,1.125,0,2.251,0,3.376,0,.093.218.183.436.263.659-1.286,0-2.573,0-3.859,0-.163-.016-.373.037-.476-.124-.381-.416-.7-.883-1.091-1.288-.854,0-1.707,0-2.561,0,0,.995.016,1.99-.007,2.985-1.4.011-2.807.03-4.21-.009a8.431,8.431,0,0,1,.014-1.49c1.2-.012,2.394.013,3.589-.013,0-.493.007-.985,0-1.478-1.813.011-3.627,0-5.439,0-.01,1.384,0,2.768,0,4.152,2.544.033,5.091.024,7.635,0,.009-.736-.02-1.474.021-2.21.4.176.747.537,1.214.518,1.837,0,3.674,0,5.51,0,.187-.009.419.027.539-.152.3-.32.6-.635.867-.98A6.876,6.876,0,0,0,40.43,2.29c-1.307-.1-2.619-.012-3.928-.055.008-.191.018-.383.028-.573,1.1-.006,2.2-.048,3.3-.093-.078-.177-.158-.355-.236-.532C38,1,36.409,1.024,34.815,1.023M7.192,1.172c-.009.173-.014.346-.015.52.395.01.79.01,1.185,0,.009-.182.013-.363.017-.545a5.91,5.91,0,0,0-1.186.023M9.157,1.16c-.007.178-.01.356-.009.534.389.006.78.008,1.169,0,0-.181.005-.362.005-.543a6.308,6.308,0,0,0-1.166.006m8.907,0c-.005.178-.01.358-.011.537.391.006.78.006,1.169,0,0-.176,0-.354,0-.531a6.006,6.006,0,0,0-1.163,0m3.07,1.7c.008.594,0,1.188.008,1.784.8.028,1.593.016,2.389.008-.01-.6.01-1.206-.056-1.805-.78,0-1.561-.024-2.341.014M33.949,5.868c-.024.185-.048.369-.071.554.395.017.791.014,1.187,0,0-.178,0-.356,0-.534-.374-.021-.747-.025-1.12-.019m1.774.013c0,.182,0,.362,0,.544.387.006.774.009,1.163.009,0-.185,0-.37.006-.554A11.212,11.212,0,0,0,35.724,5.881Z" fill="#0873b9"/>
            <path id="Path_2" data-name="Path 2" d="M0,72.6q22-.006,44,0V86.216q-22,.006-44,0V72.6m8.082,1.068c-.02,3.762.012,7.525,0,11.286a6.142,6.142,0,0,0,.831.071c2.31-.005,4.62,0,6.929,0,.32,0,.637-.045.955-.072.008-1.346-.005-2.693.007-4.038a16.72,16.72,0,0,0,.069-2.033c.547.452,1,1,1.5,1.491,1.229,1.236,2.43,2.5,3.664,3.726a4.969,4.969,0,0,0,.773.738,4.379,4.379,0,0,0,.5.017c4-.017,8,.018,12-.017a2.306,2.306,0,0,0-.394-.435c-1.175-.964-2.317-1.965-3.48-2.941-.987-.787-1.928-1.625-2.894-2.434-.089-.114-.309-.229-.206-.393.436-.334.909-.623,1.331-.977,1.036-.857,2.172-1.588,3.215-2.437a20.868,20.868,0,0,0,1.874-1.442c-3.706-.043-7.414,0-11.121-.019a2.359,2.359,0,0,0-.578.042c-1.65,1.211-3.231,2.511-4.872,3.735a8.671,8.671,0,0,1-1.267.918c-.066-1.595,0-3.193-.034-4.789C13.957,73.672,11.019,73.661,8.082,73.666Z" transform="translate(0 -64.794)" fill="#0873b9"/>
            <path id="Path_3" data-name="Path 3" d="M0,202.36q22,.014,44,0v7.586H0v-7.59m37.11.97c-.009.334-.009.668-.025,1-.384,0-.768,0-1.151.011q-.01.409-.007.82c.38.017.76.014,1.141,0,.082.766,0,1.539.046,2.306a.9.9,0,0,0,.345.7,2.222,2.222,0,0,0,1.372.293c.682-.015,1.365.025,2.047-.027q0-.435,0-.869a14.673,14.673,0,0,0-1.475-.028c-.011-.819-.009-1.638,0-2.456.512-.015,1.024-.014,1.538-.01.014-.246.023-.492.017-.738-.5-.009-1-.012-1.495,0a9.629,9.629,0,0,1-.019-1.008c-.778-.006-1.554,0-2.331,0M5.934,204.914c-.015-.142-.03-.283-.044-.423-.724-.012-1.446-.005-2.17,0,0,1.3-.033,2.611.015,3.914.757,0,1.513.005,2.269,0,.01-.774-.022-1.548.012-2.322.067-.458.561-.688.97-.8a2.888,2.888,0,0,1,1.952.129.892.892,0,0,1,.487.786c.024.723-.009,1.448.011,2.173.764.008,1.53.034,2.293-.015-.013-.821.013-1.642-.014-2.462-.03-.667-.661-1.1-1.234-1.339a5.484,5.484,0,0,0-4.548.364m14.034.365a1.533,1.533,0,0,0-.25,1.951,2.985,2.985,0,0,0,1.993,1.163,10.219,10.219,0,0,0,3.52.083,3.964,3.964,0,0,0,2.524-1.22c-.709-.04-1.42-.015-2.13-.025-.561-.045-.987.422-1.54.424a3.21,3.21,0,0,1-1.686-.247,1.043,1.043,0,0,1-.487-.711c1.987-.082,3.98.008,5.969-.044a2.108,2.108,0,0,0-1.313-1.911,7.632,7.632,0,0,0-3.694-.487A5.061,5.061,0,0,0,19.968,205.279Z" transform="translate(0 -180.617)" fill="#0873b9"/>
            <path id="Path_4" data-name="Path 4" d="M199.67,228.961a2.142,2.142,0,0,1,2.02-.8,1.539,1.539,0,0,1,1.448.85C201.982,229.025,200.822,229.048,199.67,228.961Z" transform="translate(-177.706 -203.639)" fill="#0873b9"/>
          </g>
          <g id="_fdfefdff" data-name="#fdfefdff" transform="translate(0 1.015)">
            <path id="Path_5" data-name="Path 5" d="M34.641,10.273c.546,0,1.092-.01,1.638.006-.278.806-.688,1.56-1,2.353,3.3.041,6.6,0,9.9.02a7.69,7.69,0,0,0,.847-.037,8.5,8.5,0,0,1,.019-1.159c.414,0,.827,0,1.242,0,.03.37.034.74.03,1.111.18-.005.363-.012.545-.021.029-.355.045-.708.07-1.063a8.7,8.7,0,0,1,1.123-.005c.007.958.013,1.918,0,2.876-4.334.033-8.668,0-13,.015-.4,0-.8,0-1.206-.015-.461-.559-.917-1.121-1.384-1.674C33.827,11.866,34.236,11.069,34.641,10.273Z" transform="translate(-29.779 -10.181)" fill="#fdfefd"/>
            <path id="Path_6" data-name="Path 6" d="M239.779,9.458c1.594,0,3.188-.025,4.782.014.078.177.158.355.237.532-1.1.045-2.2.087-3.3.093-.01.19-.02.381-.027.573,1.309.043,2.621-.047,3.928.055a6.882,6.882,0,0,1,.691,1.239c-.265.345-.571.66-.867.98-.12.178-.352.143-.539.152-1.836,0-3.673,0-5.51,0-.467.019-.813-.342-1.214-.518-.041.736-.012,1.474-.021,2.21-2.544.019-5.091.029-7.635,0,0-1.384-.007-2.768,0-4.152,1.813,0,3.627.006,5.44,0,.01.493.008.985,0,1.478-1.2.026-2.392,0-3.589.013a8.438,8.438,0,0,0-.014,1.49c1.4.039,2.807.019,4.21.009.023-.995,0-1.99.007-2.985.854,0,1.707,0,2.561,0,.394.405.711.872,1.091,1.288.1.16.314.107.476.124,1.286-.006,2.573,0,3.859,0-.08-.222-.169-.441-.263-.659-1.125,0-2.251,0-3.376,0-.386.055-.536-.365-.735-.6C239.642,10.411,239.783,9.9,239.779,9.458Z" transform="translate(-204.964 -9.451)" fill="#fdfefd"/>
            <path id="Path_7" data-name="Path 7" d="M65.255,10.566a5.91,5.91,0,0,1,1.186-.023c0,.182-.008.363-.017.545-.395.008-.79.008-1.185,0C65.241,10.912,65.247,10.739,65.255,10.566Z" transform="translate(-58.064 -10.409)" fill="#fdfefd"/>
            <path id="Path_8" data-name="Path 8" d="M83.177,10.549a6.308,6.308,0,0,1,1.166-.006c0,.181,0,.362-.006.543-.389.005-.78,0-1.169,0C83.167,10.9,83.171,10.727,83.177,10.549Z" transform="translate(-74.02 -10.404)" fill="#fdfefd"/>
            <path id="Path_9" data-name="Path 9" d="M164.131,10.554a6.006,6.006,0,0,1,1.163,0c0,.177,0,.355,0,.531-.389.011-.779.011-1.169,0C164.121,10.912,164.126,10.733,164.131,10.554Z" transform="translate(-146.067 -10.412)" fill="#fdfefd"/>
            <path id="Path_10" data-name="Path 10" d="M192.13,26.436c.78-.038,1.561-.013,2.341-.014.066.6.046,1.2.056,1.805-.8.009-1.594.02-2.389-.008C192.134,27.624,192.138,27.03,192.13,26.436Z" transform="translate(-170.996 -24.592)" fill="#fdfefd"/>
            <path id="Path_11" data-name="Path 11" d="M308.052,54.591c.373-.005.746,0,1.12.019,0,.178,0,.356,0,.534-.4.015-.792.018-1.187,0C308,54.96,308.027,54.776,308.052,54.591Z" transform="translate(-274.102 -49.739)" fill="#fdfefd"/>
            <path id="Path_12" data-name="Path 12" d="M324.757,54.594a11.212,11.212,0,0,1,1.171,0c0,.185,0,.37-.005.554-.388,0-.776,0-1.163-.009C324.757,54.956,324.756,54.775,324.757,54.594Z" transform="translate(-289.033 -49.729)" fill="#fdfefd"/>
            <path id="Path_13" data-name="Path 13" d="M0,69.6q22,.006,44,0v.322q-22-.011-44,0Z" transform="translate(0 -63.136)" fill="#fdfefd"/>
            <path id="Path_14" data-name="Path 14" d="M0,199.36q22,.011,44,0v.326q-22-.006-44,0Z" transform="translate(0 -178.955)" fill="#fdfefd"/>
            <path id="Path_15" data-name="Path 15" d="M327.786,211.375c.777,0,1.553,0,2.331,0a9.61,9.61,0,0,0,.019,1.008c.5-.009,1-.005,1.495,0,.007.246,0,.492-.017.738-.514,0-1.026-.005-1.538.01,0,.819-.007,1.638,0,2.456a14.7,14.7,0,0,1,1.475.028q-.007.434,0,.869c-.682.052-1.365.012-2.047.027a2.222,2.222,0,0,1-1.372-.293.9.9,0,0,1-.345-.7c-.042-.767.036-1.54-.046-2.306-.381.01-.761.013-1.141,0q0-.411.007-.82c.383-.01.767-.006,1.151-.011C327.777,212.044,327.777,211.71,327.786,211.375Z" transform="translate(-290.676 -189.677)" fill="#fdfefd"/>
            <path id="Path_16" data-name="Path 16" d="M35.934,220.334a5.484,5.484,0,0,1,4.548-.364c.573.237,1.2.672,1.234,1.339.028.82,0,1.641.014,2.462-.763.049-1.529.023-2.293.015-.02-.724.013-1.449-.011-2.173a.892.892,0,0,0-.487-.786,2.888,2.888,0,0,0-1.953-.129c-.409.115-.9.345-.97.8-.034.774,0,1.548-.012,2.322-.757.008-1.513.005-2.269,0-.048-1.3-.02-2.61-.015-3.914.724,0,1.446-.011,2.17,0C35.9,220.051,35.919,220.192,35.934,220.334Z" transform="translate(-30 -197.052)" fill="#fdfefd"/>
            <path id="Path_17" data-name="Path 17" d="M177.552,220.744a5.061,5.061,0,0,1,2.906-1.024,7.632,7.632,0,0,1,3.694.487,2.108,2.108,0,0,1,1.313,1.911c-1.989.052-3.982-.038-5.969.044a1.043,1.043,0,0,0,.487.711,3.21,3.21,0,0,0,1.686.247c.553,0,.979-.47,1.54-.424.71.01,1.42-.015,2.13.025a3.964,3.964,0,0,1-2.525,1.22,10.221,10.221,0,0,1-3.52-.083A2.985,2.985,0,0,1,177.3,222.7a1.533,1.533,0,0,1,.25-1.951m2,.66c1.152.087,2.312.064,3.467.054a1.539,1.539,0,0,0-1.448-.85A2.142,2.142,0,0,0,179.547,221.4Z" transform="translate(-157.584 -197.097)" fill="#fdfefd"/>
          </g>
          <g id="_fae80cff" data-name="#fae80cff" transform="translate(8.075 8.868)">
            <path id="Path_18" data-name="Path 18" d="M73.416,82.534c2.937,0,5.875.006,8.813,0,.036,1.6-.032,3.194.034,4.789A8.671,8.671,0,0,0,83.53,86.4c1.641-1.224,3.222-2.524,4.872-3.735a2.359,2.359,0,0,1,.578-.042c3.707.016,7.415-.024,11.121.019a20.867,20.867,0,0,1-1.874,1.442c-1.043.849-2.179,1.579-3.215,2.437-.422.354-.9.643-1.331.977-.1.164.117.279.206.393.966.809,1.907,1.647,2.894,2.434,1.164.976,2.306,1.977,3.48,2.941a2.307,2.307,0,0,1,.394.435c-4,.035-8,0-12,.017a4.386,4.386,0,0,1-.5-.017,4.969,4.969,0,0,1-.773-.738c-1.234-1.229-2.435-2.491-3.664-3.726-.5-.494-.958-1.039-1.5-1.491a16.719,16.719,0,0,1-.069,2.033c-.012,1.345,0,2.692-.007,4.038-.318.027-.635.071-.955.072-2.309,0-4.619,0-6.929,0a6.138,6.138,0,0,1-.83-.071C73.428,90.059,73.4,86.3,73.416,82.534Z" transform="translate(-73.409 -82.53)" fill="#fae80c"/>
          </g>
        </g>
      </g>
      <g id="Group_11299" data-name="Group 11299" transform="translate(887 -359)">
        <g id="mastercard-light-large-2" data-name="mastercard-light-large" transform="translate(209 692)">
          <rect id="card_bg-2" data-name="card_bg" width="48" height="32" rx="4" fill="#fff" stroke="#2a2b2c" stroke-width="1"/>
        </g>
        <g id="Group_165" data-name="Group 165" transform="translate(213 703)">
          <path id="Path_651" data-name="Path 651" d="M338.353,250.7c-.142.422-2.628,7.244-3.458,9.513l0,0a.045.045,0,0,1,0,.014,1.127,1.127,0,0,1-.978.7h-1.324c.8-2.2,2.659-7.285,3.725-10.23Z" transform="translate(-322.355 -250.699)" fill="#939595"/>
          <path id="Path_652" data-name="Path 652" d="M393.5,289.265l-.852,2.337a1.145,1.145,0,0,1-.988.731h-1.415a3.78,3.78,0,0,0,.361-.731l.853-2.336h-2.049l-.85,2.336a1.151,1.151,0,0,1-.992.731h-1.416a3.7,3.7,0,0,0,.36-.731l.854-2.337h-2.048l-.851,2.337a1.148,1.148,0,0,1-.99.731h-6.539a3.587,3.587,0,0,0,.365-.717l.216-.6c.557-1.531-.236-2.777-1.766-2.777h-2.33l-.742,2.047h2.33a.5.5,0,0,1,.465.73l-.227.6a1.128,1.128,0,0,1-.986.716H370.9l-.743,2.047h20.771a4.351,4.351,0,0,0,3.763-2.763l.859-2.352Z" transform="translate(-355.828 -284.149)" fill="#ee7623"/>
          <path id="Path_653" data-name="Path 653" d="M244.094,294.383h-5.407l.745-2.047h5.407a1.157,1.157,0,0,0,1-.731l.212-.584a.5.5,0,0,0-.465-.73h-3.357l.742-2.047h3.357c1.531,0,2.324,1.246,1.766,2.777l-.209.584a4.4,4.4,0,0,1-3.787,2.777" transform="translate(-238.687 -284.153)" fill="#ee7623"/>
        </g>
      </g>
      <g id="americanexpress-light-large" transform="translate(1040 333)">
        <rect id="card_bg-3" data-name="card_bg" width="48" height="32" rx="4" fill="#fff" stroke="#2a2b2c" stroke-width="1"/>
        <g id="Group_11385" data-name="Group 11385" transform="translate(-0.169)">
          <path id="Path_65945" data-name="Path 65945" d="M214.171,51a4.43,4.43,0,0,1,4.186.4,2.583,2.583,0,0,1,.706,2.248c-.625.009-1.249,0-1.872.02a1.218,1.218,0,0,0-.82-1.339,2.628,2.628,0,0,0-2.346.45,1.123,1.123,0,0,0-.283,1.2c1.281.918,3.1.615,4.333,1.643a1.93,1.93,0,0,1,.415,1.967,3.815,3.815,0,0,1-2.991,2.737,5.767,5.767,0,0,1-3.452-.251,2.207,2.207,0,0,1-1.1-2.7c.591.011,1.184.009,1.775.006a3.156,3.156,0,0,0,.165.978,1.928,1.928,0,0,0,1.26.6,3.27,3.27,0,0,0,2.008-.508,1.953,1.953,0,0,0,.539-1.015c-.383-.922-1.545-.842-2.346-1.108-.87-.275-2.017-.4-2.432-1.344A3.406,3.406,0,0,1,214.171,51Z" transform="translate(-177.245 -39.576)" fill="#2a2b2c"/>
          <path id="Path_65946" data-name="Path 65946" d="M70.708,53.813c.125-.532.221-1.069.336-1.6.612.009,1.223,0,1.835.032-.608,2.378-1.039,4.806-1.576,7.2-.154.69-.249,1.392-.457,2.071q-.951-.011-1.9,0c-.809-2.22-1.56-4.464-2.45-6.652-.416,2.227-.907,4.44-1.391,6.652-.582-.006-1.166-.006-1.747,0,.028-.158.08-.472.108-.628.242-1.175.481-2.348.755-3.516.323-1.727.753-3.432,1.073-5.161.686.011,1.372.009,2.058.007q.206.616.416,1.234c.664,1.736,1.229,3.508,1.905,5.239C70.047,57.072,70.344,55.436,70.708,53.813Z" transform="translate(-57.191 -40.832)" fill="#2a2b2c"/>
          <path id="Path_65947" data-name="Path 65947" d="M165.964,53.684c.076-.5.177-.993.294-1.484,1.53.041,3.06-.028,4.588.035a2,2,0,0,1,1.978,1.567,4.536,4.536,0,0,1-.556,2.634,2.958,2.958,0,0,1-2.251,1.558,16.373,16.373,0,0,1-3.108.141c-.262,1.117-.474,2.246-.71,3.371-.63-.006-1.26,0-1.889,0,.253-1.389.563-2.765.855-4.144.247-1.231.519-2.456.8-3.679m1.911.045c-.245.933-.441,1.88-.636,2.824,1.043-.074,2.29.309,3.145-.478.405-.534.76-1.4.307-1.995C169.881,53.475,168.8,53.843,167.875,53.728Z" transform="translate(-139.375 -40.824)" fill="#2a2b2c"/>
          <path id="Path_65948" data-name="Path 65948" d="M110.15,61.491c1.764-3.107,3.5-6.23,5.309-9.311.723.026,1.448.015,2.171.011.422,3.1.892,6.195,1.3,9.3-.675,0-1.351-.006-2.028.007a12.536,12.536,0,0,1-.206-1.824c-.041-.035-.126-.1-.169-.139-1.1-.026-2.2.007-3.3-.013-.359.654-.736,1.3-1.073,1.963-.669.007-1.338,0-2.008.007M114.085,58q1.18-.011,2.359,0c-.1-1.22-.281-2.434-.34-3.659A36.241,36.241,0,0,0,114.085,58Z" transform="translate(-95.283 -40.807)" fill="#2a2b2c"/>
        </g>
      </g>
      <g id="Apple_Pay_Mark_RGB_041619" transform="translate(984 333)">
        <path id="XMLID_4_" d="M43.7,0H3.806c-.138,0-.277,0-.415.007a5.794,5.794,0,0,0-.9.083,2.965,2.965,0,0,0-.858.295A2.888,2.888,0,0,0,.9.938,2.993,2.993,0,0,0,.369,1.7a3.252,3.252,0,0,0-.283.894,6.486,6.486,0,0,0-.08.94C0,3.676,0,3.82,0,3.964c0,.171,0,.342,0,.513V27.524c0,.171,0,.342,0,.513,0,.144,0,.288.006.432a6.483,6.483,0,0,0,.08.939,3.251,3.251,0,0,0,.283.894,2.987,2.987,0,0,0,.531.761,2.871,2.871,0,0,0,.731.553,2.953,2.953,0,0,0,.858.295,5.839,5.839,0,0,0,.9.083Q3.6,32,3.806,32H44.193q.207,0,.415-.006a5.855,5.855,0,0,0,.9-.083,2.955,2.955,0,0,0,.858-.295,2.874,2.874,0,0,0,.731-.553,3,3,0,0,0,.531-.761,3.231,3.231,0,0,0,.283-.894,6.483,6.483,0,0,0,.079-.939q.006-.216.006-.432c0-.171,0-.342,0-.513V4.477c0-.171,0-.342,0-.513q0-.216-.006-.432a6.485,6.485,0,0,0-.079-.94,3.232,3.232,0,0,0-.283-.894A3.011,3.011,0,0,0,47.1.938a2.891,2.891,0,0,0-.731-.553A2.967,2.967,0,0,0,45.511.09a5.81,5.81,0,0,0-.9-.083C44.47,0,44.332,0,44.193,0Z" transform="translate(0)" fill="#2a2b2c"/>
        <g id="maestro" transform="translate(8 5.888)">
          <g id="Group" opacity="0">
            <rect id="Rectangle" width="32.195" height="21.291" fill="#fff"/>
          </g>
          <rect id="Rectangle-2" data-name="Rectangle" width="8.492" height="13.873" transform="translate(11.852 3.709)" fill="#151515"/>
          <path id="Path" d="M10.952,8.824a8.8,8.8,0,0,1,3.327-6.936,8.824,8.824,0,1,0,0,13.873A8.8,8.8,0,0,1,10.952,8.824Z" transform="translate(1.814 1.821)" fill="#e73b36"/>
          <path id="Shape" d="M.416.342H.358V0H.441L.549.241.649,0H.732v.34H.674V.083L.582.308H.516L.416.083V.341Zm-.25,0H.117V.058H0V0H.291V.058H.166V.341Z" transform="translate(29.35 15.769)" fill="#00a1de"/>
          <path id="Path-2" data-name="Path" d="M14.272,8.819A8.824,8.824,0,0,1,0,15.755,8.824,8.824,0,0,0,1.48,3.371,8.65,8.65,0,0,0,0,1.882,8.824,8.824,0,0,1,14.272,8.819Z" transform="translate(16.093 1.827)" fill="#49a948"/>
        </g>
      </g>
      <g id="mastercard-dark-large" transform="translate(872 333)">
        <rect id="card_bg-4" data-name="card_bg" width="48" height="32" rx="4" fill="#212b36"/>
        <g id="mastercard" transform="translate(4.65 3.2)">
          <g id="Group-2" data-name="Group" transform="translate(0 0)" opacity="0">
            <rect id="Rectangle-3" data-name="Rectangle" width="38.71" height="25.6" fill="#fff"/>
          </g>
          <rect id="Rectangle-4" data-name="Rectangle" width="10.21" height="16.68" transform="translate(14.25 4.46)" fill="#f26122"/>
          <path id="Path-3" data-name="Path" d="M13.169,10.61a10.58,10.58,0,0,1,4-8.34,10.61,10.61,0,1,0,0,16.68A10.58,10.58,0,0,1,13.169,10.61Z" transform="translate(2.181 2.19)" fill="#ea1d25"/>
          <path id="Shape-2" data-name="Shape" d="M.5.411H.43V0h.1L.66.29.78,0h.1V.409H.81V.1L.7.37H.62L.5.1V.41ZM.2.41H.14V.07H0V0H.35V.07H.2V.409Z" transform="translate(35.29 18.96)" fill="#f69e1e"/>
          <path id="Path-4" data-name="Path" d="M17.16,10.6A10.61,10.61,0,0,1,0,18.943,10.61,10.61,0,0,0,1.78,4.053,10.4,10.4,0,0,0,0,2.263,10.61,10.61,0,0,1,17.16,10.6Z" transform="translate(19.35 2.197)" fill="#f69e1e"/>
        </g>
      </g>
      <g id="visa-color_large" transform="translate(816 333)">
        <rect id="card_bg-5" data-name="card_bg" width="48" height="32" rx="4" fill="#2a2a6c"/>
        <path id="visa-logo" d="M17.014,9.52a7.127,7.127,0,0,1-2.6-.491l.43-2a5.019,5.019,0,0,0,2.377.6h.063c.712-.01,1.43-.3,1.43-.91.01-.392-.326-.7-1.24-1.15-.9-.439-2.09-1.176-2.09-2.51,0-1.8,1.645-3.06,4-3.06a6.414,6.414,0,0,1,2.24.41l-.419,2a4.512,4.512,0,0,0-1.92-.432c-.147,0-.295.007-.441.022-.691.091-1,.453-1,.77,0,.388.5.647,1.123.975,1,.521,2.234,1.17,2.227,2.695l.05-.08c-.01,1.92-1.647,3.16-4.17,3.16Zm6.626-.08H21.12L24.71.87a1.087,1.087,0,0,1,1-.68h2l1.939,9.249H27.43l-.29-1.38H24.13l-.49,1.38ZM26.02,2.69,24.76,6.16h1.99ZM12.7,9.41H10.3l2-9.25h2.4l-2,9.249ZM7.45,9.38H4.84L2.93,1.99a1,1,0,0,0-.571-.81A9.917,9.917,0,0,0,0,.4L.06.13H4.13a1.118,1.118,0,0,1,1.11.941l1,5.35L8.73.13h2.6L7.45,9.379Z" transform="translate(9.16 11.23)" fill="#fff"/>
      </g>
    </g>
  </g>
</svg>
