<svg xmlns="http://www.w3.org/2000/svg" viewBox="0 0 53.540263 67.949486" version="1.1" fill="#339994">
	<path d="M 42.591797,0.00195313 C 40.776301,0.03561795 39.101251,0.87412297 38.007812,2.3242188 37.649101,2.1641987 37.238575,2.1042113 36.884766,2.1484375 c -1.2,0.1 -2.398829,1.2 -3.298828,2 -0.751691,0.5782235 -1.394427,1.229247 -1.964844,1.921875 -0.560311,0.2012043 -1.114477,0.4907658 -1.535156,0.6777344 -1.300001,0.7 -2.500391,1.7003906 -3.400391,2.9003906 -0.04904,0.1471202 -0.04852,0.2873333 -0.01758,0.4121095 -0.195128,-0.1528338 -0.447935,-0.2414166 -0.783203,-0.2109376 -1.6,0 -3.09961,1.8984376 -4.09961,2.8984376 -1.678698,1.678698 -3.450687,3.555094 -4.65039,5.816406 -0.0506,-0.104861 -0.09215,-0.214056 -0.148438,-0.316406 -0.1,-0.2 -0.401562,-0.299609 -0.601562,-0.09961 -3.136097,2.470864 -5.807281,5.671905 -7.4394535,9.501953 -0.4030716,0.02558 -0.8856189,0.236827 -1.4589844,0.699218 -3.4,3 -4.9011718,8.798438 -4.7011719,13.398438 0,0.02942 0.017907,0.04564 0.029297,0.06641 -1.1899967,0.265999 -2.22373588,0.912522 -2.52929685,2.134766 -0.9,3.1 0.50078128,7.2 1.80078125,10 1.4,3.1 3.5,5.799219 7,6.199219 0.1126698,0 0.1851776,-0.05242 0.234375,-0.123047 0.1756157,1.662068 1.8549335,2.928737 3.4648435,3.023437 2,0.2 3.100782,1.699219 4.800782,2.199219 0.430532,0.123009 0.851141,0.217467 1.271484,0.291015 0.04516,0.08791 0.116748,0.164278 0.228516,0.208985 0.474018,0.203151 0.923424,0.166207 1.355468,0.01172 0.905258,0.519303 1.842701,0.749452 2.789063,0.769531 0.02799,0.137661 0.107957,0.261151 0.255859,0.320312 3.5,2.2 7.498438,0.7 10.898438,-1 2.991974,-1.544245 6.348971,-3.467355 6.939453,-7.195312 2.473736,-1.564435 4.887641,-5.630041 4.722656,-9.123047 0.931431,-1.578739 1.70736,-3.400782 2.238281,-5.082031 0.327246,-0.899925 0.513162,-1.801177 0.244141,-2.75586 0.02456,-0.0382 0.04462,-0.08442 0.05664,-0.144531 0.553639,-2.056377 0.851752,-4.051813 1.003906,-6.082031 0.05363,0.145475 0.294922,0.240929 0.294922,0.08203 1.830751,-3.827935 3.512098,-8.002099 2.357422,-12.11914 0.01646,-0.02435 0.03442,-0.04587 0.04297,-0.08008 1.446171,-3.47081 1.757454,-7.588186 0.25586,-11.195312 0.124716,0.0041 0.24414,-0.08602 0.24414,-0.304688 C 52.689779,10.41895 52.771977,6.5389813 51.044922,5.6621094 50.625087,4.0360203 49.835531,1.7881034 48.685547,1.0488281 47.238242,0.14426279 45.546688,0.22627252 43.978516,0.69335938 c 0.0017,-0.0131189 0.0062,-0.0319715 0.0078,-0.0449219 0.1,-0.3 -0.2,-0.49960938 -0.5,-0.59960938 -0.3,-0.03749999 -0.599609,-0.05234375 -0.894531,-0.04687499 z m -0.3125,0.82226562 c 0.233398,-0.008594 0.469531,3.9062e-4 0.707031,0.0253906 -0.2,0.70000002 -0.301562,1.39921872 -0.601562,2.19921872 -0.29145,0.6800495 -1.048522,1.4554072 -1.091797,2.3242188 C 41.068859,5.0718898 40.806112,4.7924726 40.486328,4.5488281 39.977432,4.1417114 39.447259,3.9244968 38.912109,3.8398438 c 0.0017,-0.12788 -0.0053,-0.258471 -0.02734,-0.390625 C 38.851713,3.1186951 38.704603,2.8592894 38.5,2.65625 39.515031,1.5501873 40.848312,0.87690773 42.279297,0.82421875 Z m 4.042969,0.46289065 c 0.9125,0.0375 1.763281,0.3121094 2.363281,1.1621094 0.678537,0.8820976 0.94723,1.9913905 1.296875,3.0527343 -1.041061,0.1271145 -1.883612,1.0227981 -2.5625,1.9023438 0.197877,-1.6734393 0.02162,-3.668104 -1.833984,-4.0546875 C 44.812944,3.1868738 43.96157,3.413451 43.191406,3.84375 43.511017,3.0828752 43.707164,2.2638108 43.839844,1.5136719 44.629486,1.4087381 45.495874,1.2531481 46.322266,1.2871094 Z m -9.9375,1.7617187 c 0.6,0.2 1.101562,0.3996094 1.601562,0.5996094 0,0.059103 -0.02222,0.1186317 -0.03711,0.1777344 -1.570112,0.1988556 -3.098141,1.3739009 -4.226563,2.484375 -0.104348,-0.092376 -0.215573,-0.1801741 -0.33789,-0.2617188 -0.213057,-0.1420374 -0.460225,-0.1948641 -0.72461,-0.1953125 0.398549,-0.3819094 0.802235,-0.7598894 1.22461,-1.1054687 0.6,-0.5 1.200781,-0.8988281 1.800781,-1.2988281 0.2,-0.1000001 0.499219,-0.3003907 0.699219,-0.4003907 z m 9.09375,1.2734375 c 1.507788,0.146315 0.765512,2.7103386 0.9375,4.0390625 -1.621287,0.2847231 -2.997905,2.1566379 -3.976563,3.4570309 -0.05231,-0.02215 -0.100693,-0.04998 -0.154297,-0.07031 -0.119758,-0.05489 -0.242487,-0.09861 -0.365234,-0.142578 0.03008,-0.04347 0.05422,-0.09531 0.06641,-0.15625 0.345125,-1.5875746 0.479552,-3.5004747 -0.148437,-5.0644534 0.774597,-0.7951986 1.533285,-1.5306265 2.748047,-1.9355468 0.362499,-0.1125 0.655078,-0.1500001 0.892578,-0.1269532 z M 38.5625,4.7636719 c 0.766602,0.04248 1.498047,0.4101562 2.123047,1.2851562 0.09041,0.1356109 0.157785,0.2816413 0.226562,0.4277344 -0.0064,0.024006 -0.02171,0.048332 -0.02734,0.072266 -0.06657,0.2662926 0.08793,0.4309345 0.228515,0.4609375 0.413952,1.3858676 0.152607,3.0543904 0.07227,4.3398434 -0.0045,0.02253 9.98e-4,0.03966 0,0.06055 -2.026321,-0.365406 -4.114927,0.660969 -4.199219,2.927735 -0.373001,-0.570642 -0.832154,-1.051282 -1.40039,-1.388672 -0.193241,-0.103062 -0.379087,-0.19027 -0.560547,-0.263672 0.05938,-1.305076 -0.154765,-2.669598 -0.240235,-4.0371095 -0.06107,-0.6717292 -0.253628,-1.256066 -0.583984,-1.7558594 1.061834,-0.9061559 2.437233,-1.9107563 3.779297,-2.0976562 0,0 0.002,0.00195 0.002,0.00195 0.05938,0.032813 0.128125,0.052734 0.203125,0.052734 0.07593,-0.021695 0.140801,-0.051433 0.203125,-0.082031 0.05768,-3.785e-4 0.116498,-0.00708 0.173828,-0.00391 z m 11.699219,1.5078125 c 0.09615,0.2322902 0.200511,0.4612458 0.324219,0.6777344 0.157877,0.2105035 0.365518,0.2206355 0.517578,0.1308593 0.671272,1.2857362 0.928173,3.6118089 1.121093,4.5332029 -0.133209,-0.05877 -0.306488,-0.06445 -0.439453,-0.06445 -0.572619,0.260282 -1.031972,0.606424 -1.416015,1.029297 C 50.230144,11.043355 49.531235,9.622744 48.185547,8.7480469 47.879718,8.5523163 47.578955,8.4320666 47.283203,8.3710938 48.138369,7.9480839 48.827896,6.9545797 49.585938,6.4492188 49.835181,6.2872103 50.05927,6.23599 50.261719,6.2714844 Z m -17.941407,0.671875 c 1.676297,-0.1153234 1.73544,3.6438486 1.921876,5.5195316 -0.892529,-0.157344 -1.706173,0.07478 -2.65625,0.685547 -1.820168,1.12677 -3.548863,3.285568 -5.023438,5.148437 -0.17256,-0.214928 -0.367857,-0.38736 -0.591797,-0.494141 0.64968,-1.892187 0.785606,-4.241731 1.115235,-6.054687 0.09679,-0.435567 0.07183,-0.914597 -0.09961,-1.285156 0.138256,0.0743 0.286576,0.09819 0.398438,-0.01367 0.948576,-1.094511 1.955343,-2.0233461 3.126953,-2.7207034 0.08655,0.00986 0.193092,2.669e-4 0.273437,-0.080078 0.06131,-0.055174 0.124219,-0.1211488 0.185547,-0.1777344 0.294792,-0.153846 0.595939,-0.2981603 0.914063,-0.421875 0.15625,-0.0625 0.301049,-0.096216 0.435546,-0.1054687 z m 14.701172,2.5273437 c 0.247461,0.00996 0.501172,0.065234 0.763672,0.1777344 1.674539,0.7932025 1.569591,2.8055865 1.587891,4.4414065 -0.527202,0.270738 -1.008215,0.626963 -1.287109,0.859375 -0.796085,0.597063 -1.543289,1.33048 -2.076172,2.25 -0.398984,-1.985365 -1.266159,-3.955476 -2.855469,-4.998047 1.107898,-1.123254 2.351889,-2.7914635 3.867187,-2.7304689 z M 25.955078,10.708984 c 0.2375,0.03281 0.380078,0.240235 0.330078,0.740235 -0.1,1 -0.399609,2.00039 -0.599609,2.90039 -0.145837,1.093774 -0.499521,2.187476 -0.605469,3.28125 -1.237965,0.04289 -2.286657,1.191528 -3.195312,2.017579 -1.508969,1.320347 -3.445185,3.263803 -4.082032,5.242187 -0.09414,-0.03369 -0.188243,-0.06519 -0.283203,-0.08789 0.528109,-2.037314 0.530773,-4.307293 -0.367187,-6.199218 0.06722,-0.0053 0.168034,0.0097 0.232422,-0.05469 2.2,-2.2 4.201562,-4.599219 6.601562,-6.699219 -0.3,0.225 1.25625,-1.239062 1.96875,-1.140625 z m 14.152344,1.560547 c 0.999414,-0.03196 2.103516,0.392188 2.978516,1.179688 1.439461,1.270113 1.800494,3.251176 2.121093,5.166015 -1.613756,1.634919 -3.017145,5.171894 -3.404297,6.150391 -0.129654,-0.182771 -0.269197,-0.356409 -0.417968,-0.517578 -0.934746,-1.02822 -2.218339,-1.690637 -3.525391,-1.203125 0.587935,-2.23683 0.65219,-5.645455 -0.480469,-8.011719 0.08071,-0.02723 0.142409,-0.07863 0.107422,-0.183594 0.225,-1.74375 1.336133,-2.538989 2.621094,-2.580078 z m 11.466797,0.376953 c 0.185937,0.02813 0.361719,0.201563 0.511719,0.601563 0.399999,1 0.499609,2.200781 0.599609,3.300781 0.06262,1.377659 -0.09152,2.786669 -0.396485,4.144531 0.02127,-1.071568 -0.0039,-2.156489 -0.0039,-3.24414 -0.1,-1.3 0.100391,-2.89961 -1.099609,-3.59961 -0.248281,-0.12414 -0.52791,-0.148822 -0.816406,-0.109375 8.91e-4,-0.0098 0.0011,-0.01953 0.002,-0.0293 0.361218,-0.521123 0.803153,-1.124954 1.203125,-1.064454 z m -17.476563,0.595704 c 0.09646,0.0069 0.186255,0.03064 0.277344,0.05273 0.0042,0.01312 0.0054,0.04275 0.0098,0.05469 0.07559,0.22676 0.37945,0.280103 0.523437,0.164063 1.262915,0.774953 1.905786,3.010605 2.177735,4.234375 0.496551,1.986207 0.103941,3.874528 -0.195313,5.859375 -2.010507,1.393376 -3.788464,3.335414 -5.404297,5.041016 -0.02046,0.06138 -0.01088,0.11334 -0.01953,0.171874 -0.323644,-0.473023 -0.684384,-0.860187 -1.082031,-1.072265 -0.593429,-0.296715 -1.103645,-0.302978 -1.566407,-0.160156 -0.136046,-1.875958 -0.475715,-3.707548 -0.933593,-5.539063 -0.185157,-0.740625 -0.409956,-2.013692 -0.859375,-2.998047 1.930899,-1.822005 3.462571,-4.028853 5.660156,-5.402343 0.525,-0.31875 0.994336,-0.436207 1.412109,-0.40625 z m 16.541016,1.591796 c 0.328125,0.01406 0.571484,0.214844 0.646484,0.714844 0.230682,1.99924 0.168742,3.940193 0.171875,5.91211 -0.08917,-0.170792 -0.170672,-0.341381 -0.271484,-0.511719 -0.2,-0.3 -0.700391,-0.4 -0.900391,0 -0.348033,0.632787 -0.681686,1.30715 -0.998047,2 -0.116143,-1.745866 -0.565655,-3.397957 -1.601562,-4.59961 -0.294396,-0.331195 -0.600283,-0.494086 -0.912109,-0.52539 0.304058,-0.409156 0.596383,-0.807434 0.912109,-1.175781 0.163275,-0.163275 1.123367,-1.050105 2.015625,-1.517579 0.156201,0.03802 0.32919,-0.01834 0.439453,-0.205078 0.177943,-0.06083 0.347483,-0.09825 0.498047,-0.0918 z M 24.71875,18.828125 c 1.380859,0.142187 2.092578,4.496484 2.267578,5.021484 0.317732,1.509226 0.451537,2.956182 0.691406,4.439453 -0.432366,0.408577 -0.818118,0.91143 -1.191406,1.359376 -1.462112,1.705797 -2.655345,3.549182 -3.482422,5.679687 -0.213214,-3.584147 -1.68815,-7.279671 -4.017578,-9.679687 C 18.687321,25.357736 18.378359,25.149366 18.064453,25 c 0.802877,-0.754204 1.442163,-1.672632 2.220703,-2.451172 1.2,-1.3 2.400781,-2.4 3.800782,-3.5 0.225,-0.175 0.435546,-0.241015 0.632812,-0.220703 z m -8.433594,0.320313 c 0.786286,1.867427 0.417315,3.546963 0.404297,5.597656 -2.361453,0.155978 -4.77228,3.089223 -6.132812,5.388672 -0.06963,-1.126688 -0.414066,-2.133298 -1.1308598,-2.40625 1.8238848,-3.334186 3.9405968,-6.226225 6.8593748,-8.580078 z m 30.109375,0.591796 c 0.715821,0.07227 1.466797,0.720703 1.591797,1.408204 0.666652,2.761844 0.232721,5.432785 -0.5,8.099609 -1.87123,1.701119 -4.024805,3.623568 -5.367187,5.943359 -0.205481,-0.11135 -0.412568,-0.193276 -0.621094,-0.257812 1.849806,-2.11983 2.197383,-6.432719 0.814453,-9.285156 0.02694,-0.02713 0.05109,-0.05727 0.07227,-0.09961 0.8,-1.2 1.501562,-2.399219 2.101562,-3.699219 0.3,-0.5 0.498828,-1 0.798828,-1.5 0.09609,-0.178452 0.215142,-0.306833 0.345703,-0.404297 0.186635,0.06948 0.424712,-0.0013 0.560547,-0.189453 0.06803,-0.0043 0.133861,-0.02262 0.203125,-0.01563 z m 4.390625,2.507813 c 1.894705,4.288017 0.308848,8.974505 -1.1875,13.066406 0.03465,-0.48662 0.06895,-0.972408 0.08789,-1.464844 0,-1.561149 0.06644,-3.44861 -1.236328,-4.445312 0.286143,-0.925032 0.530834,-1.985005 0.691406,-3.111328 0.567042,-1.328969 1.08275,-2.710692 1.644531,-4.044922 z m -12,1.898437 c 0.45625,-0.03594 0.925391,0.101954 1.400391,0.501954 3,2.399999 1.700391,7.199609 0.900391,10.099609 -0.01019,0.03058 0.0026,0.05396 0.002,0.08203 -3.204457,-0.54864 -6.581436,3.810984 -8.042969,6.353516 -0.07932,-0.231259 -0.159952,-0.460628 -0.248047,-0.685547 0.129876,-0.05889 0.238553,-0.172828 0.289063,-0.349609 0.6,-2.3 0.599609,-4.600391 0.09961,-6.900391 -0.184185,-0.920927 -0.63517,-2.478736 -1.300781,-3.732422 0.03402,-0.01461 0.06901,-0.03385 0.101562,-0.06641 1.2,-0.8 2.199219,-1.701172 3.199219,-2.701172 0.975,-0.825 2.230859,-2.49375 3.599609,-2.601563 z m -22.064453,2.03711 c 1.179199,-0.02197 2.371094,0.689453 3.464844,2.564453 2,3.4 1.999609,7.000781 1.599609,10.800781 0,0.157938 0.104944,0.250649 0.230469,0.302734 -1.662264,1.370669 -3.128262,3.009485 -4.376953,4.792969 -0.302768,-0.121321 -0.6093,-0.204619 -0.916016,-0.265625 0.265632,-2.691161 -0.459512,-5.342982 -1.80664,-7.642578 0.139218,-0.316815 0.232348,-0.677515 0.36914,-1.08789 0.2,-0.8 0.501172,-1.498829 0.701172,-2.298829 0.1,-0.2 -0.300781,-0.401171 -0.300781,-0.201171 -0.3,0.6 -0.700391,1.20039 -0.900391,1.90039 -0.09452,0.330815 -0.230662,0.638057 -0.330078,0.945313 -1.050949,-1.576588 -2.399786,-2.952336 -3.90625,-4.023438 1.361134,-2.554897 3.72834,-5.741578 6.171875,-5.787109 z m 12.742188,2.632812 c 0.318164,-0.01172 0.597265,0.119141 0.822265,0.431641 2.034574,2.774419 2.516096,6.569306 1.867188,9.814453 -0.521696,-1.023153 -1.123206,-1.927336 -1.767578,-2.613281 -1.6,-1.7 -5.098829,1.10039 -6.298828,1.90039 -0.491226,0.309291 -0.965545,0.646778 -1.429688,1 0.24587,-0.972902 0.367064,-2.00155 0.373047,-3.052734 0.854691,-1.541948 3.049308,-5.09172 4.914062,-6.685547 0.209478,0.386329 0.852203,0.184299 0.941407,-0.261719 0,-0.12211 -0.01179,-0.241636 -0.01367,-0.363281 0.207207,-0.09548 0.407304,-0.163126 0.591797,-0.169922 z M 8.4101562,29.005859 c 0.7335725,-0.113177 1.0594811,1.343771 1.1542969,2.525391 -1.4599882,-0.171508 -2.9381859,1.607854 -3.7792969,2.617188 -1.6178684,2.128774 -2.2137572,4.909741 -2.171875,7.541015 -0.1479336,0.0127 -0.2915218,0.04539 -0.4375,0.06836 0.00242,-0.0043 0.00754,-0.0053 0.00977,-0.0098 0.2,-3 0.9,-5.8 2,-8.5 0.6,-1.4 1.4003906,-2.499609 2.4003906,-3.599609 0.31875,-0.412501 0.5916016,-0.60669 0.8242187,-0.642579 z m 39.1757818,1.44336 c 0.799999,0.7 1.099999,1.5 1,2.5 0.1,0.9 0.1,1.699609 0,2.599609 -0.0869,1.738073 -0.332114,3.398122 -0.589844,5.050781 -0.998509,-1.215475 -2.777737,-0.247738 -3.695313,0.945313 0.3623,-2.22003 0.06217,-4.481026 -1.417969,-5.810547 1.527596,-1.764218 2.944067,-3.693627 4.703126,-5.285156 z M 9.046875,32.841797 c 0.2033258,-0.02614 0.4039685,-0.0028 0.6054688,0.04102 0.084117,0.08755 0.2197551,0.134708 0.3496092,0.09766 0.499532,0.196705 1.012587,0.573148 1.583985,1.068359 2.946708,2.670455 3.93303,6.442638 4.15039,10.22461 -1.627064,-0.0039 -3.202845,0.757359 -4.371094,1.990234 -0.611822,-1.091541 -1.3871191,-1.999099 -2.318359,-2.732422 0.046247,-0.01336 0.092425,-0.03578 0.1386719,-0.08203 0.1,-0.8 -0.2007813,-1.7 -0.3007813,-2.5 -0.1,-1 -0.1996093,-1.900782 -0.099609,-2.800781 0.1,-0.3 -0.5,-0.39961 -0.5,-0.09961 -0.1999999,1 -0.1996093,1.900391 -0.099609,2.900391 0.089886,0.808974 0.1957927,1.687117 0.5761719,2.367187 C 7.9937941,42.757822 7.1354744,42.301044 6.1855469,41.949219 5.6335994,41.77492 4.9536075,41.680736 4.2539062,41.675781 c 0.2444637,-1.964576 0.5584989,-3.943185 1.53125,-5.726562 0.4000001,-0.8 1.0011719,-1.601172 1.7011719,-2.201172 0.5625,-0.5625 1.0683593,-0.842969 1.5605469,-0.90625 z m 31.835937,2.888672 c 0.308878,0.02143 0.574995,0.127838 0.808594,0.292969 -0.06702,0.142503 -0.144877,0.280295 -0.205078,0.425781 -0.2,0.2 0.2,0.598828 0.5,0.298828 0.06655,-0.07005 0.127509,-0.147752 0.19336,-0.21875 0.989476,1.379976 1.038101,4.163935 0.90625,5.21875 -0.164114,1.394963 -0.800643,2.7065 -1.410157,3.966797 -0.390872,0.05952 -0.767531,0.142285 -1.089843,0.234375 -2.8,0.7 -5.3,3.299218 -7.5,5.199219 -0.168818,0.168817 -0.177426,0.329707 -0.128907,0.460937 -0.154812,-0.244741 -0.327059,-0.469733 -0.509765,-0.681641 0.107311,-0.132544 0.206291,-0.270164 0.300781,-0.412109 0.735784,-0.80388 1.358915,-1.761757 2.037109,-2.666016 0.9,-1.2 1.79961,-2.301562 2.59961,-3.601562 0.1,-0.3 -0.198438,-0.598828 -0.398438,-0.298828 -0.9,1.1 -1.900781,2.098828 -2.800781,3.298828 -0.1276,0.155955 -0.266746,0.321705 -0.400391,0.478515 0.298136,-1.866475 0.05508,-3.97955 -0.539062,-5.945312 1.977598,-2.090435 3.866696,-4.743289 6.539062,-5.832031 0.4125,-0.175 0.776758,-0.241016 1.097656,-0.21875 z m -11.912109,1.90039 c 0.523389,0.04922 0.976953,0.26875 1.314453,0.71875 1.3,1.8 2.000781,3.999219 2.300782,6.199219 0.171894,2.062736 -0.540863,3.756903 -0.935547,5.652344 -0.551641,-0.385304 -1.19705,-0.629762 -1.964844,-0.652344 -2.6,0 -6.099219,3.599609 -6.699219,6.09961 -0.1,0.299999 0.39961,0.601171 0.59961,0.201171 1.199999,-2.2 3.099609,-3.401171 5.099609,-4.701171 3.8,-2.200001 4.999219,5.100781 4.699219,7.300781 -0.4,2.5 -3.398438,4.3 -5.398438,5.5 -1.920556,1.120324 -3.907937,1.52333 -6.007812,1.183593 0.02004,-0.118228 -0.002,-0.226348 -0.0957,-0.271484 0.308412,-0.248612 0.609943,-0.500235 0.902344,-0.71289 1.7,-1.4 3.09961,-2.899219 4.59961,-4.699219 0.1,-0.3 -0.198829,-0.500782 -0.298828,-0.300781 l -3.09961,3.099609 c -0.670326,0.670326 -2.061357,2.115549 -3.347656,2.5625 -0.01697,-0.0012 -0.03196,-0.0046 -0.04883,-0.0059 -0.06861,-0.0214 -0.136205,-0.03368 -0.205078,-0.05664 -0.114542,-0.04582 -0.209615,-0.03405 -0.289063,0.0059 -1.723539,-0.212716 -2.936076,-0.810855 -4.810547,-1.904297 -0.183301,-0.104743 -0.366687,-0.182964 -0.550781,-0.263671 4.65932,-0.607146 7.551953,-5.137228 7.613281,-9.681641 0.01152,-0.01968 0.02767,-0.03108 0.03711,-0.05469 1.7,-2.7 2.801562,-5.9 3.601562,-9 0.1,-0.3 -0.300391,-0.401562 -0.40039,-0.101562 -0.875,2.7125 -1.993751,5.194336 -3.328126,7.648437 -0.274772,-2.107507 -1.179851,-4.127432 -2.873046,-5.648437 -0.312203,-0.280982 -0.634463,-0.508032 -0.962891,-0.705078 1.126409,-1.29282 2.268437,-2.570146 3.564453,-3.69336 1.1375,-0.975 4.716358,-3.932031 6.984375,-3.71875 z m 17.240235,3.701172 c 0.475585,-0.01758 0.974609,0.404297 1.474609,1.216797 0,0.6 -0.200781,1.19961 -0.300781,1.59961 -0.415753,1.31655 -1.06194,2.636507 -1.558594,3.986328 -0.126761,-0.448951 -0.297117,-0.882193 -0.541016,-1.285157 -0.545721,-0.873154 -1.478923,-1.171068 -2.441406,-1.205078 0.470837,-0.795084 0.877225,-1.741061 1.162109,-2.748047 0.09727,0.03173 0.201348,0.03107 0.279297,-0.04687 0.4,-0.3 0.79961,-0.6 1.09961,-1 0.2625,-0.3375 0.54082,-0.507031 0.826172,-0.517578 z M 3.7050781,43.158203 c 0.011648,-7.46e-4 0.02349,6.66e-4 0.035156,0 0.081794,0.0862 0.2294119,0.101877 0.3007812,0.002 0.6633587,-0.002 1.330619,0.09324 1.84375,0.189453 2.0710986,0.450239 3.6495278,2.197486 4.6015624,4.074219 -1.6918854,2.869347 -1.5624308,8.780176 0.398438,11.525391 0.1,0.2 0.40039,-7.82e-4 0.40039,-0.300781 -0.9,-2.8 -1,-5.998829 -0.5,-8.798829 0.11384,-0.546433 0.292356,-1.033377 0.509766,-1.472656 0.42325,0.0098 0.892028,-0.360008 0.691406,-0.828125 -0.01952,-0.04969 -0.04437,-0.09352 -0.06445,-0.142578 1.997612,-2.433827 5.823489,-2.226124 7.962891,0.943359 3.8,5.5 -1,11.8 -6,13.5 -0.175419,0.04386 -0.24027,0.186056 -0.240235,0.337891 -1.535845,-0.449589 -2.972194,-0.642517 -3.8593748,-2.638672 -0.087098,-0.261295 -0.3870484,-0.205302 -0.4667968,0.07422 -0.049503,-0.08022 -0.1224499,-0.146335 -0.2324219,-0.173828 -4.4,-1.9 -6.0011719,-6 -7.2011719,-10.5 -0.3,-1.1 -0.4,-2.101172 -0.5,-3.201172 -0.125,-1.9375 1.0390625,-2.507813 2.3203125,-2.589844 z m 38.7070309,3.726563 c 0.223316,0.0054 0.448828,0.02695 0.673829,0.06445 2.799999,0.5 1.298828,5.199609 0.798828,6.599609 -0.633367,1.719137 -1.760308,2.943829 -2.931641,4.125 -1.336183,-0.791349 -2.668363,-0.831132 -3.914063,-0.414062 0.110886,-0.102196 0.241198,-0.219105 0.345704,-0.310547 1,-1 1.801562,-2.100391 2.601562,-3.400391 0.1,-0.2 -0.200781,-0.299609 -0.300781,-0.09961 -0.8,0.9 -1.699609,1.799218 -2.599609,2.699219 -0.768163,0.768162 -1.825187,1.247217 -2.492188,1.992187 0.05617,-0.44889 0.06072,-0.912857 -0.0078,-1.392578 -0.219468,-1.536276 -0.653399,-3.51966 -1.558594,-5.017578 0.09452,0.100144 0.22967,0.161724 0.357422,0.11914 2.273104,-1.515403 5.044679,-4.36782 8.011718,-4.876953 0,0 0.002,0.002 0.002,0.002 0.1375,0.1 0.336328,0.12461 0.486328,-0.02539 0.01251,-0.01305 0.02464,-0.02968 0.03711,-0.04297 0.163347,-0.01197 0.32586,-0.02547 0.490234,-0.02148 z M 3.6855469,48.636719 c -0.05,0.0125 -0.099609,0.06133 -0.099609,0.111328 0.5,1.5 0.9996094,3.201172 1.5996094,4.701172 0.6,1.4 1.2003906,3.198828 2.4003906,4.298828 0.1,0.2 0.3988281,7.81e-4 0.2988281,-0.199219 -0.4,-1.4 -1.4,-2.60039 -2,-3.90039 -0.8,-1.600001 -1.4996094,-3.200391 -2.0996094,-4.900391 0,-0.1 -0.049609,-0.123828 -0.099609,-0.111328 z m 12.2617191,4.730469 c -0.03594,0.0063 -0.0625,0.03203 -0.0625,0.08203 -0.6,1.4 -1.299219,2.598828 -2.199219,3.798828 -0.8,1 -1.899219,1.800781 -2.699219,2.800781 -0.3,0.2 -0.100781,0.500391 0.199219,0.400391 2.4,-1.1 4.1,-4.300781 5,-6.800781 0.075,-0.150001 -0.130469,-0.300001 -0.238281,-0.28125 z m 23.355468,4.679687 c 2.277466,0.166992 0.04492,2.839844 -0.517578,3.402344 -0.7,0.9 -1.699609,1.4 -2.599609,2 -3.518111,2.164991 -6.955824,3.832061 -10.898438,2.818359 1.411977,-0.350242 2.804697,-1.005393 4.097657,-1.71875 1.710537,-1.052638 3.631565,-2.584468 4.607422,-4.503906 0.03181,-6e-6 0.06131,0.01472 0.09375,0.0039 1.5,-0.9 2.799218,-1.9 4.699218,-2 0.19375,-0.0125 0.365747,-0.01309 0.517578,-0.002 z"></path>
</svg>